<svg width="125" height="153" viewBox="0 0 125 153" fill="none" xmlns="http://www.w3.org/2000/svg">
    <path
        d="M70.8214 0.154134C73.5503 -0.605517 76.5639 1.51288 77.8638 4.96468C78.1306 5.46678 78.3552 6.00732 78.5278 6.58072C78.8044 7.13623 79.0369 7.73622 79.214 8.37244C79.2997 8.68027 79.37 8.98759 79.4254 9.29278C79.4394 9.34076 79.4532 9.389 79.4667 9.43738C79.916 11.0511 79.9968 12.6367 79.7676 14.0083C103.657 18.6311 120.815 38.1967 119.318 60.0239C122.877 64.2587 124.449 69.6252 123.92 75.2745C122.646 88.8597 109.326 94.8833 93.2047 97.498C77.0831 100.113 64.6701 101.512 41.8747 94.9934C26.1483 90.4962 14.6184 83.2117 13.2745 69.3332C13.3661 62.7884 16.3833 56.8653 21.2601 52.4427C21.2763 52.2341 21.2937 52.0253 21.3132 51.8164C23.1537 32.1815 39.5702 17.0015 60.4074 13.6673C58.7612 11.1907 58.3647 8.41375 59.2791 6.6385C59.3915 6.32355 59.5497 6.02879 59.7563 5.76097C61.1025 4.01635 64.061 3.9635 66.8398 5.46476C66.9742 4.98657 67.1533 4.5322 67.3728 4.1096C67.8769 2.14749 69.1024 0.632685 70.8214 0.154134Z"
        fill="#FADA3A" />
    <path
        d="M58.1443 54.5446C58.0835 56.6234 57.3565 58.4636 56.1822 59.904C54.7155 61.7029 52.552 62.8535 50.1259 62.7826C47.6806 62.7112 45.6444 61.4633 44.248 59.5554C43.1496 58.0549 42.4031 56.1448 42.4632 54.0866C42.5215 52.0927 43.44 50.2851 44.56 48.8701C46.0661 46.9673 48.1109 45.9183 50.6163 45.9914C53.0979 46.0639 55.0988 47.3015 56.4943 49.2187C57.5554 50.6764 58.2032 52.5252 58.1443 54.5446Z"
        fill="#040301" />
    <path
        d="M54.756 51.6675C54.7247 52.7404 53.8916 53.5867 52.8953 53.5576C51.8989 53.5285 51.1167 52.6351 51.148 51.5621C51.1793 50.4891 52.0124 49.6429 53.0087 49.672C54.0051 49.7011 54.7873 50.5945 54.756 51.6675Z"
        fill="white" />
    <path
        d="M96.5579 56.9296C96.4972 59.0084 95.7701 60.8486 94.5958 62.2889C93.1292 64.0879 90.9656 65.2385 88.5396 65.1676C86.0943 65.0962 84.0581 63.8482 82.6616 61.9404C81.5633 60.4398 80.8168 58.5298 80.8769 56.4716C80.9351 54.4777 81.8537 52.6701 82.9737 51.2551C84.4798 49.3522 86.5246 48.3032 89.03 48.3764C91.5115 48.4489 93.5125 49.6865 94.9079 51.6036C95.969 53.0614 96.6169 54.9102 96.5579 56.9296Z"
        fill="#040301" />
    <path
        d="M93.171 54.0525C93.1397 55.1254 92.3066 55.9716 91.3103 55.9425C90.3139 55.9134 89.5317 55.02 89.563 53.9471C89.5943 52.8741 90.4274 52.0279 91.4238 52.057C92.4201 52.0861 93.2024 52.9795 93.171 54.0525Z"
        fill="white" />
    <path
        d="M46.7894 67.5297C46.4673 70.1938 42.9974 71.9656 39.0393 71.487C35.0811 71.0085 32.1335 68.4608 32.4556 65.7966C32.7777 63.1324 36.2476 61.3607 40.2058 61.8392C44.1639 62.3178 47.1116 64.8655 46.7894 67.5297Z"
        fill="#F99091" />
    <path
        d="M106.545 67.1288C107.098 69.7548 104.383 72.5494 100.482 73.3708C96.58 74.1922 92.9691 72.7292 92.4162 70.1032C91.8634 67.4772 94.578 64.6826 98.4795 63.8612C102.381 63.0398 105.992 64.5028 106.545 67.1288Z"
        fill="#F99091" />
    <path fill-rule="evenodd" clip-rule="evenodd"
        d="M70.3243 55.7197C67.9925 55.7562 66.6983 56.0908 64.299 57.2012C63.773 57.4749 63.4306 57.6826 63.1214 57.9181C62.8117 58.1539 62.5318 58.4203 62.1306 58.8155C61.3701 59.7284 60.981 60.1804 60.7215 61.2904C60.4595 62.4107 60.5403 63.0612 60.6609 64.2989C61.0457 66.5317 61.3886 67.7663 62.2876 69.9466C62.7021 70.6607 62.9715 71.157 63.3321 71.6476C63.6921 72.1373 64.1447 72.6229 64.924 73.3035C65.6138 73.9058 66.1952 74.2913 66.8059 74.5581C67.4146 74.8239 68.0597 74.975 68.8828 75.1012C69.7261 75.0987 70.3871 74.9407 71.0295 74.8007C71.669 74.6613 72.2964 74.4011 73.0647 73.9095C73.9362 73.3518 74.4557 72.9386 74.8842 72.5076C75.3135 72.0758 75.6534 71.6248 76.169 70.98C77.381 68.9569 77.903 67.7866 78.6141 65.6353C78.9166 64.4292 79.0928 63.7979 78.9996 62.6511C78.9073 61.5148 78.5894 61.0102 77.9724 59.9948C77.6342 59.5446 77.3969 59.2396 77.1255 58.9606C76.8545 58.6819 76.5465 58.4258 76.0667 58.0772C73.8562 56.6223 72.6116 56.1005 70.3243 55.7197Z"
        fill="#FF7518" />
    <path
        d="M61.8678 62.7204C62.3614 66.8169 64.1545 73.0306 68.9989 73.0658C73.8135 73.8418 75.9322 68.736 77.659 63.7833C71.3682 61.8897 68.579 61.7465 61.8678 62.7204Z"
        fill="#C22F07" />
    <path
        d="M63.4541 68.7122C64.4118 71.4343 65.7716 72.6304 68.886 73.1537C71.8987 73.3794 73.2896 72.6598 75.1382 69.582C74.2611 68.7275 73.6492 68.3988 72.4621 68.1298C71.0716 68.1188 70.3987 68.3513 69.2962 69.1471C68.5327 68.2999 67.9899 67.9282 66.5089 67.6866C65.0321 67.5817 64.4022 67.8743 63.4541 68.7122Z"
        fill="#F4551D" />
    <path
        d="M35.7912 144.044C35.6855 140.8 38.9451 137.536 43.5963 136.591L44.5928 127.272L57.5872 133.488C58.3911 138.781 58.464 141.185 57.768 144.242L57.688 144.243C57.1021 147.701 52.5997 150.502 47.042 150.681C40.5501 150.765 35.1829 147.728 35.7912 144.044Z"
        fill="#F47112" />
    <path
        d="M35.7912 144.044C35.6855 140.8 38.9451 137.536 43.5963 136.591L44.5928 127.272L57.5872 133.488C58.3911 138.781 58.464 141.185 57.768 144.242L57.688 144.243C57.1021 147.701 52.5997 150.502 47.042 150.681C40.5501 150.765 35.1829 147.728 35.7912 144.044Z"
        fill="#F47112" />
    <path
        d="M94.2876 146.266C94.3933 143.022 91.1337 139.758 86.4825 138.813L85.4859 129.494L72.4916 135.71C71.6877 141.003 71.6147 143.407 72.3108 146.464L72.3908 146.465C72.9766 149.923 77.4791 152.724 83.0367 152.903C89.5286 152.987 94.8958 149.95 94.2876 146.266Z"
        fill="#F47112" />
    <path
        d="M103.66 112.782C103.66 127.449 87.5282 139.34 67.6286 139.34C47.7291 139.34 31.5974 127.449 31.5974 112.782C31.5974 98.1136 31.322 85.4823 51.2215 85.4823C61.1765 85.4823 80.1058 84.5084 95.2885 88.4452C105.287 91.0374 103.66 105.451 103.66 112.782Z"
        fill="#FADA3A" />
    <path
        d="M36.2993 104.839C31.9677 109.352 23.7291 108.699 17.1878 107.276C7.23625 105.111 -3.64952 94.2904 1.18418 87.3333C4.24016 81.8271 20.7554 83.1751 28.2544 87.3358C35.7535 91.4965 39.3553 99.3332 36.2993 104.839Z"
        fill="#FADA3A" />
    <path
        d="M94.0175 86.6722C99.4006 84.1148 107.286 85.8549 111.867 90.9545C120.002 96.2432 126.045 109.558 119.389 114.124C114.807 117.997 100.548 111.22 95.2728 104.982C89.9971 98.7431 89.4351 90.5457 94.0175 86.6722Z"
        fill="#FADA3A" />
</svg>