<svg width="287" height="332" viewBox="0 0 287 332" fill="none" xmlns="http://www.w3.org/2000/svg">
    <path
        d="M37.9962 269.544C41.784 261.378 56.941 257.746 66.1848 264.936L92.1846 251.582L116.517 272.127C105.218 285.48 99.0548 289.589 92.8936 295.752C84.6759 302.942 71.5663 306.528 57.5761 300.033C41.3917 292.134 31.8892 277.91 37.9962 269.544Z"
        fill="#F47112" />
    <path
        d="M279.975 265.271C276.187 257.106 261.03 253.474 251.786 260.664L225.786 247.31L201.453 267.854C212.753 281.208 218.916 285.316 225.077 291.479C233.295 298.67 246.405 302.256 260.395 295.76C276.579 287.861 286.082 273.637 279.975 265.271Z"
        fill="#F47112" />
    <ellipse cx="155.496" cy="221.003" rx="87.5" ry="76" fill="#FADA3A" />
    <path
        d="M112.875 21.228C118.389 18.0774 126.104 21.0259 130.825 27.8143C131.681 28.7591 132.467 29.8105 133.157 30.962C134.063 32.0174 134.898 33.1938 135.633 34.4793C135.988 35.1013 136.31 35.7307 136.598 36.3636C136.655 36.4602 136.711 36.5574 136.767 36.6551C138.63 39.9158 139.677 43.3176 139.933 46.4248C194.397 43.3464 242.441 76.4452 251.182 124.71C261.245 131.958 267.611 142.759 269.564 155.329C274.261 185.557 248.619 205.968 215.015 220.51C181.41 235.052 155.199 244.914 102.07 243.271C65.4173 242.137 36.3539 232.639 25.8069 203.213C22.4098 188.937 25.7132 174.405 33.883 162.112C33.8035 161.65 33.7266 161.187 33.6543 160.722C26.8658 117.033 54.2066 75.0184 97.6653 56.3218C92.7264 51.8433 90.3386 46.0253 91.3507 41.6643C91.4219 40.918 91.6037 40.1904 91.9056 39.4947C93.873 34.963 100.275 33.2225 107.139 34.9587C107.169 33.8455 107.308 32.7595 107.553 31.7203C107.571 27.1786 109.402 23.2127 112.875 21.228Z"
        fill="#FADA3A" />
    <path
        d="M107.979 150.986C108.989 155.538 108.42 159.937 106.659 163.713C104.46 168.429 100.39 172.119 95.0775 173.298C89.7234 174.486 84.6118 172.892 80.5283 169.513C77.3165 166.855 74.6444 163.114 73.6442 158.607C72.6751 154.241 73.6784 149.808 75.3353 146.116C77.5632 141.153 81.4313 137.749 86.9171 136.532C92.3507 135.326 97.3798 136.916 101.466 140.317C104.574 142.902 106.998 146.564 107.979 150.986Z"
        fill="#040301" />
    <ellipse cx="95.0856" cy="147.471" rx="4.04618" ry="4.35742"
        transform="rotate(-12.5143 95.0856 147.471)" fill="white" />
    <path
        d="M192.786 135.064C193.796 139.615 193.227 144.015 191.466 147.791C189.267 152.507 185.196 156.196 179.884 157.375C174.53 158.564 169.418 156.97 165.335 153.591C162.123 150.933 159.451 147.191 158.451 142.685C157.482 138.319 158.485 133.885 160.142 130.194C162.37 125.231 166.238 121.827 171.724 120.609C177.157 119.403 182.186 120.994 186.273 124.394C189.38 126.98 191.804 130.642 192.786 135.064Z"
        fill="#040301" />
    <ellipse cx="179.896" cy="131.549" rx="4.04618" ry="4.35742"
        transform="rotate(-12.5143 179.896 131.549)" fill="white" />
    <ellipse cx="72.5187" cy="187.477" rx="16.1847" ry="10.8936"
        transform="rotate(-7.29323 72.5187 187.477)" fill="#F99091" />
    <ellipse cx="210.785" cy="158.289" rx="16.1847" ry="10.8936"
        transform="rotate(-26.0762 210.785 158.289)" fill="#F99091" />
    <path fill-rule="evenodd" clip-rule="evenodd"
        d="M135.1 146.847C130.052 148.208 127.422 149.646 122.818 153.378C121.825 154.262 121.195 154.901 120.652 155.583C120.108 156.266 119.646 156.999 118.992 158.078C117.84 160.48 117.243 161.676 117.289 164.232C117.335 166.811 117.868 168.18 118.81 170.804C120.873 175.446 122.297 177.941 125.449 182.186C126.742 183.51 127.6 184.441 128.654 185.309C129.705 186.176 130.956 186.982 133.024 188.033C134.854 188.964 136.33 189.482 137.804 189.726C139.273 189.97 140.758 189.944 142.616 189.766C144.448 189.297 145.798 188.59 147.117 187.933C148.43 187.279 149.651 186.368 151.051 184.878C152.639 183.187 153.541 182.003 154.236 180.831C154.931 179.656 155.422 178.489 156.189 176.804C157.711 171.741 158.203 168.911 158.566 163.844C158.561 161.056 158.597 159.587 157.765 157.146C156.94 154.727 155.971 153.805 154.072 151.937C153.09 151.144 152.406 150.612 151.663 150.154C150.921 149.697 150.111 149.31 148.876 148.816C143.272 146.868 140.281 146.418 135.1 146.847Z"
        fill="#FF7518" />
    <path
        d="M120.563 166.71C123.887 175.343 131.199 187.863 141.748 185.278C152.639 184.319 154.438 172.057 155.47 160.343C140.757 159.684 134.615 160.905 120.563 166.71Z"
        fill="#C22F07" />
    <path
        d="M127.305 178.863C130.883 184.253 134.495 186.106 141.552 185.532C148.224 184.367 150.852 182.039 153.179 174.333C150.803 172.958 149.293 172.58 146.564 172.647C143.536 173.387 142.201 174.262 140.242 176.598C138.117 175.176 136.733 174.667 133.381 174.955C130.114 175.538 128.906 176.521 127.305 178.863Z"
        fill="#F4551D" />
    <path
        d="M91.0879 245.003C133.088 248.503 134.588 253.003 158.339 260.899C163.507 259.751 167.937 259.012 171.788 258.605C201.813 254.886 223.675 261.534 244.088 266.003C248.192 266.902 250.46 272.44 249.088 277.003L234.588 318.435C233.473 322.14 228.908 324.81 225.588 324.003C193.902 316.296 179.7 314.612 159.316 315.573C150.37 316.487 143.394 316.284 133.088 318.435C133.088 318.435 126.467 315.723 126.088 315.573C97.8122 304.373 77.6339 304.871 45.0882 303.507C39.3174 303.265 35.772 293.467 39.5879 288.507L73.9248 246.519C77.5879 243.005 89.1416 244.99 91.0879 245.003Z"
        fill="#42AAEB" />
    <path
        d="M159.288 257.366C140.118 249.432 122.699 242.224 86.2652 242.003C84.5412 241.993 82.8797 242.771 81.7403 244.124L51.5948 279.938C48.2145 283.954 50.8846 290.286 55.9966 290.482C84.8271 291.587 106.027 294.797 131.075 303.864C131.411 303.985 133.552 304.772 133.552 304.772L136.05 305.718L136.456 305.641C145.441 303.927 154.102 302.276 161.909 301.547C179.966 300.769 196.957 303.628 225.026 309.866C227.967 310.52 230.928 308.772 231.916 305.772L243.754 269.809C244.969 266.115 242.743 262.146 239.108 261.418C221.025 257.8 199.555 252.42 172.956 255.43C169.287 255.785 165.022 256.45 159.989 257.504L159.927 257.63L159.288 257.366Z"
        fill="white" />
    <path d="M136.088 306.003C145.204 282.791 150.453 272.693 160.088 258.003" stroke="#D9D9D9"
        stroke-linecap="round" />
    <path
        d="M224.791 274.092C225.053 274.173 225.191 274.451 225.099 274.714C225.007 274.976 224.721 275.124 224.459 275.043L224.625 274.568L224.791 274.092ZM224.53 274.538L224.545 274.041L224.622 274.04L224.696 274.063L224.53 274.538ZM222.062 274.176L222.299 273.729L222.062 274.176ZM220.479 273.569L220.634 273.09L220.479 273.569ZM218.833 273.151L218.963 272.665L218.833 273.151ZM215.699 271.811L215.661 272.308L215.699 271.811ZM209 270.516L209.321 270.122L209 270.516ZM205.683 269.758L206.027 269.382L205.683 269.758ZM202.312 269.265L202.279 268.77L202.312 269.265ZM200.621 269.023L200.412 269.483L200.621 269.023ZM198.975 268.531L199.088 268.042L198.975 268.531ZM192.121 268.21L192.315 267.744L192.121 268.21ZM190.465 267.582L190.268 268.047L190.465 267.582ZM183.581 267.753L183.646 268.243L183.581 267.753ZM176.719 267.492L176.523 267.957L176.719 267.492ZM165.521 267.988L165.112 268.293L164.994 268.134L165.024 267.934L165.521 267.988ZM165.604 268.1L166.013 267.796L166.573 268.551L165.609 268.597L165.604 268.1ZM165.508 268.602C165.231 268.615 165.004 268.404 165.001 268.129C164.998 267.855 165.221 267.622 165.498 267.608L165.503 268.105L165.508 268.602ZM224.625 274.568L224.459 275.043L224.364 275.014L224.53 274.538L224.696 274.063L224.791 274.092L224.625 274.568ZM224.53 274.538L224.515 275.036C223.363 275.046 222.443 274.928 221.825 274.624L222.062 274.176L222.299 273.729C222.703 273.928 223.428 274.051 224.545 274.041L224.53 274.538ZM222.062 274.176L221.825 274.624C221.34 274.385 220.84 274.193 220.324 274.048L220.479 273.569L220.634 273.09C221.207 273.252 221.762 273.465 222.299 273.729L222.062 274.176ZM220.479 273.569L220.324 274.048C219.788 273.897 219.247 273.759 218.702 273.636L218.833 273.151L218.963 272.665C219.524 272.793 220.081 272.934 220.634 273.09L220.479 273.569ZM218.833 273.151L218.702 273.636C218.074 273.493 217.495 273.211 216.969 272.797L217.29 272.403L217.612 272.009C218.036 272.341 218.485 272.557 218.963 272.665L218.833 273.151ZM217.29 272.403L216.969 272.797C216.57 272.484 216.137 272.326 215.661 272.308L215.699 271.811L215.738 271.314C216.433 271.34 217.061 271.576 217.612 272.009L217.29 272.403ZM215.699 271.811L215.661 272.308C215.084 272.286 214.504 272.279 213.921 272.286L213.934 271.788L213.948 271.291C214.547 271.284 215.144 271.291 215.738 271.314L215.699 271.811ZM213.934 271.788L213.921 272.286C213.181 272.294 212.534 272.007 211.996 271.471L212.358 271.113L212.721 270.756C213.101 271.134 213.506 271.296 213.948 271.291L213.934 271.788ZM212.358 271.113L211.996 271.471C211.82 271.297 211.646 271.205 211.475 271.169C211.303 271.132 211.098 271.143 210.847 271.228L210.7 270.759L210.553 270.289C210.948 270.154 211.342 270.114 211.723 270.196C212.105 270.277 212.437 270.473 212.721 270.756L212.358 271.113ZM210.7 270.759L210.847 271.228C210.052 271.499 209.306 271.403 208.679 270.911L209 270.516L209.321 270.122C209.668 270.393 210.056 270.458 210.553 270.289L210.7 270.759ZM209 270.516L208.679 270.911C208.31 270.622 207.913 270.54 207.443 270.656L207.34 270.173L207.236 269.691C208.006 269.501 208.716 269.647 209.321 270.122L209 270.516ZM207.34 270.173L207.443 270.656C206.654 270.85 205.937 270.664 205.34 270.133L205.683 269.758L206.027 269.382C206.398 269.711 206.785 269.802 207.236 269.691L207.34 270.173ZM205.683 269.758L205.34 270.133C204.935 269.774 204.518 269.625 204.076 269.64L204.077 269.143L204.079 268.646C204.809 268.62 205.463 268.881 206.027 269.382L205.683 269.758ZM204.077 269.143L204.076 269.64C203.501 269.661 202.924 269.701 202.344 269.76L202.312 269.265L202.279 268.77C202.881 268.709 203.481 268.667 204.079 268.646L204.077 269.143ZM202.312 269.265L202.344 269.76C201.671 269.829 201.024 269.736 200.412 269.483L200.621 269.023L200.829 268.563C201.29 268.754 201.771 268.822 202.279 268.77L202.312 269.265ZM200.621 269.023L200.412 269.483C199.905 269.273 199.389 269.119 198.863 269.02L198.975 268.531L199.088 268.042C199.682 268.154 200.262 268.328 200.829 268.563L200.621 269.023ZM198.975 268.531L198.863 269.02C198.374 268.927 197.866 268.938 197.335 269.056L197.242 268.571L197.15 268.086C197.81 267.939 198.457 267.923 199.088 268.042L198.975 268.531ZM197.242 268.571L197.335 269.056C196.587 269.224 195.885 269.064 195.259 268.617L195.563 268.21L195.867 267.802C196.289 268.104 196.707 268.185 197.15 268.086L197.242 268.571ZM195.563 268.21L195.259 268.617C195.058 268.473 194.869 268.407 194.688 268.394C194.507 268.38 194.303 268.418 194.065 268.531L193.862 268.084L193.658 267.637C194.031 267.46 194.415 267.373 194.801 267.401C195.188 267.43 195.544 267.572 195.867 267.802L195.563 268.21ZM193.862 268.084L194.065 268.531C193.345 268.874 192.62 268.936 191.927 268.676L192.121 268.21L192.315 267.744C192.722 267.897 193.158 267.876 193.658 267.637L193.862 268.084ZM192.121 268.21L191.927 268.676C191.376 268.469 190.823 268.259 190.268 268.047L190.465 267.582L190.661 267.117C191.215 267.328 191.766 267.537 192.315 267.744L192.121 268.21ZM190.465 267.582L190.268 268.047C189.868 267.894 189.446 267.923 188.961 268.186L188.733 267.751L188.505 267.317C189.22 266.93 189.953 266.846 190.661 267.117L190.465 267.582ZM188.733 267.751L188.961 268.186C188.252 268.57 187.525 268.667 186.817 268.427L186.996 267.956L187.175 267.484C187.583 267.622 188.014 267.583 188.505 267.317L188.733 267.751ZM186.996 267.956L186.817 268.427C186.302 268.252 185.785 268.156 185.264 268.136L185.302 267.639L185.341 267.142C185.962 267.166 186.574 267.281 187.175 267.484L186.996 267.956ZM185.302 267.639L185.264 268.136C184.728 268.116 184.189 268.151 183.646 268.243L183.581 267.753L183.515 267.262C184.126 267.159 184.735 267.119 185.341 267.142L185.302 267.639ZM183.581 267.753L183.646 268.243C182.996 268.353 182.351 268.32 181.716 268.147L181.867 267.667L182.018 267.187C182.515 267.323 183.012 267.347 183.515 267.262L183.581 267.753ZM181.867 267.667L181.716 268.147C181.179 268 180.64 267.904 180.1 267.858L180.162 267.362L180.224 266.867C180.826 266.918 181.425 267.025 182.018 267.187L181.867 267.667ZM180.162 267.362L180.1 267.858C179.595 267.815 179.087 267.871 178.57 268.028L178.439 267.554L178.308 267.079C178.946 266.884 179.586 266.812 180.224 266.867L180.162 267.362ZM178.439 267.554L178.57 268.028C177.88 268.239 177.192 268.212 176.523 267.957L176.719 267.492L176.916 267.027C177.386 267.206 177.844 267.221 178.308 267.079L178.439 267.554ZM176.719 267.492L176.523 267.957C176.115 267.801 175.71 267.842 175.256 268.127L174.998 267.71L174.741 267.294C175.442 266.853 176.184 266.747 176.916 267.027L176.719 267.492ZM174.998 267.71L175.256 268.127C174.618 268.528 173.961 268.765 173.29 268.812L173.274 268.315L173.258 267.819C173.731 267.786 174.223 267.619 174.741 267.294L174.998 267.71ZM173.274 268.315L173.29 268.812C172.609 268.859 171.945 268.696 171.305 268.348L171.56 267.91L171.814 267.472C172.317 267.745 172.796 267.852 173.258 267.819L173.274 268.315ZM171.56 267.91L171.305 268.348C170.84 268.095 170.412 268.061 169.99 268.204L169.844 267.734L169.699 267.263C170.421 267.02 171.137 267.103 171.814 267.472L171.56 267.91ZM169.844 267.734L169.99 268.204C169.415 268.398 168.841 268.587 168.266 268.77L168.129 268.298L167.991 267.825C168.56 267.643 169.13 267.456 169.699 267.263L169.844 267.734ZM168.129 268.298L168.266 268.77C167.574 268.992 166.878 268.957 166.2 268.683L166.405 268.222L166.61 267.76C167.087 267.953 167.541 267.969 167.991 267.825L168.129 268.298ZM166.405 268.222L166.2 268.683C165.914 268.568 165.72 268.5 165.604 268.469C165.539 268.452 165.534 268.457 165.563 268.457C165.574 268.457 165.648 268.457 165.74 268.414C165.792 268.389 165.858 268.347 165.915 268.276C165.973 268.203 166.006 268.121 166.018 268.043L165.521 267.988L165.024 267.934C165.055 267.729 165.194 267.587 165.336 267.519C165.449 267.466 165.553 267.462 165.602 267.462C165.708 267.462 165.815 267.486 165.897 267.507C166.076 267.554 166.317 267.642 166.61 267.76L166.405 268.222ZM165.521 267.988L165.93 267.684L166.013 267.796L165.604 268.1L165.195 268.405L165.112 268.293L165.521 267.988ZM165.604 268.1L165.609 268.597L165.508 268.602L165.503 268.105L165.498 267.608L165.599 267.603L165.604 268.1Z"
        fill="#D9D9D9" />
    <path
        d="M223.242 284.129C223.506 284.204 223.65 284.479 223.564 284.744C223.478 285.008 223.195 285.162 222.931 285.087L223.087 284.608L223.242 284.129ZM222.991 284.581L222.975 284.085L223.063 284.079L223.147 284.102L222.991 284.581ZM220.869 284.358L221.108 283.912L220.869 284.358ZM216.735 282.924L217.062 282.534L216.735 282.924ZM203.731 280.731L203.793 281.222L203.731 280.731ZM202.273 280.544L202.051 280.999L202.273 280.544ZM200.861 280.093L200.744 280.581L200.861 280.093ZM199.365 280.16L199.251 279.68V279.68L199.365 280.16ZM193.571 279.134L193.805 278.685L193.571 279.134ZM187.654 279.068L187.706 279.56L187.654 279.068ZM184.751 278.506L184.65 278.997L184.751 278.506ZM183.263 278.601L183.142 278.123L183.263 278.601ZM181.797 278.439L182.048 277.999L181.797 278.439ZM178.795 279.051L178.81 278.554L178.795 279.051ZM177.355 278.537L177.044 278.939L177.355 278.537ZM168.508 278.411L168.306 277.964L168.508 278.411ZM164.078 278.427L164.238 278.892L164.078 278.427ZM161.124 278.307L161.079 278.803L161.124 278.307ZM159.942 278.395L160.063 278.873L159.942 278.395ZM159.5 278.512L158.997 278.53L158.998 278.071L159.461 278.018L159.5 278.512ZM159.601 278.5L159.605 278.003L159.64 278.994L159.601 278.5ZM159.495 279C159.218 279.008 158.995 278.792 158.997 278.517C159 278.243 159.227 278.014 159.505 278.006L159.5 278.503L159.495 279ZM223.087 284.608L222.931 285.087L222.835 285.06L222.991 284.581L223.147 284.102L223.242 284.129L223.087 284.608ZM222.991 284.581L223.007 285.077C222.012 285.148 221.191 285.083 220.63 284.804L220.869 284.358L221.108 283.912C221.423 284.068 222.016 284.153 222.975 284.085L222.991 284.581ZM220.869 284.358L220.63 284.804C220.223 284.602 219.802 284.448 219.366 284.34L219.505 283.857L219.643 283.374C220.15 283.499 220.639 283.678 221.108 283.912L220.869 284.358ZM219.505 283.857L219.366 284.34C218.904 284.227 218.439 284.128 217.969 284.044L218.077 283.555L218.184 283.065C218.675 283.152 219.161 283.256 219.643 283.374L219.505 283.857ZM218.077 283.555L217.969 284.044C217.399 283.943 216.878 283.694 216.408 283.315L216.735 282.924L217.062 282.534C217.42 282.823 217.793 282.995 218.184 283.065L218.077 283.555ZM216.735 282.924L216.408 283.315C216.079 283.049 215.731 282.935 215.35 282.951L215.349 282.454L215.347 281.957C215.986 281.931 216.563 282.131 217.062 282.534L216.735 282.924ZM215.349 282.454L215.35 282.951C214.849 282.971 214.346 283.006 213.841 283.054L213.811 282.559L213.782 282.064C214.306 282.014 214.828 281.978 215.347 281.957L215.349 282.454ZM213.811 282.559L213.841 283.054C213.15 283.12 212.552 282.86 212.066 282.353L212.437 282.003L212.808 281.654C213.126 281.985 213.443 282.096 213.782 282.064L213.811 282.559ZM212.437 282.003L212.066 282.353C211.921 282.201 211.79 282.139 211.675 282.12C211.558 282.101 211.405 282.117 211.197 282.214L210.997 281.766L210.797 281.318C211.147 281.154 211.513 281.079 211.877 281.138C212.242 281.199 212.552 281.386 212.808 281.654L212.437 282.003ZM210.997 281.766L211.197 282.214C210.854 282.375 210.5 282.457 210.146 282.426C209.789 282.394 209.47 282.252 209.193 282.025L209.522 281.637L209.852 281.248C209.999 281.37 210.138 281.423 210.273 281.434C210.411 281.447 210.581 281.419 210.797 281.318L210.997 281.766ZM209.522 281.637L209.193 282.025C208.901 281.785 208.601 281.735 208.23 281.864L208.08 281.396L207.929 280.927C208.632 280.682 209.295 280.792 209.852 281.248L209.522 281.637ZM208.08 281.396L208.23 281.864C207.883 281.985 207.532 282.018 207.189 281.941C206.847 281.864 206.548 281.686 206.288 281.436L206.645 281.073L207.003 280.71C207.162 280.863 207.311 280.939 207.447 280.97C207.582 281.001 207.738 280.994 207.929 280.927L208.08 281.396ZM206.645 281.073L206.288 281.436C205.951 281.112 205.622 281.003 205.285 281.034L205.258 280.539L205.231 280.043C205.906 279.981 206.502 280.228 207.003 280.71L206.645 281.073ZM205.258 280.539L205.285 281.034C204.79 281.079 204.293 281.142 203.793 281.222L203.731 280.731L203.67 280.24C204.193 280.156 204.713 280.091 205.231 280.043L205.258 280.539ZM203.731 280.731L203.793 281.222C203.185 281.319 202.6 281.244 202.051 280.999L202.273 280.544L202.494 280.089C202.868 280.256 203.256 280.306 203.67 280.24L203.731 280.731ZM202.273 280.544L202.051 280.999C201.622 280.807 201.187 280.668 200.744 280.581L200.861 280.093L200.977 279.605C201.495 279.707 202.001 279.869 202.494 280.089L202.273 280.544ZM200.861 280.093L200.744 280.581C200.346 280.502 199.926 280.519 199.48 280.64L199.365 280.16L199.251 279.68C199.838 279.522 200.415 279.494 200.977 279.605L200.861 280.093ZM199.365 280.16L199.48 280.64C198.784 280.827 198.141 280.656 197.595 280.194L197.93 279.811L198.265 279.427C198.599 279.71 198.913 279.771 199.251 279.68L199.365 280.16ZM197.93 279.811L197.595 280.194C197.436 280.059 197.295 280.006 197.171 279.995C197.046 279.984 196.891 280.012 196.692 280.118L196.467 279.682L196.241 279.247C196.579 279.066 196.935 278.972 197.298 279.004C197.662 279.036 197.985 279.19 198.265 279.427L197.93 279.811ZM196.467 279.682L196.692 280.118C196.039 280.467 195.369 280.534 194.74 280.243L194.966 279.791L195.193 279.339C195.492 279.477 195.822 279.471 196.241 279.247L196.467 279.682ZM194.966 279.791L194.74 280.243C194.273 280.028 193.806 279.808 193.338 279.583L193.571 279.134L193.805 278.685C194.268 278.908 194.731 279.125 195.193 279.339L194.966 279.791ZM193.571 279.134L193.338 279.583C193.046 279.443 192.726 279.45 192.314 279.688L192.074 279.261L191.833 278.833C192.487 278.456 193.165 278.378 193.805 278.685L193.571 279.134ZM192.074 279.261L192.314 279.688C191.666 280.063 190.992 280.15 190.352 279.865L190.572 279.41L190.793 278.955C191.089 279.087 191.416 279.074 191.833 278.833L192.074 279.261ZM190.572 279.41L190.352 279.865C189.93 279.677 189.503 279.564 189.072 279.525L189.138 279.029L189.203 278.534C189.749 278.584 190.279 278.726 190.793 278.955L190.572 279.41ZM189.138 279.029L189.072 279.525C188.623 279.483 188.168 279.495 187.706 279.56L187.654 279.068L187.602 278.575C188.141 278.499 188.675 278.485 189.203 278.534L189.138 279.029ZM187.654 279.068L187.706 279.56C187.117 279.643 186.544 279.577 185.993 279.364L186.191 278.9L186.389 278.435C186.786 278.589 187.188 278.634 187.602 278.575L187.654 279.068ZM186.191 278.9L185.993 279.364C185.549 279.193 185.101 279.07 184.65 278.997L184.751 278.506L184.851 278.015C185.372 278.1 185.885 278.241 186.389 278.435L186.191 278.9ZM184.751 278.506L184.65 278.997C184.241 278.93 183.821 278.955 183.384 279.079L183.263 278.601L183.142 278.123C183.717 277.961 184.289 277.923 184.851 278.015L184.751 278.506ZM183.263 278.601L183.384 279.079C182.745 279.26 182.124 279.187 181.545 278.879L181.797 278.439L182.048 277.999C182.413 278.193 182.769 278.229 183.142 278.123L183.263 278.601ZM181.797 278.439L181.545 278.879C181.252 278.722 180.953 278.727 180.57 278.969L180.311 278.553L180.053 278.137C180.707 277.723 181.398 277.652 182.048 277.999L181.797 278.439ZM180.311 278.553L180.57 278.969C179.987 279.337 179.388 279.543 178.78 279.548L178.795 279.051L178.81 278.554C179.186 278.55 179.597 278.424 180.053 278.137L180.311 278.553ZM178.795 279.051L178.78 279.548C178.16 279.554 177.579 279.335 177.044 278.939L177.355 278.537L177.666 278.134C178.068 278.432 178.447 278.557 178.81 278.554L178.795 279.051ZM177.355 278.537L177.044 278.939C176.681 278.67 176.358 278.624 176.033 278.725L175.899 278.251L175.765 277.777C176.445 277.565 177.093 277.709 177.666 278.134L177.355 278.537ZM175.899 278.251L176.033 278.725C175.527 278.883 175.023 279.036 174.52 279.183L174.394 278.706L174.269 278.23C174.766 278.084 175.265 277.933 175.765 277.777L175.899 278.251ZM174.394 278.706L174.52 279.183C173.877 279.372 173.249 279.286 172.666 278.957L172.928 278.522L173.189 278.088C173.562 278.298 173.912 278.335 174.269 278.23L174.394 278.706ZM172.928 278.522L172.666 278.957C172.29 278.744 171.936 278.702 171.577 278.799L171.463 278.319L171.349 277.839C171.989 277.667 172.611 277.761 173.189 278.088L172.928 278.522ZM171.463 278.319L171.577 278.799C170.983 278.958 170.392 278.946 169.816 278.763L169.986 278.288L170.157 277.814C170.552 277.94 170.946 277.948 171.349 277.839L171.463 278.319ZM169.986 278.288L169.816 278.763C169.459 278.649 169.099 278.674 168.71 278.859L168.508 278.411L168.306 277.964C168.916 277.675 169.542 277.619 170.157 277.814L169.986 278.288ZM168.508 278.411L168.71 278.859C168.091 279.151 167.457 279.193 166.839 278.97L167.027 278.502L167.215 278.034C167.571 278.162 167.924 278.144 168.306 277.964L168.508 278.411ZM167.027 278.502L166.839 278.97C166.394 278.81 165.951 278.718 165.509 278.692L165.559 278.195L165.608 277.699C166.15 277.731 166.686 277.844 167.215 278.034L167.027 278.502ZM165.559 278.195L165.509 278.692C165.092 278.667 164.67 278.732 164.238 278.892L164.078 278.427L163.918 277.962C164.476 277.755 165.041 277.665 165.608 277.699L165.559 278.195ZM164.078 278.427L164.238 278.892C163.649 279.111 163.052 279.15 162.461 279.006L162.599 278.523L162.737 278.04C163.127 278.135 163.516 278.111 163.918 277.962L164.078 278.427ZM162.599 278.523L162.461 279.006C162 278.894 161.54 278.826 161.079 278.803L161.124 278.307L161.168 277.81C161.694 277.836 162.217 277.913 162.737 278.04L162.599 278.523ZM161.124 278.307L161.079 278.803C160.611 278.78 160.281 278.811 160.063 278.873L159.942 278.395L159.821 277.917C160.193 277.812 160.65 277.784 161.168 277.81L161.124 278.307ZM159.942 278.395L160.063 278.873C159.915 278.915 159.801 278.947 159.722 278.967C159.684 278.977 159.649 278.986 159.62 278.993C159.609 278.995 159.586 279 159.561 279.004C159.553 279.005 159.518 279.01 159.475 279.01C159.46 279.009 159.398 279.009 159.324 278.984C159.274 278.968 158.997 278.859 158.997 278.53L159.5 278.512L160.003 278.493C160.003 278.348 159.94 278.229 159.858 278.15C159.788 278.082 159.714 278.052 159.676 278.04C159.604 278.016 159.542 278.015 159.528 278.015C159.488 278.014 159.456 278.019 159.453 278.02C159.437 278.022 159.428 278.024 159.435 278.023C159.443 278.021 159.463 278.016 159.499 278.007C159.568 277.988 159.674 277.959 159.821 277.917L159.942 278.395ZM159.5 278.512L159.461 278.018L159.561 278.006L159.601 278.5L159.64 278.994L159.539 279.006L159.5 278.512ZM159.601 278.5L159.596 278.997L159.495 279L159.5 278.503L159.505 278.006L159.605 278.003L159.601 278.5Z"
        fill="#D9D9D9" />
    <path
        d="M220.35 295.343C220.616 295.413 220.765 295.685 220.684 295.95C220.604 296.216 220.323 296.375 220.057 296.305L220.204 295.824L220.35 295.343ZM220.108 295.799L219.961 296.28L219.95 296.277L220.108 295.799ZM218.555 295.391L218.68 294.905L218.555 295.391ZM217.507 294.944L217.798 294.527L217.507 294.944ZM215.252 294.579L215.611 294.217L215.252 294.579ZM213.067 293.979L213.093 294.475L213.067 293.979ZM211.9 293.943L211.998 293.452L211.9 293.943ZM206.33 292.863L206.431 292.372L206.33 292.863ZM196.281 291.104L196.238 291.601L196.281 291.104ZM189.523 290.235L189.647 289.748L189.523 290.235ZM186.158 289.615L186.134 289.119L186.158 289.615ZM183.889 289.374L184.022 288.89L183.889 289.374ZM181.576 289.62L181.588 290.116L181.576 289.62ZM179.317 289.222L179.183 288.748L179.317 289.222ZM177.024 289.254L177.099 288.759L177.024 289.254ZM175.888 289.089L175.78 289.579L175.888 289.089ZM172.452 289.159L172.702 289.581L172.452 289.159ZM166.719 289.511L166.786 290.001L166.719 289.511ZM165.572 289.693L165.626 290.185L165.572 289.693ZM163.285 289.482L163.354 288.987L163.285 289.482ZM161.584 289.346L161.292 289.762L161.081 289.621L161.082 289.365L161.584 289.346ZM161.685 289.413L161.977 288.997L163.266 289.859L161.681 289.91L161.685 289.413ZM161.581 289.913C161.303 289.922 161.08 289.707 161.081 289.432C161.083 289.158 161.31 288.928 161.587 288.919L161.584 289.416L161.581 289.913ZM220.204 295.824L220.057 296.305L219.961 296.28L220.108 295.799L220.254 295.317L220.35 295.343L220.204 295.824ZM220.108 295.799L219.95 296.277C219.288 296.086 218.783 295.953 218.43 295.877L218.555 295.391L218.68 294.905C219.066 294.988 219.596 295.128 220.265 295.321L220.108 295.799ZM218.555 295.391L218.43 295.877C217.998 295.784 217.593 295.61 217.217 295.361L217.507 294.944L217.798 294.527C218.08 294.714 218.374 294.839 218.68 294.905L218.555 295.391ZM217.507 294.944L217.217 295.361C217.026 295.234 216.804 295.198 216.496 295.294L216.362 294.82L216.227 294.347C216.788 294.171 217.33 294.217 217.798 294.527L217.507 294.944ZM216.362 294.82L216.496 295.294C216.209 295.384 215.917 295.41 215.632 295.348C215.347 295.286 215.1 295.142 214.893 294.94L215.252 294.579L215.611 294.217C215.709 294.313 215.8 294.357 215.884 294.376C215.969 294.394 216.08 294.393 216.227 294.347L216.362 294.82ZM215.252 294.579L214.893 294.94C214.646 294.7 214.389 294.568 214.122 294.519L214.232 294.03L214.343 293.541C214.824 293.63 215.248 293.864 215.611 294.217L215.252 294.579ZM214.232 294.03L214.122 294.519C213.794 294.458 213.451 294.443 213.093 294.475L213.067 293.979L213.042 293.484C213.487 293.444 213.922 293.463 214.343 293.541L214.232 294.03ZM213.067 293.979L213.093 294.475C212.651 294.514 212.221 294.501 211.803 294.435L211.9 293.943L211.998 293.452C212.332 293.505 212.679 293.516 213.042 293.484L213.067 293.979ZM211.9 293.943L211.803 294.435C211.445 294.378 211.081 294.341 210.713 294.323L210.757 293.826L210.801 293.329C211.205 293.349 211.604 293.39 211.998 293.452L211.9 293.943ZM210.757 293.826L210.713 294.323C210.134 294.294 209.678 293.974 209.339 293.491L209.755 293.196L210.171 292.902C210.395 293.22 210.608 293.319 210.801 293.329L210.757 293.826ZM209.755 293.196L209.339 293.491C209.106 293.159 208.874 293.018 208.657 292.976L208.771 292.487L208.886 291.999C209.417 292.101 209.841 292.432 210.171 292.902L209.755 293.196ZM208.771 292.487L208.657 292.976C208.405 292.927 208.105 292.961 207.737 293.121L207.55 292.667L207.363 292.213C207.876 291.989 208.39 291.903 208.886 291.999L208.771 292.487ZM207.55 292.667L207.737 293.121C207.228 293.343 206.72 293.434 206.23 293.353L206.33 292.863L206.431 292.372C206.686 292.414 206.992 292.374 207.363 292.213L207.55 292.667ZM206.33 292.863L206.23 293.353C205.86 293.293 205.489 293.236 205.116 293.183L205.207 292.69L205.297 292.198C205.676 292.252 206.054 292.31 206.431 292.372L206.33 292.863ZM205.207 292.69L205.116 293.183C204.703 293.124 204.301 293.019 203.912 292.87L204.11 292.405L204.307 291.94C204.629 292.064 204.958 292.15 205.297 292.198L205.207 292.69ZM204.11 292.405L203.912 292.87C203.558 292.733 203.203 292.598 202.847 292.463L203.043 291.997L203.238 291.532C203.595 291.667 203.952 291.803 204.307 291.94L204.11 292.405ZM203.043 291.997L202.847 292.463C202.554 292.351 202.247 292.302 201.922 292.315L201.921 291.818L201.921 291.321C202.379 291.303 202.819 291.373 203.238 291.532L203.043 291.997ZM201.921 291.818L201.922 292.315C201.43 292.334 200.968 292.213 200.548 291.96L200.821 291.532L201.094 291.105C201.358 291.264 201.631 291.332 201.921 291.321L201.921 291.818ZM200.821 291.532L200.548 291.96C200.259 291.786 199.963 291.683 199.657 291.642L199.743 291.149L199.828 290.656C200.276 290.715 200.698 290.867 201.094 291.105L200.821 291.532ZM199.743 291.149L199.657 291.642C199.311 291.597 198.958 291.582 198.598 291.599L198.593 291.103L198.588 290.606C199.008 290.586 199.421 290.602 199.828 290.656L199.743 291.149ZM198.593 291.103L198.598 291.599C198.2 291.619 197.804 291.628 197.41 291.628L197.43 291.13L197.45 290.633C197.827 290.633 198.206 290.624 198.588 290.606L198.593 291.103ZM197.43 291.13L197.41 291.628C197.018 291.628 196.627 291.619 196.238 291.601L196.281 291.104L196.323 290.607C196.697 290.624 197.072 290.633 197.45 290.633L197.43 291.13ZM196.281 291.104L196.238 291.601C195.825 291.582 195.418 291.524 195.019 291.425L195.157 290.942L195.296 290.459C195.633 290.542 195.975 290.591 196.323 290.607L196.281 291.104ZM195.157 290.942L195.019 291.425C194.553 291.311 194.132 291.06 193.753 290.702L194.107 290.336L194.461 289.97C194.747 290.239 195.026 290.393 195.296 290.459L195.157 290.942ZM194.107 290.336L193.753 290.702C193.483 290.447 193.225 290.336 192.979 290.317L193.038 289.821L193.096 289.325C193.612 289.365 194.068 289.598 194.461 289.97L194.107 290.336ZM193.038 289.821L192.979 290.317C192.723 290.297 192.426 290.364 192.075 290.565L191.837 290.136L191.599 289.708C192.087 289.429 192.59 289.286 193.096 289.325L193.038 289.821ZM191.837 290.136L192.075 290.565C191.583 290.846 191.072 290.983 190.562 290.918L190.644 290.425L190.727 289.931C190.967 289.961 191.252 289.906 191.599 289.708L191.837 290.136ZM190.644 290.425L190.562 290.918C190.173 290.869 189.785 290.803 189.4 290.721L189.523 290.235L189.647 289.748C190.005 289.824 190.366 289.885 190.727 289.931L190.644 290.425ZM189.523 290.235L189.4 290.721C188.989 290.634 188.587 290.497 188.194 290.312L188.423 289.861L188.653 289.411C188.982 289.565 189.314 289.677 189.647 289.748L189.523 290.235ZM188.423 289.861L188.194 290.312C187.888 290.169 187.582 290.094 187.272 290.083L187.31 289.586L187.348 289.089C187.8 289.105 188.236 289.215 188.653 289.411L188.423 289.861ZM187.31 289.586L187.272 290.083C186.912 290.069 186.549 290.079 186.183 290.11L186.158 289.615L186.134 289.119C186.541 289.084 186.946 289.074 187.348 289.089L187.31 289.586ZM186.158 289.615L186.183 290.11C185.758 290.147 185.338 290.137 184.924 290.078L185.014 289.585L185.104 289.093C185.442 289.141 185.785 289.15 186.134 289.119L186.158 289.615ZM185.014 289.585L184.924 290.078C184.533 290.022 184.144 289.949 183.756 289.859L183.889 289.374L184.022 288.89C184.382 288.973 184.743 289.041 185.104 289.093L185.014 289.585ZM183.889 289.374L183.756 289.859C183.47 289.792 183.175 289.801 182.862 289.891L182.738 289.414L182.615 288.936C183.088 288.8 183.56 288.782 184.022 288.89L183.889 289.374ZM182.738 289.414L182.862 289.891C182.434 290.014 182.01 290.09 181.588 290.116L181.576 289.62L181.563 289.124C181.906 289.102 182.256 289.04 182.615 288.936L182.738 289.414ZM181.576 289.62L181.588 290.116C181.099 290.147 180.631 290.029 180.193 289.783L180.453 289.348L180.713 288.913C181.008 289.078 181.289 289.141 181.563 289.124L181.576 289.62ZM180.453 289.348L180.193 289.783C179.936 289.64 179.699 289.619 179.451 289.696L179.317 289.222L179.183 288.748C179.716 288.582 180.236 288.645 180.713 288.913L180.453 289.348ZM179.317 289.222L179.451 289.696C179.002 289.836 178.552 289.891 178.105 289.857L178.163 289.361L178.221 288.865C178.532 288.888 178.851 288.851 179.183 288.748L179.317 289.222ZM178.163 289.361L178.105 289.857C177.721 289.827 177.335 289.791 176.949 289.748L177.024 289.254L177.099 288.759C177.474 288.801 177.848 288.836 178.221 288.865L178.163 289.361ZM177.024 289.254L176.949 289.748C176.557 289.705 176.167 289.648 175.78 289.579L175.888 289.089L175.995 288.6C176.361 288.665 176.729 288.718 177.099 288.759L177.024 289.254ZM175.888 289.089L175.78 289.579C175.481 289.525 175.177 289.541 174.862 289.63L174.742 289.151L174.622 288.673C175.081 288.544 175.541 288.518 175.995 288.6L175.888 289.089ZM174.742 289.151L174.862 289.63C174.353 289.773 173.85 289.729 173.375 289.513L173.599 289.06L173.822 288.606C174.097 288.73 174.356 288.748 174.622 288.673L174.742 289.151ZM173.599 289.06L173.375 289.513C173.163 289.417 172.959 289.425 172.702 289.581L172.452 289.159L172.202 288.738C172.724 288.421 173.284 288.362 173.822 288.606L173.599 289.06ZM172.452 289.159L172.702 289.581C172.166 289.906 171.594 289.942 171.056 289.662L171.303 289.22L171.55 288.777C171.765 288.889 171.959 288.885 172.202 288.738L172.452 289.159ZM171.303 289.22L171.056 289.662C170.779 289.519 170.531 289.497 170.284 289.567L170.163 289.09L170.042 288.612C170.562 288.464 171.073 288.53 171.55 288.777L171.303 289.22ZM170.163 289.09L170.284 289.567C169.902 289.676 169.517 289.786 169.132 289.897L169.009 289.42L168.886 288.942C169.273 288.831 169.658 288.721 170.042 288.612L170.163 289.09ZM169.009 289.42L169.132 289.897C168.677 290.028 168.22 290.06 167.767 289.99L167.863 289.499L167.959 289.007C168.262 289.054 168.569 289.034 168.886 288.942L169.009 289.42ZM167.863 289.499L167.767 289.99C167.443 289.94 167.117 289.944 166.786 290.001L166.719 289.511L166.651 289.021C167.09 288.945 167.527 288.94 167.959 289.007L167.863 289.499ZM166.719 289.511L166.786 290.001C166.397 290.068 166.01 290.129 165.626 290.185L165.572 289.693L165.518 289.201C165.893 289.146 166.27 289.086 166.651 289.021L166.719 289.511ZM165.572 289.693L165.626 290.185C165.186 290.249 164.746 290.234 164.308 290.144L164.428 289.657L164.549 289.17C164.877 289.237 165.199 289.247 165.518 289.201L165.572 289.693ZM164.428 289.657L164.308 290.144C163.941 290.069 163.577 290.013 163.216 289.977L163.285 289.482L163.354 288.987C163.751 289.027 164.149 289.088 164.549 289.17L164.428 289.657ZM163.285 289.482L163.216 289.977C162.831 289.939 162.448 289.895 162.065 289.844L162.15 289.351L162.236 288.858C162.608 288.907 162.981 288.951 163.354 288.987L163.285 289.482ZM162.15 289.351L162.065 289.844C161.88 289.819 161.764 289.81 161.702 289.809C161.664 289.809 161.68 289.813 161.72 289.803C161.736 289.799 161.806 289.782 161.883 289.726C161.925 289.695 161.978 289.645 162.02 289.572C162.064 289.496 162.087 289.411 162.087 289.327L161.584 289.346L161.082 289.365C161.082 289.161 161.197 289.014 161.303 288.935C161.392 288.87 161.479 288.846 161.519 288.837C161.606 288.816 161.693 288.814 161.75 288.815C161.876 288.816 162.043 288.832 162.236 288.858L162.15 289.351ZM161.584 289.346L161.876 288.93L161.977 288.997L161.685 289.413L161.392 289.829L161.292 289.762L161.584 289.346ZM161.685 289.413L161.681 289.91L161.581 289.913L161.584 289.416L161.587 288.919L161.688 288.916L161.685 289.413Z"
        fill="#D9D9D9" />
    <path
        d="M134.743 282.056C134.998 282.157 135.114 282.445 135.002 282.7C134.89 282.954 134.593 283.079 134.338 282.978L134.54 282.517L134.743 282.056ZM134.448 282.481L134.481 281.985L134.57 281.988L134.651 282.02L134.448 282.481ZM129.661 280.97L129.816 280.493L129.661 280.97ZM124.201 278.871L124.604 278.56L124.201 278.871ZM122.791 278.494L122.946 278.96L122.791 278.494ZM121.336 278.221L121.701 277.867L121.336 278.221ZM119.923 277.84L119.819 277.359L119.923 277.84ZM112.865 275.836L113.029 275.362L112.865 275.836ZM111.371 275.757L111.304 275.268L111.371 275.757ZM104.202 274.146L104.004 273.697L104.202 274.146ZM99.8217 273.518L99.825 274.013L99.8217 273.518ZM94.0556 272.312L94.3495 271.899L94.0556 272.312ZM92.5659 272.278L92.7817 272.718L92.5659 272.278ZM91.008 272.623L91.0726 272.129L91.008 272.623ZM86.6633 271.84L86.7404 272.327L86.6633 271.84ZM80.8354 270.955L80.9908 271.42L80.8354 270.955ZM74.9457 270.467L74.7595 270.934L74.9457 270.467ZM73.5001 270.102L73.5951 269.612L73.5001 270.102ZM72.1185 270.056L72.084 269.563L72.1185 270.056ZM71.469 270.114L70.9672 270.082L71.014 269.626L71.4795 269.619L71.469 270.114ZM71.5702 270.113L71.625 269.619L71.5598 270.608L71.5702 270.113ZM71.4152 270.6C71.1382 270.58 70.9383 270.342 70.9685 270.069C70.9988 269.797 71.2478 269.591 71.5247 269.611L71.4699 270.106L71.4152 270.6ZM134.54 282.517L134.338 282.978L134.245 282.941L134.448 282.481L134.651 282.02L134.743 282.056L134.54 282.517ZM134.448 282.481L134.415 282.976C133.418 282.946 132.607 282.8 132.077 282.467L132.359 282.046L132.642 281.626C132.939 281.813 133.521 281.957 134.481 281.985L134.448 282.481ZM132.359 282.046L132.077 282.467C131.692 282.225 131.289 282.029 130.865 281.879L131.052 281.413L131.238 280.946C131.73 281.12 132.198 281.347 132.642 281.626L132.359 282.046ZM131.052 281.413L130.865 281.879C130.418 281.721 129.965 281.576 129.505 281.447L129.661 280.97L129.816 280.493C130.296 280.629 130.77 280.78 131.238 280.946L131.052 281.413ZM129.661 280.97L129.505 281.447C128.948 281.289 128.454 280.991 128.024 280.566L128.388 280.21L128.751 279.854C129.079 280.177 129.434 280.385 129.816 280.493L129.661 280.97ZM128.388 280.21L128.024 280.566C127.722 280.269 127.388 280.122 127.006 280.1L127.054 279.606L127.102 279.111C127.74 279.148 128.295 279.404 128.751 279.854L128.388 280.21ZM127.054 279.606L127.006 280.1C126.506 280.071 126.002 280.056 125.494 280.054L125.514 279.559L125.533 279.063C126.06 279.065 126.582 279.081 127.102 279.111L127.054 279.606ZM125.514 279.559L125.494 280.054C124.801 280.052 124.231 279.735 123.797 279.182L124.201 278.871L124.604 278.56C124.888 278.921 125.193 279.062 125.533 279.063L125.514 279.559ZM124.201 278.871L123.797 279.182C123.668 279.018 123.544 278.943 123.431 278.913C123.317 278.882 123.163 278.883 122.946 278.96L122.791 278.494L122.635 278.029C123 277.899 123.372 277.861 123.728 277.956C124.085 278.051 124.375 278.268 124.604 278.56L124.201 278.871ZM122.791 278.494L122.946 278.96C122.589 279.086 122.228 279.132 121.879 279.067C121.527 279.001 121.223 278.828 120.97 278.575L121.336 278.221L121.701 277.867C121.837 278.002 121.97 278.068 122.103 278.093C122.238 278.119 122.411 278.108 122.635 278.029L122.791 278.494ZM121.336 278.221L120.97 278.575C120.702 278.307 120.409 278.228 120.027 278.321L119.923 277.84L119.819 277.359C120.543 277.184 121.192 277.358 121.701 277.867L121.336 278.221ZM119.923 277.84L120.027 278.321C119.67 278.407 119.317 278.405 118.983 278.295C118.65 278.185 118.37 277.978 118.136 277.704L118.527 277.378L118.918 277.052C119.062 277.22 119.202 277.31 119.335 277.354C119.466 277.398 119.622 277.406 119.819 277.359L119.923 277.84ZM118.527 277.378L118.136 277.704C117.833 277.349 117.516 277.208 117.177 277.206L117.199 276.711L117.22 276.215C117.898 276.219 118.467 276.524 118.918 277.052L118.527 277.378ZM117.199 276.711L117.177 277.206C116.68 277.203 116.179 277.217 115.673 277.247L115.66 276.753L115.647 276.258C116.176 276.226 116.7 276.212 117.22 276.215L117.199 276.711ZM115.66 276.753L115.673 277.247C115.059 277.284 114.484 277.153 113.962 276.854L114.226 276.424L114.491 275.993C114.847 276.196 115.228 276.283 115.647 276.258L115.66 276.753ZM114.226 276.424L113.962 276.854C113.553 276.621 113.133 276.441 112.702 276.311L112.865 275.836L113.029 275.362C113.534 275.514 114.022 275.725 114.491 275.993L114.226 276.424ZM112.865 275.836L112.702 276.311C112.313 276.193 111.894 276.169 111.438 276.245L111.371 275.757L111.304 275.268C111.903 275.168 112.481 275.197 113.029 275.362L112.865 275.836ZM111.371 275.757L111.438 276.245C110.726 276.364 110.104 276.13 109.605 275.617L109.976 275.268L110.347 274.92C110.652 275.233 110.959 275.326 111.304 275.268L111.371 275.757ZM109.976 275.268L109.605 275.617C109.46 275.467 109.325 275.4 109.203 275.377C109.079 275.354 108.922 275.366 108.714 275.453L108.532 274.997L108.351 274.542C108.704 274.395 109.068 274.336 109.426 274.403C109.785 274.471 110.092 274.656 110.347 274.92L109.976 275.268ZM108.532 274.997L108.714 275.453C108.03 275.736 107.357 275.737 106.759 275.386L107.029 274.958L107.299 274.53C107.583 274.697 107.912 274.723 108.351 274.542L108.532 274.997ZM107.029 274.958L106.759 275.386C106.315 275.126 105.872 274.861 105.428 274.591L105.705 274.167L105.981 273.743C106.42 274.01 106.86 274.273 107.299 274.53L107.029 274.958ZM105.705 274.167L105.428 274.591C105.151 274.423 104.832 274.398 104.399 274.594L104.202 274.146L104.004 273.697C104.692 273.385 105.375 273.375 105.981 273.743L105.705 274.167ZM104.202 274.146L104.399 274.594C103.717 274.904 103.038 274.924 102.429 274.577L102.693 274.146L102.958 273.715C103.24 273.876 103.566 273.896 104.004 273.697L104.202 274.146ZM102.693 274.146L102.429 274.577C102.027 274.348 101.614 274.195 101.188 274.112L101.302 273.626L101.417 273.14C101.955 273.244 102.469 273.437 102.958 273.715L102.693 274.146ZM101.302 273.626L101.188 274.112C100.746 274.027 100.292 273.994 99.825 274.013L99.8217 273.518L99.8185 273.023C100.363 273 100.896 273.039 101.417 273.14L101.302 273.626ZM99.8217 273.518L99.825 274.013C99.2314 274.038 98.6672 273.915 98.1398 273.649L98.3828 273.206L98.6258 272.763C99.0063 272.955 99.4014 273.04 99.8185 273.023L99.8217 273.518ZM98.3828 273.206L98.1398 273.649C97.7147 273.434 97.2815 273.268 96.8399 273.15L96.9886 272.672L97.1372 272.193C97.6469 272.329 98.1431 272.52 98.6258 272.763L98.3828 273.206ZM96.9886 272.672L96.8399 273.15C96.4396 273.043 96.0188 273.027 95.5714 273.107L95.4986 272.619L95.4258 272.132C96.0138 272.027 96.5863 272.046 97.1372 272.193L96.9886 272.672ZM95.4986 272.619L95.5714 273.107C94.9182 273.223 94.3067 273.089 93.7616 272.725L94.0556 272.312L94.3495 271.899C94.693 272.129 95.0435 272.2 95.4258 272.132L95.4986 272.619ZM94.0556 272.312L93.7616 272.725C93.4854 272.54 93.1873 272.515 92.7817 272.718L92.5659 272.278L92.35 271.838C93.0422 271.492 93.7372 271.49 94.3495 271.899L94.0556 272.312ZM92.5659 272.278L92.7817 272.718C92.1657 273.026 91.5489 273.171 90.9435 273.116L91.008 272.623L91.0726 272.129C91.4466 272.163 91.8683 272.079 92.35 271.838L92.5659 272.278ZM91.008 272.623L90.9435 273.116C90.3255 273.059 89.7692 272.784 89.2768 272.337L89.6264 271.967L89.976 271.598C90.3464 271.935 90.7113 272.096 91.0726 272.129L91.008 272.623ZM89.6264 271.967L89.2768 272.337C88.9421 272.032 88.6249 271.954 88.2914 272.023L88.2054 271.538L88.1195 271.053C88.8177 270.91 89.4478 271.118 89.976 271.598L89.6264 271.967ZM88.2054 271.538L88.2914 272.023C87.7726 272.129 87.2556 272.231 86.7404 272.327L86.6633 271.84L86.5862 271.354C87.0954 271.258 87.6065 271.158 88.1195 271.053L88.2054 271.538ZM86.6633 271.84L86.7404 272.327C86.0816 272.45 85.4659 272.302 84.9188 271.916L85.2225 271.51L85.5261 271.104C85.8757 271.35 86.2206 271.422 86.5862 271.354L86.6633 271.84ZM85.2225 271.51L84.9188 271.916C84.5652 271.667 84.2166 271.59 83.8505 271.649L83.7852 271.161L83.72 270.672C84.3734 270.565 84.9829 270.721 85.5261 271.104L85.2225 271.51ZM83.7852 271.161L83.8505 271.649C83.2434 271.748 82.6568 271.677 82.1023 271.436L82.3196 270.982L82.5369 270.527C82.917 270.692 83.3075 270.739 83.72 270.672L83.7852 271.161ZM82.3196 270.982L82.1023 271.436C81.759 271.287 81.3983 271.276 80.9908 271.42L80.8354 270.955L80.6799 270.489C81.3168 270.264 81.9456 270.271 82.5369 270.527L82.3196 270.982ZM80.8354 270.955L80.9908 271.42C80.3457 271.648 79.7103 271.627 79.1181 271.343L79.3524 270.896L79.5867 270.449C79.9274 270.612 80.2807 270.63 80.6799 270.489L80.8354 270.955ZM79.3524 270.896L79.1181 271.343C78.6915 271.138 78.2605 271.002 77.8244 270.931L77.9237 270.442L78.023 269.953C78.5589 270.04 79.0804 270.206 79.5867 270.449L79.3524 270.896ZM77.9237 270.442L77.8244 270.931C77.4122 270.864 76.9855 270.886 76.5394 271.001L76.4274 270.522L76.3155 270.043C76.8923 269.894 77.4632 269.862 78.023 269.953L77.9237 270.442ZM76.4274 270.522L76.5394 271.001C75.9309 271.159 75.3329 271.138 74.7595 270.934L74.9457 270.467L75.132 270C75.5112 270.135 75.901 270.151 76.3155 270.043L76.4274 270.522ZM74.9457 270.467L74.7595 270.934C74.3117 270.775 73.8603 270.661 73.405 270.591L73.5001 270.102L73.5951 269.612C74.1147 269.692 74.6271 269.821 75.132 270L74.9457 270.467ZM73.5001 270.102L73.405 270.591C72.9543 270.522 72.5377 270.51 72.1531 270.549L72.1185 270.056L72.084 269.563C72.5666 269.514 73.0709 269.532 73.5951 269.612L73.5001 270.102ZM72.1185 270.056L72.1531 270.549C71.9358 270.571 71.7705 270.588 71.6587 270.598C71.6036 270.603 71.5575 270.606 71.5234 270.608C71.5079 270.609 71.4865 270.611 71.4654 270.611C71.458 270.611 71.4327 270.611 71.4023 270.608C71.3923 270.607 71.3479 270.603 71.295 270.586C71.2717 270.578 71.2063 270.555 71.1394 270.501C71.0659 270.441 70.9449 270.3 70.9672 270.082L71.469 270.114L71.9709 270.146C71.9932 269.929 71.8722 269.788 71.7989 269.728C71.7323 269.674 71.6672 269.652 71.6443 269.644C71.5921 269.627 71.549 269.623 71.5406 269.622C71.5136 269.619 71.4933 269.62 71.4926 269.62C71.4849 269.62 71.4837 269.62 71.4952 269.619C71.5151 269.618 71.5501 269.615 71.6032 269.611C71.7079 269.601 71.8677 269.586 72.084 269.563L72.1185 270.056ZM71.469 270.114L71.4795 269.619L71.5807 269.617L71.5702 270.113L71.5598 270.608L71.4586 270.61L71.469 270.114ZM71.5702 270.113L71.5155 270.607L71.4152 270.6L71.4699 270.106L71.5247 269.611L71.625 269.619L71.5702 270.113Z"
        fill="#D9D9D9" />
    <path
        d="M130.735 292.921C130.992 293.017 131.114 293.303 131.006 293.559C130.899 293.815 130.604 293.945 130.347 293.849L130.541 293.385L130.735 292.921ZM130.448 293.35L130.254 293.814L130.243 293.81L130.448 293.35ZM124.78 290.999L124.94 290.523L124.78 290.999ZM120.41 289.719L119.966 289.97L120.41 289.719ZM118.269 288.97L118.41 289.441L118.269 288.97ZM117.036 289.042L117.185 288.564L117.036 289.042ZM115.935 288.758L116.075 288.277L115.935 288.758ZM114.873 288.363L115.116 287.921L114.873 288.363ZM107.215 286.281L107.122 286.771L107.215 286.281ZM101.675 285.038L101.807 284.555L101.675 285.038ZM100.579 284.736L100.751 284.264L100.579 284.736ZM99.5222 284.254L99.7961 283.828L99.5222 284.254ZM97.2934 283.78L97.2682 284.276L97.2934 283.78ZM96.1578 283.635L96.2973 283.155L96.1578 283.635ZM87.1278 282.223L87.2843 281.747L87.1278 282.223ZM80.2509 281.86L80.1767 281.372L80.2509 281.86ZM79.1028 281.823L78.9576 282.302L79.1028 281.823ZM77.9629 281.719L77.9808 282.214L77.9629 281.719ZM76.804 281.785L76.8081 282.28L76.804 281.785ZM72.8712 281.039L72.5388 281.423L72.3433 281.262L72.3693 281.007L72.8712 281.039ZM72.9644 281.116L73.2968 280.731L74.4933 281.719L72.9113 281.61L72.9644 281.116ZM72.811 281.603C72.5339 281.584 72.3331 281.347 72.3624 281.074C72.3918 280.801 72.6401 280.595 72.9171 280.614L72.864 281.109L72.811 281.603ZM130.541 293.385L130.347 293.849L130.254 293.814L130.448 293.35L130.642 292.886L130.735 292.921L130.541 293.385ZM130.448 293.35L130.243 293.81C129.603 293.553 129.114 293.371 128.771 293.26L128.944 292.788L129.118 292.317C129.493 292.439 130.006 292.631 130.653 292.89L130.448 293.35ZM128.944 292.788L128.771 293.26C128.35 293.123 127.965 292.91 127.616 292.623L127.947 292.238L128.278 291.853C128.54 292.067 128.819 292.221 129.118 292.317L128.944 292.788ZM127.947 292.238L127.616 292.623C127.439 292.479 127.222 292.42 126.905 292.485L126.819 292L126.733 291.515C127.309 291.397 127.843 291.497 128.278 291.853L127.947 292.238ZM126.819 292L126.905 292.485C126.611 292.545 126.318 292.542 126.041 292.451C125.763 292.361 125.532 292.193 125.346 291.971L125.74 291.648L126.133 291.324C126.221 291.429 126.307 291.483 126.389 291.509C126.472 291.536 126.582 291.546 126.733 291.515L126.819 292ZM125.74 291.648L125.346 291.971C125.124 291.707 124.882 291.551 124.621 291.474L124.78 290.999L124.94 290.523C125.41 290.66 125.807 290.936 126.133 291.324L125.74 291.648ZM124.78 290.999L124.621 291.474C124.301 291.381 123.962 291.331 123.602 291.327L123.626 290.831L123.651 290.336C124.098 290.341 124.528 290.403 124.94 290.523L124.78 290.999ZM123.626 290.831L123.602 291.327C123.159 291.321 122.732 291.265 122.322 291.157L122.469 290.678L122.616 290.199C122.942 290.285 123.287 290.331 123.651 290.336L123.626 290.831ZM122.469 290.678L122.322 291.157C121.972 291.065 121.614 290.991 121.249 290.936L121.343 290.446L121.437 289.956C121.837 290.017 122.23 290.098 122.616 290.199L122.469 290.678ZM121.343 290.446L121.249 290.936C120.676 290.849 120.255 290.485 119.966 289.97L120.41 289.719L120.853 289.468C121.044 289.807 121.246 289.927 121.437 289.956L121.343 290.446ZM120.41 289.719L119.966 289.97C119.767 289.617 119.551 289.453 119.34 289.389L119.502 288.915L119.665 288.44C120.184 288.596 120.572 288.967 120.853 289.468L120.41 289.719ZM119.502 288.915L119.34 289.389C119.094 289.315 118.791 289.319 118.41 289.441L118.269 288.97L118.129 288.5C118.662 288.329 119.182 288.295 119.665 288.44L119.502 288.915ZM118.269 288.97L118.41 289.441C117.881 289.61 117.367 289.65 116.887 289.52L117.036 289.042L117.185 288.564C117.435 288.631 117.743 288.623 118.129 288.5L118.269 288.97ZM117.036 289.042L116.887 289.52C116.525 289.423 116.161 289.329 115.796 289.239L115.935 288.758L116.075 288.277C116.447 288.369 116.817 288.465 117.185 288.564L117.036 289.042ZM115.935 288.758L115.796 289.239C115.391 289.138 115.002 288.994 114.63 288.806L114.873 288.363L115.116 287.921C115.423 288.076 115.743 288.195 116.075 288.277L115.935 288.758ZM114.873 288.363L114.63 288.806C114.291 288.634 113.951 288.464 113.611 288.294L113.852 287.85L114.094 287.407C114.435 287.578 114.776 287.749 115.116 287.921L114.873 288.363ZM113.852 287.85L113.611 288.294C113.33 288.153 113.03 288.073 112.705 288.054L112.755 287.559L112.804 287.064C113.261 287.092 113.693 287.207 114.094 287.407L113.852 287.85ZM112.755 287.559L112.705 288.054C112.213 288.023 111.767 287.856 111.374 287.563L111.689 287.164L112.003 286.766C112.25 286.951 112.514 287.047 112.804 287.064L112.755 287.559ZM111.689 287.164L111.374 287.563C111.104 287.36 110.82 287.227 110.52 287.156L110.654 286.674L110.789 286.192C111.228 286.296 111.634 286.49 112.003 286.766L111.689 287.164ZM110.654 286.674L110.52 287.156C110.18 287.076 109.83 287.026 109.47 287.007L109.515 286.512L109.56 286.017C109.98 286.04 110.39 286.098 110.789 286.192L110.654 286.674ZM109.515 286.512L109.47 287.007C109.072 286.986 108.677 286.956 108.286 286.916L108.355 286.423L108.425 285.93C108.8 285.968 109.178 285.997 109.56 286.017L109.515 286.512ZM108.355 286.423L108.286 286.916C107.895 286.876 107.507 286.828 107.122 286.771L107.215 286.281L107.307 285.791C107.677 285.845 108.049 285.892 108.425 285.93L108.355 286.423ZM107.215 286.281L107.122 286.771C106.713 286.711 106.314 286.612 105.926 286.474L106.113 286.007L106.3 285.54C106.626 285.657 106.962 285.74 107.307 285.791L107.215 286.281ZM106.113 286.007L105.926 286.474C105.475 286.313 105.081 286.021 104.74 285.627L105.129 285.298L105.519 284.969C105.776 285.266 106.038 285.447 106.3 285.54L106.113 286.007ZM105.129 285.298L104.74 285.627C104.497 285.346 104.252 285.21 104.009 285.166L104.117 284.678L104.225 284.191C104.734 284.283 105.164 284.56 105.519 284.969L105.129 285.298ZM104.117 284.678L104.009 285.166C103.756 285.12 103.454 285.157 103.085 285.321L102.891 284.871L102.697 284.42C103.21 284.192 103.726 284.1 104.225 284.191L104.117 284.678ZM102.891 284.871L103.085 285.321C102.566 285.551 102.045 285.636 101.543 285.52L101.675 285.038L101.807 284.555C102.043 284.609 102.332 284.583 102.697 284.42L102.891 284.871ZM101.675 285.038L101.543 285.52C101.161 285.432 100.782 285.328 100.407 285.207L100.579 284.736L100.751 284.264C101.1 284.376 101.452 284.473 101.807 284.555L101.675 285.038ZM100.579 284.736L100.407 285.207C100.007 285.079 99.6206 284.902 99.2483 284.679L99.5222 284.254L99.7961 283.828C100.108 284.015 100.426 284.16 100.751 284.264L100.579 284.736ZM99.5222 284.254L99.2483 284.679C98.9589 284.506 98.6617 284.401 98.3543 284.358L98.4424 283.867L98.5304 283.376C98.9783 283.439 99.401 283.591 99.7961 283.828L99.5222 284.254ZM98.4424 283.867L98.3543 284.358C97.9977 284.308 97.6357 284.281 97.2682 284.276L97.2934 283.78L97.3187 283.285C97.7278 283.291 98.1317 283.321 98.5304 283.376L98.4424 283.867ZM97.2934 283.78L97.2682 284.276C96.8417 284.27 96.4248 284.217 96.0184 284.116L96.1578 283.635L96.2973 283.155C96.6284 283.237 96.9686 283.28 97.3187 283.285L97.2934 283.78ZM96.1578 283.635L96.0184 284.116C95.6354 284.022 95.2555 283.91 94.8789 283.781L95.0598 283.312L95.2408 282.844C95.5906 282.963 95.9427 283.067 96.2973 283.155L96.1578 283.635ZM95.0598 283.312L94.8789 283.781C94.6008 283.686 94.3063 283.665 93.9857 283.723L93.9111 283.236L93.8366 282.749C94.3212 282.66 94.7924 282.69 95.2408 282.844L95.0598 283.312ZM93.9111 283.236L93.9857 283.723C93.5484 283.803 93.1183 283.835 92.6963 283.819L92.7337 283.324L92.7711 282.829C93.1139 282.842 93.4688 282.816 93.8366 282.749L93.9111 283.236ZM92.7337 283.324L92.6963 283.819C92.2064 283.801 91.7527 283.636 91.3411 283.347L91.6438 282.94L91.9465 282.534C92.2233 282.728 92.4963 282.818 92.7711 282.829L92.7337 283.324ZM91.6438 282.94L91.3411 283.347C91.1006 283.178 90.867 283.134 90.6118 283.186L90.5265 282.701L90.4413 282.216C90.9873 282.104 91.4986 282.219 91.9465 282.534L91.6438 282.94ZM90.5265 282.701L90.6118 283.186C90.1512 283.279 89.6983 283.289 89.2571 283.21L89.3646 282.723L89.4721 282.235C89.7788 282.29 90.1005 282.285 90.4413 282.216L90.5265 282.701ZM89.3646 282.723L89.2571 283.21C88.8774 283.142 88.4975 283.068 88.1173 282.986L88.2419 282.502L88.3664 282.017C88.7354 282.097 89.1039 282.169 89.4721 282.235L89.3646 282.723ZM88.2419 282.502L88.1173 282.986C87.732 282.903 87.35 282.808 86.9713 282.7L87.1278 282.223L87.2843 281.747C87.642 281.849 88.0027 281.939 88.3664 282.017L88.2419 282.502ZM87.1278 282.223L86.9713 282.7C86.679 282.616 86.3749 282.601 86.0526 282.658L85.9814 282.17L85.9102 281.682C86.3801 281.6 86.8403 281.62 87.2843 281.747L87.1278 282.223ZM85.9814 282.17L86.0526 282.658C85.532 282.749 85.0365 282.655 84.5852 282.392L84.8534 281.964L85.1217 281.535C85.382 281.686 85.6385 281.73 85.9102 281.682L85.9814 282.17ZM84.8534 281.964L84.5852 282.392C84.3842 282.276 84.1802 282.263 83.9093 282.392L83.7027 281.947L83.4961 281.503C84.0479 281.24 84.6111 281.238 85.1217 281.535L84.8534 281.964ZM83.7027 281.947L83.9093 282.392C83.3433 282.661 82.7703 282.64 82.2629 282.307L82.5531 281.892L82.8434 281.476C83.046 281.609 83.2394 281.625 83.4961 281.503L83.7027 281.947ZM82.5531 281.892L82.2629 282.307C82.0024 282.136 81.7569 282.09 81.5048 282.135L81.4322 281.647L81.3596 281.16C81.8921 281.065 82.3939 281.182 82.8434 281.476L82.5531 281.892ZM81.4322 281.647L81.5048 282.135C81.1131 282.205 80.7199 282.275 80.3252 282.347L80.2509 281.86L80.1767 281.372C80.5725 281.301 80.9668 281.23 81.3596 281.16L81.4322 281.647ZM80.2509 281.86L80.3252 282.347C79.8591 282.431 79.4013 282.418 78.9576 282.302L79.1028 281.823L79.248 281.343C79.5447 281.421 79.8523 281.431 80.1767 281.372L80.2509 281.86ZM79.1028 281.823L78.9576 282.302C78.6407 282.22 78.3159 282.19 77.9808 282.214L77.9629 281.719L77.9451 281.225C78.3894 281.194 78.8245 281.233 79.248 281.343L79.1028 281.823ZM77.9629 281.719L77.9808 282.214C77.5865 282.241 77.1957 282.264 76.8081 282.28L76.804 281.785L76.7999 281.29C77.1781 281.274 77.5598 281.252 77.9451 281.225L77.9629 281.719ZM76.804 281.785L76.8081 282.28C76.3643 282.3 75.9277 282.241 75.5007 282.107L75.6695 281.634L75.8383 281.162C76.1582 281.262 76.478 281.304 76.7999 281.29L76.804 281.785ZM75.6695 281.634L75.5007 282.107C75.1432 281.995 74.7866 281.903 74.4311 281.831L74.5496 281.346L74.6682 280.86C75.0588 280.939 75.4489 281.04 75.8383 281.162L75.6695 281.634ZM74.5496 281.346L74.4311 281.831C74.0524 281.755 73.6751 281.672 73.2992 281.583L73.4341 281.101L73.5691 280.619C73.9342 280.705 74.3005 280.786 74.6682 280.86L74.5496 281.346ZM73.4341 281.101L73.2992 281.583C73.118 281.54 73.0032 281.518 72.9417 281.512C72.9046 281.508 72.9197 281.513 72.9601 281.507C72.9772 281.505 73.0481 281.495 73.13 281.447C73.1751 281.42 73.2327 281.376 73.2821 281.308C73.3337 281.236 73.3645 281.154 73.3731 281.071L72.8712 281.039L72.3693 281.007C72.39 280.804 72.5196 280.669 72.6331 280.602C72.7276 280.546 72.8169 280.531 72.858 280.525C72.9465 280.513 73.0326 280.52 73.0894 280.527C73.2154 280.541 73.3797 280.574 73.5691 280.619L73.4341 281.101ZM72.8712 281.039L73.2036 280.654L73.2968 280.731L72.9644 281.116L72.6319 281.5L72.5388 281.423L72.8712 281.039ZM72.9644 281.116L72.9113 281.61L72.811 281.603L72.864 281.109L72.9171 280.614L73.0175 280.621L72.9644 281.116Z"
        fill="#D9D9D9" />
    <path
        d="M142.02 264.106C142.268 264.223 142.366 264.518 142.238 264.765C142.11 265.011 141.805 265.117 141.557 265L141.789 264.553L142.02 264.106ZM141.699 264.511L141.467 264.958L141.456 264.952L141.699 264.511ZM137.145 262.433L136.728 262.725L137.145 262.433ZM133.955 261.23L134.134 260.762L133.955 261.23ZM131.958 260.144L132.415 259.918L131.958 260.144ZM124.384 257.709L124.329 258.202L124.384 257.709ZM118.835 256.441L118.919 255.952L118.835 256.441ZM116.723 255.5L116.341 255.836L116.723 255.5ZM114.466 255.129L114.674 255.572L114.466 255.129ZM111.064 254.612L110.804 255.044L111.064 254.612ZM109.969 254.26L109.898 254.751L109.969 254.26ZM105.401 253.766L105.492 254.249L105.401 253.766ZM104.606 253.758L104.306 254.165L104.246 254.124L104.202 254.067L104.606 253.758ZM104.509 253.635L104.59 253.145L104.791 253.17L104.914 253.325L104.509 253.635ZM104.329 254.113C104.053 254.078 103.866 253.831 103.91 253.56C103.955 253.289 104.214 253.098 104.49 253.132L104.409 253.623L104.329 254.113ZM141.789 264.553L141.557 265L141.467 264.957L141.699 264.511L141.93 264.064L142.02 264.106L141.789 264.553ZM141.699 264.511L141.456 264.952C140.843 264.644 140.371 264.422 140.037 264.282L140.249 263.827L140.461 263.372C140.826 263.524 141.321 263.758 141.941 264.07L141.699 264.511ZM140.249 263.827L140.037 264.282C139.629 264.111 139.262 263.867 138.938 263.554L139.299 263.196L139.66 262.839C139.903 263.074 140.17 263.25 140.461 263.372L140.249 263.827ZM139.299 263.196L138.938 263.554C138.774 263.395 138.563 263.32 138.243 263.359L138.195 262.869L138.148 262.379C138.732 262.307 139.256 262.449 139.66 262.839L139.299 263.196ZM138.195 262.869L138.243 263.359C137.944 263.396 137.653 263.369 137.384 263.258C137.114 263.146 136.896 262.961 136.728 262.725L137.145 262.433L137.562 262.14C137.642 262.252 137.724 262.313 137.805 262.346C137.886 262.38 137.995 262.398 138.148 262.379L138.195 262.869ZM137.145 262.433L136.728 262.725C136.527 262.445 136.298 262.271 136.044 262.176L136.238 261.714L136.432 261.251C136.891 261.423 137.266 261.728 137.562 262.14L137.145 262.433ZM136.238 261.714L136.044 262.176C135.733 262.06 135.399 261.986 135.04 261.955L135.1 261.463L135.16 260.97C135.606 261.008 136.031 261.101 136.432 261.251L136.238 261.714ZM135.1 261.463L135.04 261.955C134.598 261.918 134.177 261.833 133.777 261.698L133.955 261.23L134.134 260.762C134.453 260.87 134.795 260.94 135.16 260.97L135.1 261.463ZM133.955 261.23L133.777 261.698C133.435 261.583 133.084 261.487 132.725 261.409L132.849 260.927L132.973 260.444C133.369 260.529 133.756 260.635 134.134 260.762L133.955 261.23ZM132.849 260.927L132.725 261.409C132.159 261.288 131.761 260.899 131.501 260.37L131.958 260.144L132.415 259.918C132.588 260.27 132.784 260.403 132.973 260.444L132.849 260.927ZM131.958 260.144L131.501 260.37C131.322 260.005 131.115 259.83 130.908 259.756L131.096 259.291L131.283 258.827C131.794 259.009 132.162 259.403 132.415 259.918L131.958 260.144ZM131.096 259.291L130.908 259.756C130.668 259.67 130.367 259.658 129.98 259.762L129.861 259.286L129.742 258.81C130.284 258.664 130.806 258.656 131.283 258.827L131.096 259.291ZM129.861 259.286L129.98 259.762C129.445 259.906 128.929 259.923 128.455 259.775L128.624 259.304L128.792 258.832C129.04 258.91 129.35 258.915 129.742 258.81L129.861 259.286ZM128.624 259.304L128.455 259.775C128.099 259.663 127.74 259.557 127.38 259.455L127.536 258.98L127.691 258.504C128.06 258.609 128.427 258.718 128.792 258.832L128.624 259.304ZM127.536 258.98L127.38 259.455C126.981 259.342 126.598 259.186 126.232 258.989L126.487 258.554L126.742 258.12C127.046 258.283 127.362 258.411 127.691 258.504L127.536 258.98ZM126.487 258.554L126.232 258.989C125.898 258.809 125.563 258.632 125.227 258.455L125.477 258.018L125.727 257.581C126.067 257.759 126.405 257.938 126.742 258.12L126.487 258.554ZM125.477 258.018L125.227 258.455C124.95 258.31 124.652 258.226 124.329 258.202L124.384 257.709L124.439 257.216C124.898 257.25 125.328 257.372 125.727 257.581L125.477 258.018ZM124.384 257.709L124.329 258.202C123.839 258.165 123.394 257.993 123.003 257.698L123.32 257.303L123.637 256.909C123.885 257.095 124.149 257.194 124.439 257.216L124.384 257.709ZM123.32 257.303L123.003 257.698C122.734 257.495 122.45 257.362 122.151 257.291L122.285 256.81L122.419 256.33C122.861 256.434 123.268 256.63 123.637 256.909L123.32 257.303ZM122.285 256.81L122.151 257.291C121.811 257.21 121.461 257.161 121.101 257.144L121.142 256.65L121.184 256.156C121.605 256.177 122.017 256.234 122.419 256.33L122.285 256.81ZM121.142 256.65L121.101 257.144C120.703 257.124 120.308 257.097 119.916 257.061L119.98 256.569L120.043 256.077C120.42 256.111 120.8 256.138 121.184 256.156L121.142 256.65ZM119.98 256.569L119.916 257.061C119.525 257.025 119.137 256.982 118.752 256.931L118.835 256.441L118.919 255.952C119.291 256.001 119.666 256.042 120.043 256.077L119.98 256.569ZM118.835 256.441L118.752 256.931C118.341 256.877 117.94 256.785 117.55 256.655L117.727 256.186L117.904 255.718C118.234 255.828 118.572 255.906 118.919 255.952L118.835 256.441ZM117.727 256.186L117.55 256.655C117.094 256.503 116.693 256.221 116.341 255.836L116.723 255.5L117.105 255.164C117.371 255.454 117.639 255.63 117.904 255.718L117.727 256.186ZM116.723 255.5L116.341 255.836C116.09 255.561 115.841 255.431 115.596 255.394L115.691 254.905L115.786 254.417C116.299 254.496 116.739 254.763 117.105 255.164L116.723 255.5ZM115.691 254.905L115.596 255.394C115.342 255.354 115.04 255.399 114.674 255.572L114.466 255.129L114.257 254.685C114.766 254.444 115.281 254.339 115.786 254.417L115.691 254.905ZM114.466 255.129L114.674 255.572C114.161 255.815 113.641 255.914 113.134 255.813L113.25 255.328L113.367 254.844C113.606 254.891 113.896 254.857 114.257 254.685L114.466 255.129ZM113.25 255.328L113.134 255.813C112.747 255.736 112.364 255.643 111.984 255.534L112.14 255.06L112.296 254.585C112.651 254.686 113.007 254.772 113.367 254.844L113.25 255.328ZM112.14 255.06L111.984 255.534C111.578 255.419 111.185 255.255 110.804 255.044L111.064 254.612L111.325 254.18C111.644 254.356 111.968 254.491 112.296 254.585L112.14 255.06ZM111.064 254.612L110.804 255.044C110.509 254.88 110.207 254.784 109.898 254.751L109.969 254.26L110.04 253.769C110.491 253.817 110.92 253.956 111.325 254.18L111.064 254.612ZM109.969 254.26L109.898 254.751C109.538 254.713 109.175 254.697 108.807 254.703L108.815 254.209L108.823 253.715C109.232 253.708 109.638 253.726 110.04 253.769L109.969 254.26ZM108.815 254.209L108.807 254.703C108.379 254.71 107.959 254.67 107.547 254.582L107.67 254.099L107.793 253.616C108.129 253.688 108.472 253.721 108.823 253.715L108.815 254.209ZM107.67 254.099L107.547 254.582C107.158 254.499 106.772 254.399 106.388 254.281L106.554 253.809L106.719 253.337C107.076 253.446 107.433 253.539 107.793 253.616L107.67 254.099ZM106.554 253.809L106.388 254.281C106.104 254.194 105.809 254.182 105.492 254.249L105.401 253.766L105.309 253.283C105.791 253.181 106.264 253.197 106.719 253.337L106.554 253.809ZM105.401 253.766L105.492 254.249C105.273 254.295 105.066 254.323 104.881 254.322C104.706 254.32 104.489 254.291 104.306 254.165L104.606 253.758L104.906 253.35C104.854 253.315 104.835 253.332 104.925 253.333C105.005 253.334 105.13 253.321 105.309 253.283L105.401 253.766ZM104.606 253.758L104.202 254.067L104.105 253.945L104.509 253.635L104.914 253.325L105.01 253.448L104.606 253.758ZM104.509 253.635L104.429 254.125L104.329 254.113L104.409 253.623L104.49 253.132L104.59 253.145L104.509 253.635Z"
        fill="#D9D9D9" />
    <path
        d="M137.291 272.224C137.544 272.331 137.653 272.622 137.536 272.874C137.418 273.126 137.118 273.244 136.865 273.137L137.078 272.681L137.291 272.224ZM136.987 272.642L137.052 272.149L137.129 272.156L137.2 272.186L136.987 272.642ZM134.568 272.034L134.849 271.612L134.568 272.034ZM133.054 271.27L133.256 270.809L133.054 271.27ZM131.458 270.688L131.637 270.218L131.458 270.688ZM128.476 269.039L128.388 269.53L128.476 269.039ZM121.941 267.077L122.3 266.717L121.941 267.077ZM118.717 265.988L119.097 265.649L118.717 265.988ZM115.413 265.159L115.43 264.664L115.413 265.159ZM113.754 264.748L113.5 265.184L113.754 264.748ZM112.167 264.093L112.329 263.618L112.167 264.093ZM105.38 263.083L105.62 262.639L105.38 263.083ZM103.795 262.291L103.553 262.734L103.795 262.291ZM96.9291 261.768L96.9451 262.263L96.9291 261.768ZM90.1288 260.818L89.8865 261.261L90.1288 260.818ZM78.9372 260.185L78.4995 260.447L78.3982 260.277L78.4481 260.081L78.9372 260.185ZM79.0085 260.305L79.4461 260.043L79.9273 260.851L78.9634 260.8L79.0085 260.305ZM78.8629 260.794C78.5854 260.78 78.3807 260.546 78.4056 260.273C78.4305 260 78.6757 259.79 78.9531 259.805L78.908 260.299L78.8629 260.794ZM137.078 272.681L136.865 273.137L136.774 273.099L136.987 272.642L137.2 272.186L137.291 272.224L137.078 272.681ZM136.987 272.642L136.922 273.136C135.776 273.03 134.871 272.819 134.287 272.455L134.568 272.034L134.849 271.612C135.231 271.851 135.939 272.046 137.052 272.149L136.987 272.642ZM134.568 272.034L134.287 272.455C133.829 272.168 133.35 271.927 132.852 271.731L133.054 271.27L133.256 270.809C133.811 271.028 134.342 271.296 134.849 271.612L134.568 272.034ZM133.054 271.27L132.852 271.731C132.334 271.526 131.81 271.335 131.28 271.157L131.458 270.688L131.637 270.218C132.182 270.402 132.722 270.599 133.256 270.809L133.054 271.27ZM131.458 270.688L131.28 271.157C130.669 270.952 130.122 270.613 129.64 270.149L129.999 269.789L130.359 269.429C130.747 269.802 131.173 270.062 131.637 270.218L131.458 270.688ZM129.999 269.789L129.64 270.149C129.274 269.797 128.86 269.596 128.388 269.53L128.476 269.039L128.564 268.549C129.253 268.645 129.855 268.943 130.359 269.429L129.999 269.789ZM128.476 269.039L128.388 269.53C127.816 269.451 127.239 269.385 126.659 269.333L126.722 268.839L126.786 268.346C127.383 268.399 127.976 268.467 128.564 268.549L128.476 269.039ZM126.722 268.839L126.659 269.333C125.921 269.267 125.307 268.916 124.825 268.329L125.222 268.009L125.619 267.69C125.959 268.104 126.345 268.306 126.786 268.346L126.722 268.839ZM125.222 268.009L124.825 268.329C124.668 268.137 124.504 268.029 124.338 267.975C124.17 267.921 123.965 267.912 123.707 267.971L123.608 267.489L123.509 267.007C123.915 266.913 124.312 266.913 124.683 267.032C125.054 267.152 125.365 267.381 125.619 267.69L125.222 268.009ZM123.608 267.489L123.707 267.971C122.888 268.161 122.156 267.99 121.582 267.437L121.941 267.077L122.3 266.717C122.618 267.022 122.997 267.126 123.509 267.007L123.608 267.489ZM121.941 267.077L121.582 267.437C121.244 267.113 120.857 266.991 120.378 267.059L120.324 266.569L120.269 266.078C121.054 265.967 121.746 266.184 122.3 266.717L121.941 267.077ZM120.324 266.569L120.378 267.059C119.573 267.173 118.878 266.916 118.338 266.328L118.717 265.988L119.097 265.649C119.433 266.014 119.809 266.144 120.269 266.078L120.324 266.569ZM118.717 265.988L118.338 266.328C117.971 265.929 117.572 265.739 117.13 265.71L117.181 265.216L117.233 264.721C117.962 264.769 118.587 265.094 119.097 265.649L118.717 265.988ZM117.181 265.216L117.13 265.71C116.556 265.672 115.978 265.654 115.395 265.655L115.413 265.159L115.43 264.664C116.035 264.663 116.636 264.682 117.233 264.721L117.181 265.216ZM115.413 265.159L115.395 265.655C114.718 265.656 114.084 265.498 113.5 265.184L113.754 264.748L114.009 264.311C114.448 264.547 114.919 264.664 115.43 264.664L115.413 265.159ZM113.754 264.748L113.5 265.184C113.017 264.925 112.519 264.719 112.006 264.567L112.167 264.093L112.329 263.618C112.908 263.789 113.468 264.021 114.009 264.311L113.754 264.748ZM112.167 264.093L112.006 264.567C111.529 264.426 111.023 264.386 110.482 264.45L110.439 263.958L110.396 263.467C111.067 263.386 111.713 263.435 112.329 263.618L112.167 264.093ZM110.439 263.958L110.482 264.45C109.721 264.541 109.039 264.312 108.461 263.804L108.805 263.429L109.148 263.055C109.538 263.397 109.945 263.52 110.396 263.467L110.439 263.958ZM108.805 263.429L108.461 263.804C108.275 263.641 108.094 263.556 107.916 263.524C107.737 263.493 107.53 263.51 107.282 263.598L107.124 263.133L106.967 262.668C107.356 262.529 107.746 262.482 108.128 262.549C108.51 262.616 108.85 262.793 109.148 263.055L108.805 263.429ZM107.124 263.133L107.282 263.598C106.531 263.867 105.804 263.856 105.14 263.527L105.38 263.083L105.62 262.639C106.01 262.832 106.445 262.855 106.967 262.668L107.124 263.133ZM105.38 263.083L105.14 263.527C104.613 263.266 104.084 263.001 103.553 262.734L103.795 262.291L104.038 261.849C104.567 262.115 105.094 262.378 105.62 262.639L105.38 263.083ZM103.795 262.291L103.553 262.734C103.17 262.542 102.748 262.528 102.239 262.741L102.056 262.286L101.872 261.831C102.623 261.518 103.36 261.508 104.038 261.849L103.795 262.291ZM102.056 262.286L102.239 262.741C101.495 263.052 100.762 263.075 100.081 262.765L100.307 262.314L100.532 261.863C100.924 262.042 101.357 262.046 101.872 261.831L102.056 262.286ZM100.307 262.314L100.081 262.765C99.5863 262.54 99.0812 262.392 98.5648 262.32L98.6534 261.829L98.742 261.338C99.3575 261.425 99.9545 261.6 100.532 261.863L100.307 262.314ZM98.6534 261.829L98.5648 262.32C98.0339 262.245 97.4942 262.226 96.9451 262.263L96.9291 261.768L96.913 261.274C97.5311 261.233 98.141 261.254 98.742 261.338L98.6534 261.829ZM96.9291 261.768L96.9451 262.263C96.2865 262.307 95.648 262.209 95.0345 261.973L95.233 261.511L95.4314 261.048C95.9122 261.233 96.4045 261.308 96.913 261.274L96.9291 261.768ZM95.233 261.511L95.0345 261.973C94.5145 261.773 93.9881 261.623 93.4551 261.523L93.5669 261.036L93.6787 260.549C94.2728 260.661 94.8571 260.827 95.4314 261.048L95.233 261.511ZM93.5669 261.036L93.4551 261.523C92.9578 261.429 92.4462 261.434 91.9163 261.539L91.8337 261.053L91.7511 260.567C92.4051 260.438 93.0489 260.431 93.6787 260.549L93.5669 261.036ZM91.8337 261.053L91.9163 261.539C91.2088 261.679 90.5265 261.583 89.8865 261.261L90.1288 260.818L90.3711 260.375C90.8204 260.601 91.2747 260.662 91.7511 260.567L91.8337 261.053ZM90.1288 260.818L89.8865 261.261C89.4968 261.065 89.0895 261.065 88.609 261.303L88.3947 260.863L88.1804 260.422C88.9227 260.054 89.6714 260.024 90.3711 260.375L90.1288 260.818ZM88.3947 260.863L88.609 261.303C87.9339 261.638 87.2566 261.807 86.5845 261.786L86.6183 261.291L86.6521 260.796C87.1258 260.81 87.6327 260.693 88.1804 260.422L88.3947 260.863ZM86.6183 261.291L86.5845 261.786C85.902 261.765 85.2573 261.536 84.6555 261.125L84.9531 260.715L85.2507 260.304C85.7234 260.627 86.1889 260.781 86.6521 260.796L86.6183 261.291ZM84.9531 260.715L84.6555 261.125C84.2181 260.827 83.7964 260.75 83.3621 260.849L83.2645 260.367L83.1669 259.884C83.9095 259.715 84.6135 259.87 85.2507 260.304L84.9531 260.715ZM83.2645 260.367L83.3621 260.849C82.7708 260.985 82.1802 261.115 81.5902 261.239L81.501 260.755L81.4118 260.271C81.9962 260.147 82.5812 260.018 83.1669 259.884L83.2645 260.367ZM81.501 260.755L81.5902 261.239C80.8784 261.39 80.1896 261.285 79.5427 260.945L79.7932 260.506L80.0437 260.067C80.4993 260.307 80.949 260.369 81.4118 260.271L81.501 260.755ZM79.7932 260.506L79.5427 260.945C79.2705 260.801 79.0837 260.714 78.9713 260.672C78.9082 260.648 78.9031 260.652 78.9323 260.655C78.9428 260.656 79.0169 260.665 79.1129 260.631C79.1668 260.611 79.2362 260.576 79.2999 260.511C79.3658 260.444 79.4067 260.366 79.4262 260.289L78.9372 260.185L78.4481 260.081C78.4994 259.88 78.6521 259.752 78.8009 259.7C78.9184 259.658 79.0223 259.664 79.0708 259.669C79.1763 259.68 79.2806 259.714 79.3602 259.744C79.5331 259.809 79.7647 259.92 80.0437 260.067L79.7932 260.506ZM78.9372 260.185L79.3748 259.923L79.4461 260.043L79.0085 260.305L78.5708 260.566L78.4995 260.447L78.9372 260.185ZM79.0085 260.305L78.9634 260.8L78.8629 260.794L78.908 260.299L78.9531 259.805L79.0536 259.81L79.0085 260.305Z"
        fill="#D9D9D9" />
    <path
        d="M198.058 232.884C206.988 219.833 233.105 203.976 242.69 210.532C256.403 218.012 247.388 244.841 232.767 256.626C231.184 257.903 229.506 259.18 227.761 260.41C223.599 263.838 218.179 266.635 212.591 268.262C212.171 268.387 211.75 268.502 211.329 268.608C208.605 269.312 205.86 269.732 203.221 269.803C192.438 270.093 179.199 268.654 173.696 260.21C170.511 250.576 178.565 239.251 191.685 234.914C193.447 234.332 195.452 233.88 197.609 233.555C197.756 233.331 197.906 233.107 198.058 232.884Z"
        fill="#FADA3A" />
    <path
        d="M242.69 210.531C256.403 218.012 247.388 244.84 232.767 256.626C231.184 257.902 229.506 259.18 227.761 260.41C223.599 263.838 218.179 266.634 212.591 268.262C212.171 268.387 211.75 268.501 211.329 268.607C208.605 269.312 205.86 269.732 203.221 269.803C192.438 270.093 179.199 268.654 173.696 260.21C170.511 250.576 178.565 239.251 191.685 234.914C193.447 234.332 195.452 233.88 197.609 233.555"
        stroke="#ECC234" stroke-width="2" stroke-linecap="round" />
    <path
        d="M123.844 280.596C126.035 280.493 127.894 281.286 128.611 282.885C128.618 282.901 128.626 282.918 128.633 282.935C128.643 282.958 128.651 282.983 128.661 283.007L127.659 295.619L116.521 287.636C115.763 285.228 117.778 282.353 121.094 281.159C121.83 280.894 122.565 280.723 123.273 280.642C123.469 280.622 123.659 280.607 123.844 280.596Z"
        fill="#FFE394" />
    <path
        d="M116.517 287.633L116.497 287.619C116.467 287.529 116.44 287.44 116.415 287.352L116.517 287.633Z"
        fill="#FFE394" />
    <path
        d="M127.662 295.586L127.456 295.473L122.697 292.062C124.63 290.898 126.005 290.298 128.1 290.075L127.662 295.586Z"
        fill="#F54429" />
    <path
        d="M98.2327 236.833L98.3839 236.779C98.2955 234.594 100.203 232.252 103.113 231.204C106.024 230.157 108.986 230.746 110.311 232.486L110.463 232.431L128.71 283.126C127.834 280.691 124.472 279.944 121.095 281.16C117.77 282.356 115.754 285.242 116.527 287.654L116.567 287.768L98.2327 236.833Z"
        fill="#F54429" />
    <path
        d="M103.043 246.89C96.9156 235.224 75.6581 219.074 66.006 223.112C52.4801 227.36 56.6243 250.131 68.0897 261.514C69.3313 262.747 70.6584 263.993 72.0527 265.209C75.3056 268.509 79.7914 271.462 84.6032 273.496C84.965 273.651 85.3285 273.798 85.693 273.938C88.0528 274.858 90.4731 275.551 92.8501 275.95C102.562 277.58 114.756 278.135 120.997 272.049C125.32 264.703 119.727 254.541 108.505 249.35C106.998 248.653 105.252 248.029 103.349 247.488C103.25 247.289 103.147 247.089 103.043 246.89Z"
        fill="#FADA3A" />
    <path
        d="M66.0061 223.11C52.4802 227.358 56.6244 250.128 68.0898 261.512C69.3314 262.744 70.6585 263.99 72.0528 265.207C75.3057 268.506 79.7916 271.46 84.6033 273.494C84.9651 273.649 85.3286 273.796 85.6931 273.935C88.0529 274.855 90.4732 275.549 92.8502 275.948C102.562 277.577 114.756 278.133 120.997 272.046C125.32 264.701 119.727 254.538 108.505 249.348C106.998 248.651 105.252 248.027 103.349 247.486"
        stroke="#ECC234" stroke-width="2" stroke-linecap="round" />
</svg>