<svg width="450" height="150" viewBox="0 0 450 150" fill="none" xmlns="http://www.w3.org/2000/svg">
    <path
        d="M33.5079 141.097C33.7563 137.74 37.4801 134.733 42.3842 134.27L42.834 131.32L57.1646 132.612C57.4107 138.159 57.2208 140.647 56.1656 143.723L56.0829 143.715C55.0971 147.217 50.1419 149.61 44.3867 149.182C37.6781 148.553 32.474 144.83 33.5079 141.097Z"
        fill="#F47112" />
    <path
        d="M95.0052 141.865C94.7567 138.509 91.033 135.501 86.1289 135.039L85.679 132.088L71.3485 133.38C71.1024 138.927 71.2922 141.415 72.3475 144.491L72.4302 144.484C73.416 147.985 78.3712 150.378 84.1263 149.951C90.835 149.321 96.0391 145.598 95.0052 141.865Z"
        fill="#F47112" />
    <path
        d="M76.2361 107.238C76.3678 100.369 82.8823 93.3989 89.8465 91.03C99.3577 87.7948 116.206 88.668 117.635 95.1921C119.274 101.912 104.938 113.131 95.7818 115.363C86.626 117.595 77.8751 113.957 76.2361 107.238Z"
        fill="#FADA3A" />
    <path
        d="M66.468 0.118517C69.2475 -0.552269 72.2138 1.68859 73.4048 5.21408C73.6564 5.72961 73.8642 6.28242 74.0183 6.86656C74.278 7.43627 74.4916 8.0493 74.6481 8.69692C74.7239 9.01028 74.784 9.32257 74.8293 9.6322C74.8417 9.68107 74.854 9.73019 74.8659 9.77943C75.2629 11.4221 75.2891 13.0235 75.0101 14.3984C98.9488 19.8919 115.576 40.2164 113.305 62.171C116.748 66.5646 118.147 72.0301 117.416 77.7074C115.657 91.36 102.009 96.9688 85.6542 99.0431C69.299 101.117 56.7275 102.096 33.958 94.7288C18.2495 89.6465 6.8718 81.9003 6 67.8608C6.32066 61.2654 9.57108 55.3987 14.6452 51.1097C14.6688 50.9 14.6936 50.6901 14.7207 50.4801C17.2622 30.7479 34.3531 16.0152 55.4907 13.3799C53.9163 10.8255 53.6132 8.01191 54.5976 6.25393C54.7219 5.94029 54.8918 5.64862 55.1096 5.3858C56.5285 3.67376 59.515 3.72359 62.2659 5.33405C62.4182 4.85661 62.6147 4.40474 62.851 3.98632C63.4279 2.02565 64.7171 0.54109 66.468 0.118517Z"
        fill="#FADA3A" />
    <path
        d="M60.1779 61.9116C59.9254 63.9944 59.0251 65.7762 57.7119 67.1151C56.0719 68.7873 53.7911 69.744 51.3589 69.4495C48.9074 69.1527 46.9755 67.7116 45.7475 65.6663C44.7816 64.0578 44.2071 62.0702 44.4571 60.008C44.6993 58.0103 45.7892 56.2789 47.0454 54.9604C48.7346 53.1874 50.8867 52.3218 53.3985 52.626C55.8863 52.9272 57.7837 54.3547 59.0099 56.4092C59.9422 57.9713 60.4232 59.8883 60.1779 61.9116Z"
        fill="#040301" />
    <path
        d="M57.037 58.7094C56.9067 59.7845 55.9913 60.5579 54.9925 60.437C53.9936 60.316 53.2895 59.3465 53.4199 58.2715C53.5502 57.1964 54.4656 56.423 55.4644 56.5439C56.4633 56.6649 57.1674 57.6344 57.037 58.7094Z"
        fill="white" />
    <path
        d="M99.3787 64.2161C99.1262 66.2989 98.2258 68.0807 96.9127 69.4196C95.2727 71.0918 92.9918 72.0485 90.5596 71.754C88.1082 71.4572 86.1762 70.016 84.9482 67.9708C83.9824 66.3623 83.4079 64.3747 83.6579 62.3125C83.9001 60.3148 84.9899 58.5834 86.2461 57.2649C87.9353 55.4919 90.0875 54.6263 92.5992 54.9305C95.0871 55.2317 96.9845 56.6592 98.2106 58.7137C99.143 60.2758 99.624 62.1928 99.3787 64.2161Z"
        fill="#040301" />
    <path
        d="M96.2385 61.0139C96.1081 62.0889 95.1928 62.8624 94.1939 62.7414C93.195 62.6205 92.491 61.6509 92.6213 60.5759C92.7516 59.5008 93.667 58.7274 94.6659 58.8483C95.6647 58.9693 96.3688 59.9388 96.2385 61.0139Z"
        fill="white" />
    <path
        d="M45.642 71.81C45.0728 74.4568 41.4216 75.9174 37.4868 75.0723C33.552 74.2271 30.8236 71.3963 31.3928 68.7495C31.962 66.1027 35.6132 64.6421 39.548 65.4873C43.4828 66.3324 46.2111 69.1632 45.642 71.81Z"
        fill="#F99091" />
    <path
        d="M109.363 77.4504C108.894 80.1168 105.301 81.7142 101.337 81.0183C97.3729 80.3223 94.5395 77.5966 95.0082 74.9302C95.4769 72.2638 99.0703 70.6664 103.034 71.3623C106.998 72.0583 109.832 74.784 109.363 77.4504Z"
        fill="#F99091" />
    <path fill-rule="evenodd" clip-rule="evenodd"
        d="M72.9696 64.2823C70.6196 64.1444 69.2917 64.384 66.7933 65.3213C66.2432 65.5572 65.883 65.7405 65.554 65.9543C65.2245 66.1683 64.9229 66.4154 64.4894 66.7829C63.6554 67.6443 63.2298 68.0698 62.8853 69.1672C62.5376 70.2746 62.5702 70.935 62.5988 72.1892C62.8187 74.4644 63.0713 75.7322 63.8129 77.993C64.1765 78.7424 64.4105 79.262 64.7367 79.7825C65.0624 80.3021 65.4816 80.8246 66.2151 81.5677C66.8643 82.2254 67.4207 82.6567 68.0155 82.9709C68.6083 83.2839 69.2463 83.4843 70.0654 83.6729C70.9146 83.7336 71.5917 83.6242 72.249 83.5314C72.9031 83.4391 73.5542 83.2244 74.3645 82.7873C75.2836 82.2916 75.8376 81.9148 76.3012 81.5133C76.7657 81.1111 77.1417 80.6828 77.7091 80.0728C79.0808 78.1282 79.694 76.99 80.5711 74.879C80.9661 73.6882 81.1908 73.0663 81.183 71.9057C81.1752 70.7556 80.893 70.2241 80.3481 69.1564C80.0414 68.6781 79.8254 68.3535 79.5731 68.0524C79.3212 67.7517 79.0303 67.471 78.5735 67.0844C76.4573 65.4551 75.2437 64.8369 72.9696 64.2823Z"
        fill="#FF7518" />
    <path
        d="M63.932 70.692C64.1217 74.8502 65.4608 81.2358 70.3348 81.6342C75.1233 82.7757 77.6388 77.7978 79.7485 72.9446C73.5578 70.5682 70.7608 70.215 63.932 70.692Z"
        fill="#C22F07" />
    <path
        d="M65.0789 76.8387C65.8388 79.649 67.118 80.9542 70.2139 81.7141C73.2297 82.1668 74.6838 81.5471 76.7754 78.5892C75.9565 77.6638 75.3653 77.2873 74.1904 76.9278C72.7915 76.8125 72.0967 76.996 70.9272 77.7139C70.2221 76.8045 69.7036 76.3899 68.2309 76.0358C66.7521 75.8196 66.0961 76.0668 65.0789 76.8387Z"
        fill="#F4551D" />
    <path
        d="M98.2312 112.246C98.2312 127.459 81.4889 139.793 60.8362 139.793C40.1835 139.793 23.4412 127.459 23.4412 112.246C23.0184 85.7087 39.8557 75.8909 60.8362 84.6985C81.4889 84.6985 98.2312 97.0317 98.2312 112.246Z"
        fill="#FADA3A" />
    <path fill-rule="evenodd" clip-rule="evenodd"
        d="M37.2039 31.9266C37.6278 31.6755 37.8928 31.5356 37.8928 31.5356C37.8559 31.8203 37.832 32.0963 37.8213 32.3637C37.7558 33.9429 38.1062 35.2373 38.419 36.3901C38.7833 37.7344 38.8894 38.9592 38.4269 40.1436C37.9822 41.2824 37.3891 42.156 36.4119 42.7027C35.4346 43.2495 34.359 43.3512 33.4216 42.9856C32.4842 42.62 31.7619 41.817 31.4135 40.7532C31.0651 39.6895 31.1192 38.4521 31.5639 37.3134C32.495 34.9289 35.7639 32.7809 37.2039 31.9266ZM37.1619 32.7522C36.5893 33.1017 36.0275 33.4794 35.4783 33.8841C34.7852 34.3972 34.0713 34.9912 33.4658 35.6308C32.8538 36.2769 32.3939 36.9262 32.153 37.5431C31.7824 38.4921 31.7373 39.5232 32.0276 40.4097C32.3179 41.2961 32.9199 41.9653 33.701 42.27C34.4822 42.5746 35.3785 42.4899 36.1929 42.0343C37.0073 41.5787 37.4223 40.7609 37.7928 39.8119C38.1285 38.9525 38.1775 38.1141 37.7928 36.6917L37.7841 36.6619C37.7828 36.6572 37.7815 36.6524 37.7802 36.6476C37.4926 35.5831 37.1476 34.3064 37.1619 32.7522Z"
        fill="#42AAEB" />
    <path
        d="M37.1619 32.7522C36.5893 33.1017 36.0275 33.4794 35.4783 33.8841C34.7852 34.3972 34.0713 34.9912 33.4658 35.6308C32.8538 36.2769 32.3939 36.9262 32.153 37.5431C31.7824 38.4921 31.7373 39.5232 32.0276 40.4097C32.3179 41.2961 32.9199 41.9653 33.701 42.27C34.4822 42.5746 35.3785 42.4899 36.1929 42.0343C37.0073 41.5787 37.4223 40.7609 37.7928 39.8119C38.1285 38.9525 38.1775 38.1141 37.7928 36.6917L37.7841 36.6619L37.7802 36.6476C37.4926 35.5831 37.1476 34.3064 37.1619 32.7522Z"
        fill="#42AAEB" />
    <path fill-rule="evenodd" clip-rule="evenodd"
        d="M28.6862 38.5259C29.0348 38.3194 29.2527 38.2044 29.2527 38.2044C29.2223 38.4385 29.2027 38.6654 29.1939 38.8853C29.1401 40.1839 29.4282 41.2483 29.6854 42.1962C29.985 43.3017 30.0722 44.3089 29.6919 45.2828C29.3262 46.2192 28.8385 46.9376 28.0349 47.3872C27.2313 47.8367 26.3468 47.9204 25.576 47.6198C24.8052 47.3191 24.2112 46.6588 23.9247 45.7841C23.6383 44.9094 23.6828 43.8919 24.0484 42.9554C24.8141 40.9947 27.5021 39.2283 28.6862 38.5259ZM28.6517 39.2048C28.1808 39.4922 27.7189 39.8028 27.2673 40.1356C26.6973 40.5575 26.1103 41.0459 25.6124 41.5719C25.1091 42.1032 24.7309 42.6371 24.5328 43.1444C24.2281 43.9247 24.191 44.7726 24.4297 45.5016C24.6685 46.2305 25.1635 46.7808 25.8058 47.0313C26.4481 47.2818 27.1852 47.2121 27.8549 46.8375C28.5246 46.4629 28.8658 45.7904 29.1705 45.01C29.4465 44.3033 29.4868 43.6139 29.1705 42.4443L29.1633 42.4198C29.1623 42.4159 29.1612 42.4119 29.1601 42.408C28.9236 41.5326 28.6399 40.4828 28.6517 39.2048Z"
        fill="#42AAEB" />
    <path
        d="M28.6517 39.2048C28.1808 39.4922 27.7189 39.8028 27.2673 40.1356C26.6973 40.5575 26.1103 41.0459 25.6124 41.5719C25.1091 42.1032 24.7309 42.6371 24.5328 43.1444C24.2281 43.9247 24.191 44.7726 24.4297 45.5016C24.6685 46.2305 25.1635 46.7808 25.8058 47.0313C26.4481 47.2818 27.1852 47.2121 27.8549 46.8375C28.5246 46.4629 28.8658 45.7904 29.1705 45.01C29.4465 44.3033 29.4868 43.6139 29.1705 42.4443L29.1633 42.4198L29.1601 42.408C28.9236 41.5326 28.6399 40.4828 28.6517 39.2048Z"
        fill="#42AAEB" />
    <path
        d="M37.1619 32.7522C36.5893 33.1017 36.0275 33.4794 35.4783 33.8841C34.7852 34.3972 34.0713 34.9912 33.4658 35.6308C32.8538 36.2769 32.3939 36.9262 32.153 37.5431C31.7824 38.4921 31.7373 39.5232 32.0276 40.4097C32.3179 41.2961 32.9199 41.9653 33.701 42.27C34.4822 42.5746 35.3785 42.4899 36.1929 42.0343C37.0073 41.5787 37.4223 40.7609 37.7928 39.8119C38.1285 38.9525 38.1775 38.1141 37.7928 36.6917L37.7841 36.6619L37.7802 36.6476C37.4926 35.5831 37.1476 34.3064 37.1619 32.7522Z"
        fill="#42AAEB" />
    <path
        d="M28.6517 39.2048C28.1808 39.4922 27.7189 39.8028 27.2673 40.1356C26.6973 40.5575 26.1103 41.0459 25.6124 41.5719C25.1091 42.1032 24.7309 42.6371 24.5328 43.1444C24.2281 43.9247 24.191 44.7726 24.4297 45.5016C24.6685 46.2305 25.1635 46.7808 25.8058 47.0313C26.4481 47.2818 27.1852 47.2121 27.8549 46.8375C28.5246 46.4629 28.8658 45.7904 29.1705 45.01C29.4465 44.3033 29.4868 43.6139 29.1705 42.4443L29.1633 42.4198L29.1601 42.408C28.9236 41.5326 28.6399 40.4828 28.6517 39.2048Z"
        fill="#42AAEB" />
    <path
        d="M74.4378 101.669C72.7962 99.7227 73.0442 96.8149 74.9917 95.1744L113.781 62.4984C115.728 60.8578 118.638 61.1057 120.28 63.052L123.252 66.5762C124.894 68.5226 124.646 71.4304 122.698 73.0709L83.9088 105.747C81.9613 107.388 79.0517 107.14 77.4101 105.193L74.4378 101.669Z"
        fill="#AB633E" />
    <path d="M128.342 79.8769L143.915 67.3602L147.769 72.1493L132.195 84.666L128.342 79.8769Z"
        fill="#D9D9D9" />
    <path
        d="M147.769 72.1493C148.833 73.4717 146.209 77.3454 141.909 80.8018C137.608 84.2581 133.26 85.9884 132.195 84.666C131.131 83.3435 133.755 79.4691 138.055 76.0127C142.356 72.5563 146.705 70.8268 147.769 72.1493Z"
        fill="#999999" />
    <path
        d="M143.915 67.3602C144.98 68.6827 142.356 72.5563 138.055 76.0127C133.755 79.4691 129.406 81.1994 128.342 79.8769C127.278 78.5545 129.9 74.6806 134.201 71.2242C138.502 67.7678 142.851 66.0378 143.915 67.3602Z"
        fill="#D9D9D9" />
    <path d="M127.597 72.6718L137.946 64.4149L140.494 67.5574L130.144 75.8144L127.597 72.6718Z"
        fill="#D9D9D9" />
    <path
        d="M137.945 64.4155C138.649 65.2833 136.902 67.8352 134.044 70.1153C131.186 72.3954 128.299 73.5403 127.595 72.6725C126.892 71.8047 128.638 69.2529 131.496 66.9728C134.354 64.6927 137.241 63.5478 137.945 64.4155Z"
        fill="#D9D9D9" />
    <path
        d="M114.754 61.3242C113.73 59.9906 113.969 58.0824 115.289 57.0414L126.483 48.2167C127.853 47.137 129.844 47.4129 130.897 48.8035C133.548 52.3078 136.157 55.4956 139.517 59.6779C140.594 61.0186 140.355 62.9818 138.99 64.0284L127.48 72.8534C126.133 73.8864 124.202 73.6322 123.169 72.2858L114.754 61.3242Z"
        fill="#D9D9D9" />
    <path
        d="M105.616 51.055C104.587 50.9353 104.028 49.9352 104.85 49.3058C109.647 45.6303 125.182 43.4203 130.118 48.1114C130.714 48.6782 130.478 49.6065 129.78 50.0433L118.679 56.9971C117.976 57.4378 117.057 57.2345 116.544 56.5821C114.369 53.8157 111.354 51.7226 105.616 51.055Z"
        fill="#D9D9D9" />
    <path
        d="M38.2987 92.0849C42.4984 84.7735 48.9879 84.8378 55.645 86.9301C65.1778 89.9262 78.5819 93.631 77.906 100.582C77.23 107.533 56.6725 108.099 46.9342 106.502C37.5129 104.7 34.961 99.0376 38.2987 92.0849Z"
        fill="#FADA3A" />
    <path
        d="M38.2987 92.0849C42.4984 84.7735 48.9879 84.8378 55.645 86.9301C65.1778 89.9262 78.5819 93.631 77.906 100.582C77.23 107.533 56.6725 108.099 46.9342 106.502C37.5129 104.7 34.961 99.0376 38.2987 92.0849Z"
        fill="#FADA3A" />
    <path
        d="M55.6456 86.9304C65.1783 89.9265 78.5825 93.6312 77.9066 100.582C77.2306 107.533 56.6731 108.1 46.9348 106.502"
        stroke="#ECC234" stroke-width="2" stroke-linecap="round" />
    <path
        d="M183.508 141.097C183.756 137.74 187.48 134.733 192.384 134.27L192.834 131.32L207.165 132.612C207.411 138.159 207.221 140.647 206.166 143.723L206.083 143.715C205.097 147.217 200.142 149.61 194.387 149.182C187.678 148.553 182.474 144.83 183.508 141.097Z"
        fill="#F47112" />
    <path
        d="M245.005 141.865C244.757 138.509 241.033 135.501 236.129 135.039L235.679 132.088L221.348 133.38C221.102 138.927 221.292 141.415 222.347 144.491L222.43 144.484C223.416 147.985 228.371 150.378 234.126 149.951C240.835 149.321 246.039 145.598 245.005 141.865Z"
        fill="#F47112" />
    <path
        d="M226.236 107.238C226.368 100.369 232.882 93.3989 239.847 91.03C249.358 87.7948 266.206 88.668 267.635 95.1921C269.274 101.912 254.938 113.131 245.782 115.363C236.626 117.595 227.875 113.957 226.236 107.238Z"
        fill="#FADA3A" />
    <path
        d="M216.468 0.118517C219.247 -0.552269 222.214 1.68859 223.405 5.21408C223.656 5.72961 223.864 6.28242 224.018 6.86656C224.278 7.43627 224.492 8.0493 224.648 8.69692C224.724 9.01028 224.784 9.32257 224.829 9.6322C224.842 9.68107 224.854 9.73019 224.866 9.77943C225.263 11.4221 225.289 13.0235 225.01 14.3984C248.949 19.8919 265.576 40.2164 263.305 62.171C266.748 66.5646 268.147 72.0301 267.416 77.7074C265.657 91.36 252.009 96.9688 235.654 99.0431C219.299 101.117 206.727 102.096 183.958 94.7288C168.25 89.6465 156.872 81.9003 156 67.8608C156.321 61.2654 159.571 55.3987 164.645 51.1097C164.669 50.9 164.694 50.6901 164.721 50.4801C167.262 30.7479 184.353 16.0152 205.491 13.3799C203.916 10.8255 203.613 8.01191 204.598 6.25393C204.722 5.94029 204.892 5.64862 205.11 5.3858C206.528 3.67376 209.515 3.72359 212.266 5.33405C212.418 4.85661 212.615 4.40474 212.851 3.98632C213.428 2.02565 214.717 0.54109 216.468 0.118517Z"
        fill="#FADA3A" />
    <path
        d="M195.642 71.81C195.073 74.4568 191.422 75.9174 187.487 75.0723C183.552 74.2271 180.824 71.3963 181.393 68.7495C181.962 66.1027 185.613 64.6421 189.548 65.4873C193.483 66.3324 196.211 69.1632 195.642 71.81Z"
        fill="#F99091" />
    <path
        d="M259.363 77.4504C258.894 80.1168 255.301 81.7142 251.337 81.0183C247.373 80.3223 244.54 77.5966 245.008 74.9302C245.477 72.2638 249.07 70.6664 253.034 71.3623C256.998 72.0583 259.832 74.784 259.363 77.4504Z"
        fill="#F99091" />
    <path fill-rule="evenodd" clip-rule="evenodd"
        d="M222.97 64.2823C220.62 64.1444 219.292 64.384 216.793 65.3213C216.243 65.5572 215.883 65.7405 215.554 65.9543C215.225 66.1683 214.923 66.4154 214.489 66.7829C213.655 67.6443 213.23 68.0698 212.885 69.1672C212.538 70.2746 212.57 70.935 212.599 72.1892C212.819 74.4644 213.071 75.7322 213.813 77.993C214.177 78.7424 214.41 79.262 214.737 79.7825C215.062 80.3021 215.482 80.8246 216.215 81.5677C216.864 82.2254 217.421 82.6567 218.015 82.9709C218.608 83.2839 219.246 83.4843 220.065 83.6729C220.915 83.7336 221.592 83.6242 222.249 83.5314C222.903 83.4391 223.554 83.2244 224.365 82.7873C225.284 82.2916 225.838 81.9148 226.301 81.5133C226.766 81.1111 227.142 80.6828 227.709 80.0728C229.081 78.1282 229.694 76.99 230.571 74.879C230.966 73.6882 231.191 73.0663 231.183 71.9057C231.175 70.7556 230.893 70.2241 230.348 69.1564C230.041 68.6781 229.825 68.3535 229.573 68.0524C229.321 67.7517 229.03 67.471 228.573 67.0844C226.457 65.4551 225.244 64.8369 222.97 64.2823Z"
        fill="#FF7518" />
    <path
        d="M213.932 70.692C214.122 74.8502 215.461 81.2358 220.335 81.6342C225.123 82.7757 227.639 77.7978 229.748 72.9446C223.558 70.5682 220.761 70.215 213.932 70.692Z"
        fill="#C22F07" />
    <path
        d="M215.079 76.8387C215.839 79.649 217.118 80.9542 220.214 81.7141C223.23 82.1668 224.684 81.5471 226.775 78.5892C225.957 77.6638 225.365 77.2873 224.19 76.9278C222.791 76.8125 222.097 76.996 220.927 77.7139C220.222 76.8045 219.704 76.3899 218.231 76.0358C216.752 75.8196 216.096 76.0668 215.079 76.8387Z"
        fill="#F4551D" />
    <path
        d="M248.231 112.246C248.231 127.459 231.489 139.793 210.836 139.793C190.184 139.793 173.441 127.459 173.441 112.246C173.018 85.7087 189.856 75.8909 210.836 84.6985C231.489 84.6985 248.231 97.0317 248.231 112.246Z"
        fill="#FADA3A" />
    <path fill-rule="evenodd" clip-rule="evenodd"
        d="M187.204 31.9266C187.628 31.6755 187.893 31.5356 187.893 31.5356C187.856 31.8203 187.832 32.0963 187.821 32.3637C187.756 33.9429 188.106 35.2373 188.419 36.3901C188.783 37.7344 188.889 38.9592 188.427 40.1436C187.982 41.2824 187.389 42.156 186.412 42.7027C185.435 43.2495 184.359 43.3512 183.422 42.9856C182.484 42.62 181.762 41.817 181.413 40.7532C181.065 39.6895 181.119 38.4521 181.564 37.3134C182.495 34.9289 185.764 32.7809 187.204 31.9266ZM187.162 32.7522C186.589 33.1017 186.028 33.4794 185.478 33.8841C184.785 34.3972 184.071 34.9912 183.466 35.6308C182.854 36.2769 182.394 36.9262 182.153 37.5431C181.782 38.4921 181.737 39.5232 182.028 40.4097C182.318 41.2961 182.92 41.9653 183.701 42.27C184.482 42.5746 185.379 42.4899 186.193 42.0343C187.007 41.5787 187.422 40.7609 187.793 39.8119C188.128 38.9525 188.177 38.1141 187.793 36.6917L187.784 36.6619C187.783 36.6572 187.782 36.6524 187.78 36.6476C187.493 35.5831 187.148 34.3064 187.162 32.7522Z"
        fill="#42AAEB" />
    <path
        d="M187.162 32.7522C186.589 33.1017 186.028 33.4794 185.478 33.8841C184.785 34.3972 184.071 34.9912 183.466 35.6308C182.854 36.2769 182.394 36.9262 182.153 37.5431C181.782 38.4921 181.737 39.5232 182.028 40.4097C182.318 41.2961 182.92 41.9653 183.701 42.27C184.482 42.5746 185.379 42.4899 186.193 42.0343C187.007 41.5787 187.422 40.7609 187.793 39.8119C188.128 38.9525 188.177 38.1141 187.793 36.6917L187.784 36.6619L187.78 36.6476C187.493 35.5831 187.148 34.3064 187.162 32.7522Z"
        fill="#42AAEB" />
    <path fill-rule="evenodd" clip-rule="evenodd"
        d="M178.686 38.5259C179.035 38.3194 179.253 38.2044 179.253 38.2044C179.222 38.4385 179.203 38.6654 179.194 38.8853C179.14 40.1839 179.428 41.2483 179.685 42.1962C179.985 43.3017 180.072 44.3089 179.692 45.2828C179.326 46.2192 178.839 46.9376 178.035 47.3872C177.231 47.8367 176.347 47.9204 175.576 47.6198C174.805 47.3191 174.211 46.6588 173.925 45.7841C173.638 44.9094 173.683 43.8919 174.048 42.9554C174.814 40.9947 177.502 39.2283 178.686 38.5259ZM178.652 39.2048C178.181 39.4922 177.719 39.8028 177.267 40.1356C176.697 40.5575 176.11 41.0459 175.612 41.5719C175.109 42.1032 174.731 42.6371 174.533 43.1444C174.228 43.9247 174.191 44.7726 174.43 45.5016C174.668 46.2305 175.163 46.7808 175.806 47.0313C176.448 47.2818 177.185 47.2121 177.855 46.8375C178.525 46.4629 178.866 45.7904 179.171 45.01C179.446 44.3033 179.487 43.6139 179.171 42.4443L179.163 42.4198C179.162 42.4159 179.161 42.4119 179.16 42.408C178.924 41.5326 178.64 40.4828 178.652 39.2048Z"
        fill="#42AAEB" />
    <path
        d="M178.652 39.2048C178.181 39.4922 177.719 39.8028 177.267 40.1356C176.697 40.5575 176.11 41.0459 175.612 41.5719C175.109 42.1032 174.731 42.6371 174.533 43.1444C174.228 43.9247 174.191 44.7726 174.43 45.5016C174.668 46.2305 175.163 46.7808 175.806 47.0313C176.448 47.2818 177.185 47.2121 177.855 46.8375C178.525 46.4629 178.866 45.7904 179.171 45.01C179.446 44.3033 179.487 43.6139 179.171 42.4443L179.163 42.4198L179.16 42.408C178.924 41.5326 178.64 40.4828 178.652 39.2048Z"
        fill="#42AAEB" />
    <path
        d="M187.162 32.7522C186.589 33.1017 186.028 33.4794 185.478 33.8841C184.785 34.3972 184.071 34.9912 183.466 35.6308C182.854 36.2769 182.394 36.9262 182.153 37.5431C181.782 38.4921 181.737 39.5232 182.028 40.4097C182.318 41.2961 182.92 41.9653 183.701 42.27C184.482 42.5746 185.379 42.4899 186.193 42.0343C187.007 41.5787 187.422 40.7609 187.793 39.8119C188.128 38.9525 188.177 38.1141 187.793 36.6917L187.784 36.6619L187.78 36.6476C187.493 35.5831 187.148 34.3064 187.162 32.7522Z"
        fill="#42AAEB" />
    <path
        d="M178.652 39.2048C178.181 39.4922 177.719 39.8028 177.267 40.1356C176.697 40.5575 176.11 41.0459 175.612 41.5719C175.109 42.1032 174.731 42.6371 174.533 43.1444C174.228 43.9247 174.191 44.7726 174.43 45.5016C174.668 46.2305 175.163 46.7808 175.806 47.0313C176.448 47.2818 177.185 47.2121 177.855 46.8375C178.525 46.4629 178.866 45.7904 179.171 45.01C179.446 44.3033 179.487 43.6139 179.171 42.4443L179.163 42.4198L179.16 42.408C178.924 41.5326 178.64 40.4828 178.652 39.2048Z"
        fill="#42AAEB" />
    <path
        d="M217.692 100.609C217.186 98.1134 218.798 95.6811 221.294 95.1759L271.004 85.1141C273.5 84.6089 275.934 86.2223 276.441 88.7175L277.358 93.2357C277.865 95.731 276.252 98.1633 273.756 98.6685L224.046 108.73C221.55 109.235 219.116 107.622 218.61 105.127L217.692 100.609Z"
        fill="#AB633E" />
    <path d="M275.443 107.348L295.112 103.837L296.196 109.887L276.527 113.398L275.443 107.348Z"
        fill="#D9D9D9" />
    <path
        d="M296.196 109.887C296.495 111.558 292.335 113.698 286.903 114.668C281.472 115.637 276.826 115.069 276.527 113.398C276.227 111.727 280.388 109.587 285.819 108.617C291.251 107.647 295.897 108.216 296.196 109.887Z"
        fill="#999999" />
    <path
        d="M295.112 103.837C295.411 105.507 291.251 107.647 285.819 108.617C280.388 109.587 275.742 109.018 275.443 107.348C275.144 105.677 279.303 103.536 284.735 102.566C290.166 101.597 294.813 102.166 295.112 103.837Z"
        fill="#D9D9D9" />
    <path d="M278.246 100.668L291.288 98.3887L292.016 102.368L278.973 104.648L278.246 100.668Z"
        fill="#D9D9D9" />
    <path
        d="M291.286 98.3886C291.487 99.4875 288.731 100.889 285.129 101.518C281.527 102.148 278.445 101.767 278.244 100.668C278.043 99.5692 280.8 98.1681 284.401 97.5386C288.003 96.9091 291.085 97.2897 291.286 98.3886Z"
        fill="#D9D9D9" />
    <path
        d="M272.421 84.5508C272.163 82.8895 273.288 81.3296 274.946 81.0497L289.001 78.677C290.721 78.3867 292.336 79.5842 292.592 81.3091C293.237 85.6558 293.997 89.7043 294.939 94.986C295.241 96.6791 294.089 98.2867 292.389 98.5502L278.056 100.772C276.378 101.032 274.807 99.8827 274.546 98.2054L272.421 84.5508Z"
        fill="#D9D9D9" />
    <path
        d="M269.33 71.1563C268.485 70.5581 268.474 69.4122 269.497 69.254C275.469 68.3306 290.16 73.8444 292.24 80.3282C292.492 81.1117 291.839 81.8126 291.017 81.8614L277.941 82.6372C277.113 82.6863 276.403 82.067 276.266 81.2484C275.685 77.7778 274.044 74.4948 269.33 71.1563Z"
        fill="#D9D9D9" />
    <path
        d="M188.299 92.0849C192.498 84.7735 198.988 84.8378 205.645 86.9301C215.178 89.9262 228.582 93.631 227.906 100.582C227.23 107.533 206.673 108.099 196.934 106.502C187.513 104.7 184.961 99.0376 188.299 92.0849Z"
        fill="#FADA3A" />
    <path
        d="M188.299 92.0849C192.498 84.7735 198.988 84.8378 205.645 86.9301C215.178 89.9262 228.582 93.631 227.906 100.582C227.23 107.533 206.673 108.099 196.934 106.502C187.513 104.7 184.961 99.0376 188.299 92.0849Z"
        fill="#FADA3A" />
    <path
        d="M205.646 86.9304C215.178 89.9265 228.583 93.6312 227.907 100.582C227.231 107.533 206.673 108.1 196.935 106.502"
        stroke="#ECC234" stroke-width="2" stroke-linecap="round" />
    <path
        d="M195.532 57.252C195.15 57.2028 194.758 57.3106 194.444 57.5448C194.13 57.7795 193.92 58.1213 193.859 58.502C193.797 58.8828 193.89 59.2733 194.114 59.5945C194.339 59.9154 194.677 60.1407 195.056 60.2139C195.056 60.2139 195.056 60.2139 195.056 60.2139C195.318 60.2646 195.564 60.3143 195.825 60.3684C200.49 61.2347 204.324 63.1821 207.857 66.3034C208.059 66.4737 208.251 66.6379 208.453 66.8118C208.855 67.1584 209.373 67.326 209.901 67.2701C210.429 67.2146 210.922 66.9403 211.266 66.5149C211.61 66.0895 211.775 65.5501 211.719 65.0228C211.664 64.4951 211.392 64.0227 210.969 63.7021C210.969 63.7021 210.969 63.7021 210.969 63.7021C210.746 63.5325 210.532 63.3723 210.307 63.2047C206.45 60.1248 201.242 57.8932 196.352 57.3642C196.073 57.3238 195.811 57.2884 195.532 57.252Z"
        fill="black" />
    <path
        d="M194.661 67.435C194.347 67.6566 194.131 68.0005 194.057 68.3847C193.984 68.7693 194.058 69.1627 194.269 69.4846C194.48 69.8066 194.811 70.0325 195.192 70.119C195.574 70.2051 195.976 70.1448 196.305 69.9449C196.305 69.9449 196.305 69.9449 196.305 69.9449C196.517 69.8158 196.718 69.696 196.931 69.5711C200.696 67.216 204.435 66.4484 208.724 67.1388C208.964 67.1705 209.191 67.2031 209.434 67.2392C209.959 67.3174 210.486 67.1815 210.901 66.8513C211.317 66.5216 211.586 66.0246 211.648 65.4798C211.711 64.935 211.561 64.39 211.231 63.975C210.901 63.5593 210.418 63.3077 209.889 63.2652C209.623 63.2431 209.372 63.2248 209.104 63.2072C204.445 62.6517 198.943 64.2093 195.298 66.9947C195.08 67.1428 194.876 67.2844 194.661 67.435Z"
        fill="black" />
    <path
        d="M250.826 63.3613C251.21 63.401 251.567 63.5957 251.819 63.8956C252.07 64.1959 252.197 64.5768 252.169 64.9615C252.141 65.3462 251.962 65.7051 251.67 65.9664C251.378 66.2272 250.997 66.369 250.611 66.3536C250.611 66.3536 250.611 66.3536 250.611 66.3536C250.344 66.3428 250.093 66.3348 249.828 66.3278C245.088 66.1026 240.91 67.1199 236.755 69.3487C236.52 69.4682 236.296 69.5842 236.059 69.7073C235.589 69.9526 235.045 69.9969 234.545 69.8216C234.044 69.6468 233.627 69.2668 233.389 68.7739C233.152 68.281 233.114 67.718 233.29 67.2176C233.464 66.7166 233.838 66.3191 234.323 66.1039C234.323 66.1039 234.323 66.1039 234.323 66.1039C234.578 65.9899 234.823 65.8828 235.081 65.7713C239.541 63.6569 245.121 62.6776 250.003 63.2829C250.284 63.3074 250.547 63.3329 250.826 63.3613Z"
        fill="black" />
    <path
        d="M249.341 73.4721C249.597 73.76 249.728 74.1442 249.712 74.5351C249.695 74.9262 249.532 75.292 249.253 75.5571C248.974 75.8222 248.601 75.9664 248.209 75.9631C247.818 75.9596 247.441 75.8088 247.167 75.5389C247.167 75.5389 247.167 75.5389 247.167 75.5389C246.989 75.3645 246.821 75.2019 246.643 75.0316C243.517 71.8764 240.053 70.2728 235.721 69.9627C235.479 69.9384 235.251 69.9181 235.007 69.8977C234.478 69.8536 233.995 69.6005 233.667 69.1839C233.338 68.7679 233.19 68.2225 233.254 67.6778C233.318 67.1332 233.588 66.637 234.005 66.3086C234.421 65.9796 234.949 65.8453 235.474 65.9251C235.474 65.9251 235.474 65.9251 235.474 65.9251C235.738 65.9646 235.986 66.0041 236.251 66.0484C240.913 66.5748 245.912 69.3513 248.822 72.8976C249 73.0918 249.167 73.2764 249.341 73.4721Z"
        fill="black" />
    <path
        d="M333.508 141.097C333.756 137.74 337.48 134.733 342.384 134.27L342.834 131.32L357.165 132.612C357.411 138.159 357.221 140.647 356.166 143.723L356.083 143.715C355.097 147.217 350.142 149.61 344.387 149.182C337.678 148.553 332.474 144.83 333.508 141.097Z"
        fill="#F47112" />
    <path
        d="M395.005 141.865C394.757 138.509 391.033 135.501 386.129 135.039L385.679 132.088L371.348 133.38C371.102 138.927 371.292 141.415 372.347 144.491L372.43 144.484C373.416 147.985 378.371 150.378 384.126 149.951C390.835 149.321 396.039 145.598 395.005 141.865Z"
        fill="#F47112" />
    <path
        d="M376.236 107.238C376.368 100.369 382.882 93.3989 389.847 91.03C399.358 87.7948 416.206 88.668 417.635 95.1921C419.274 101.912 404.938 113.131 395.782 115.363C386.626 117.595 377.875 113.957 376.236 107.238Z"
        fill="#FADA3A" />
    <path
        d="M366.468 0.118517C369.247 -0.552269 372.214 1.68859 373.405 5.21408C373.656 5.72961 373.864 6.28242 374.018 6.86656C374.278 7.43627 374.492 8.0493 374.648 8.69692C374.724 9.01028 374.784 9.32257 374.829 9.6322C374.842 9.68107 374.854 9.73019 374.866 9.77943C375.263 11.4221 375.289 13.0235 375.01 14.3984C398.949 19.8919 415.576 40.2164 413.305 62.171C416.748 66.5646 418.147 72.0301 417.416 77.7074C415.657 91.36 402.009 96.9688 385.654 99.0431C369.299 101.117 356.727 102.096 333.958 94.7288C318.25 89.6465 306.872 81.9003 306 67.8608C306.321 61.2654 309.571 55.3987 314.645 51.1097C314.669 50.9 314.694 50.6901 314.721 50.4801C317.262 30.7479 334.353 16.0152 355.491 13.3799C353.916 10.8255 353.613 8.01191 354.598 6.25393C354.722 5.9403 354.892 5.64862 355.11 5.3858C356.528 3.67376 359.515 3.72359 362.266 5.33405C362.418 4.85661 362.615 4.40474 362.851 3.98632C363.428 2.02565 364.717 0.54109 366.468 0.118517Z"
        fill="#FADA3A" />
    <path
        d="M345.642 71.81C345.073 74.4568 341.422 75.9174 337.487 75.0723C333.552 74.2271 330.824 71.3963 331.393 68.7495C331.962 66.1027 335.613 64.6421 339.548 65.4873C343.483 66.3324 346.211 69.1632 345.642 71.81Z"
        fill="#F99091" />
    <path
        d="M409.363 77.4504C408.894 80.1168 405.301 81.7142 401.337 81.0183C397.373 80.3223 394.54 77.5966 395.008 74.9302C395.477 72.2638 399.07 70.6664 403.034 71.3623C406.998 72.0582 409.832 74.784 409.363 77.4504Z"
        fill="#F99091" />
    <path fill-rule="evenodd" clip-rule="evenodd"
        d="M372.97 64.2823C370.62 64.1444 369.292 64.384 366.793 65.3213C366.243 65.5572 365.883 65.7405 365.554 65.9543C365.225 66.1683 364.923 66.4154 364.489 66.7829C363.655 67.6443 363.23 68.0698 362.885 69.1672C362.538 70.2746 362.57 70.935 362.599 72.1892C362.819 74.4644 363.071 75.7322 363.813 77.993C364.177 78.7424 364.41 79.262 364.737 79.7825C365.062 80.3021 365.482 80.8246 366.215 81.5677C366.864 82.2254 367.421 82.6567 368.015 82.9709C368.608 83.2839 369.246 83.4843 370.065 83.6729C370.915 83.7336 371.592 83.6242 372.249 83.5314C372.903 83.4391 373.554 83.2244 374.365 82.7873C375.284 82.2916 375.838 81.9148 376.301 81.5133C376.766 81.1111 377.142 80.6828 377.709 80.0728C379.081 78.1282 379.694 76.99 380.571 74.879C380.966 73.6882 381.191 73.0663 381.183 71.9057C381.175 70.7556 380.893 70.2241 380.348 69.1564C380.041 68.6781 379.825 68.3535 379.573 68.0524C379.321 67.7517 379.03 67.471 378.573 67.0844C376.457 65.4551 375.244 64.8369 372.97 64.2823Z"
        fill="#FF7518" />
    <path
        d="M363.932 70.692C364.122 74.8502 365.461 81.2358 370.335 81.6342C375.123 82.7757 377.639 77.7977 379.748 72.9446C373.558 70.5682 370.761 70.215 363.932 70.692Z"
        fill="#C22F07" />
    <path
        d="M365.079 76.8387C365.839 79.649 367.118 80.9542 370.214 81.7141C373.23 82.1668 374.684 81.5471 376.775 78.5892C375.957 77.6638 375.365 77.2873 374.19 76.9278C372.791 76.8125 372.097 76.996 370.927 77.7139C370.222 76.8045 369.704 76.3899 368.231 76.0358C366.752 75.8196 366.096 76.0668 365.079 76.8387Z"
        fill="#F4551D" />
    <path
        d="M398.231 112.246C398.231 127.459 381.489 139.793 360.836 139.793C340.184 139.793 323.441 127.459 323.441 112.246C323.018 85.7087 339.856 75.8909 360.836 84.6985C381.489 84.6985 398.231 97.0317 398.231 112.246Z"
        fill="#FADA3A" />
    <path fill-rule="evenodd" clip-rule="evenodd"
        d="M337.204 31.9266C337.628 31.6755 337.893 31.5356 337.893 31.5356C337.856 31.8203 337.832 32.0963 337.821 32.3637C337.756 33.9429 338.106 35.2373 338.419 36.3901C338.783 37.7344 338.889 38.9592 338.427 40.1436C337.982 41.2823 337.389 42.156 336.412 42.7027C335.435 43.2495 334.359 43.3512 333.422 42.9856C332.484 42.62 331.762 41.817 331.413 40.7532C331.065 39.6895 331.119 38.4521 331.564 37.3134C332.495 34.9289 335.764 32.7809 337.204 31.9266ZM337.162 32.7522C336.589 33.1017 336.028 33.4794 335.478 33.8841C334.785 34.3972 334.071 34.9912 333.466 35.6308C332.854 36.2769 332.394 36.9262 332.153 37.5431C331.782 38.4921 331.737 39.5232 332.028 40.4097C332.318 41.2961 332.92 41.9653 333.701 42.27C334.482 42.5746 335.379 42.4899 336.193 42.0343C337.007 41.5787 337.422 40.7609 337.793 39.8119C338.128 38.9525 338.177 38.1141 337.793 36.6917L337.784 36.6619C337.783 36.6572 337.782 36.6524 337.78 36.6476C337.493 35.5831 337.148 34.3064 337.162 32.7522Z"
        fill="#42AAEB" />
    <path
        d="M337.162 32.7522C336.589 33.1017 336.028 33.4794 335.478 33.8841C334.785 34.3972 334.071 34.9912 333.466 35.6308C332.854 36.2769 332.394 36.9262 332.153 37.5431C331.782 38.4921 331.737 39.5232 332.028 40.4097C332.318 41.2961 332.92 41.9653 333.701 42.27C334.482 42.5746 335.379 42.4899 336.193 42.0343C337.007 41.5787 337.422 40.7609 337.793 39.8119C338.128 38.9525 338.177 38.1141 337.793 36.6917L337.784 36.6619L337.78 36.6476C337.493 35.5831 337.148 34.3064 337.162 32.7522Z"
        fill="#42AAEB" />
    <path fill-rule="evenodd" clip-rule="evenodd"
        d="M328.686 38.5259C329.035 38.3194 329.253 38.2044 329.253 38.2044C329.222 38.4385 329.203 38.6654 329.194 38.8853C329.14 40.1839 329.428 41.2483 329.685 42.1962C329.985 43.3017 330.072 44.3089 329.692 45.2828C329.326 46.2192 328.839 46.9376 328.035 47.3872C327.231 47.8367 326.347 47.9204 325.576 47.6198C324.805 47.3191 324.211 46.6588 323.925 45.7841C323.638 44.9094 323.683 43.8919 324.048 42.9554C324.814 40.9947 327.502 39.2283 328.686 38.5259ZM328.652 39.2048C328.181 39.4922 327.719 39.8028 327.267 40.1356C326.697 40.5575 326.11 41.0459 325.612 41.5719C325.109 42.1031 324.731 42.6371 324.533 43.1444C324.228 43.9247 324.191 44.7726 324.43 45.5016C324.668 46.2305 325.163 46.7808 325.806 47.0313C326.448 47.2818 327.185 47.2121 327.855 46.8375C328.525 46.4628 328.866 45.7904 329.171 45.01C329.446 44.3033 329.487 43.6139 329.171 42.4443L329.163 42.4198C329.162 42.4159 329.161 42.4119 329.16 42.408C328.924 41.5326 328.64 40.4828 328.652 39.2048Z"
        fill="#42AAEB" />
    <path
        d="M328.652 39.2048C328.181 39.4922 327.719 39.8028 327.267 40.1356C326.697 40.5575 326.11 41.0459 325.612 41.5719C325.109 42.1031 324.731 42.6371 324.533 43.1444C324.228 43.9247 324.191 44.7726 324.43 45.5016C324.668 46.2305 325.163 46.7808 325.806 47.0313C326.448 47.2818 327.185 47.2121 327.855 46.8375C328.525 46.4628 328.866 45.7904 329.171 45.01C329.446 44.3033 329.487 43.6139 329.171 42.4443L329.163 42.4198L329.16 42.408C328.924 41.5326 328.64 40.4828 328.652 39.2048Z"
        fill="#42AAEB" />
    <path
        d="M337.162 32.7522C336.589 33.1017 336.028 33.4794 335.478 33.8841C334.785 34.3972 334.071 34.9912 333.466 35.6308C332.854 36.2769 332.394 36.9262 332.153 37.5431C331.782 38.4921 331.737 39.5232 332.028 40.4097C332.318 41.2961 332.92 41.9653 333.701 42.27C334.482 42.5746 335.379 42.4899 336.193 42.0343C337.007 41.5787 337.422 40.7609 337.793 39.8119C338.128 38.9525 338.177 38.1141 337.793 36.6917L337.784 36.6619L337.78 36.6476C337.493 35.5831 337.148 34.3064 337.162 32.7522Z"
        fill="#42AAEB" />
    <path
        d="M328.652 39.2048C328.181 39.4922 327.719 39.8028 327.267 40.1356C326.697 40.5575 326.11 41.0459 325.612 41.5719C325.109 42.1031 324.731 42.6371 324.533 43.1444C324.228 43.9247 324.191 44.7726 324.43 45.5016C324.668 46.2305 325.163 46.7808 325.806 47.0313C326.448 47.2818 327.185 47.2121 327.855 46.8375C328.525 46.4628 328.866 45.7904 329.171 45.01C329.446 44.3033 329.487 43.6139 329.171 42.4443L329.163 42.4198L329.16 42.408C328.924 41.5326 328.64 40.4828 328.652 39.2048Z"
        fill="#42AAEB" />
    <path
        d="M399.379 64.2161C399.126 66.2989 398.226 68.0807 396.913 69.4196C395.273 71.0919 392.992 72.0486 390.56 71.7541C388.108 71.4572 386.176 70.0161 384.948 67.9709C383.983 66.3623 383.408 64.3747 383.658 62.3126C383.9 60.3148 384.99 58.5834 386.246 57.265C387.936 55.492 390.088 54.6264 392.599 54.9305C395.087 55.2317 396.985 56.6593 398.211 58.7137C399.143 60.2759 399.624 62.1929 399.379 64.2161Z"
        fill="#040301" />
    <path
        d="M396.239 61.0139C396.108 62.089 395.193 62.8624 394.194 62.7415C393.195 62.6205 392.491 61.651 392.621 60.5759C392.752 59.5009 393.667 58.7274 394.666 58.8484C395.665 58.9693 396.369 59.9389 396.239 61.0139Z"
        fill="white" />
    <path
        d="M345.532 57.252C345.15 57.2028 344.758 57.3106 344.444 57.5448C344.13 57.7795 343.92 58.1213 343.859 58.502C343.797 58.8828 343.89 59.2733 344.114 59.5945C344.339 59.9154 344.677 60.1407 345.056 60.2139C345.056 60.2139 345.056 60.2139 345.056 60.2139C345.318 60.2646 345.564 60.3143 345.825 60.3684C350.49 61.2347 354.324 63.1821 357.857 66.3034C358.059 66.4737 358.251 66.6379 358.453 66.8118C358.855 67.1584 359.373 67.326 359.901 67.2701C360.429 67.2146 360.922 66.9403 361.266 66.5149C361.61 66.0895 361.775 65.5501 361.719 65.0228C361.664 64.4951 361.392 64.0227 360.969 63.7021C360.969 63.7021 360.969 63.7021 360.969 63.7021C360.746 63.5325 360.532 63.3723 360.307 63.2047C356.45 60.1248 351.242 57.8932 346.352 57.3642C346.073 57.3238 345.811 57.2884 345.532 57.252Z"
        fill="black" />
    <path
        d="M344.661 67.435C344.347 67.6566 344.131 68.0005 344.057 68.3847C343.984 68.7693 344.058 69.1627 344.269 69.4846C344.48 69.8066 344.811 70.0325 345.192 70.119C345.574 70.2051 345.976 70.1448 346.305 69.9449C346.305 69.9449 346.305 69.9449 346.305 69.9449C346.517 69.8158 346.718 69.696 346.931 69.5711C350.696 67.216 354.435 66.4484 358.724 67.1388C358.964 67.1705 359.191 67.2031 359.434 67.2392C359.959 67.3174 360.486 67.1815 360.901 66.8513C361.317 66.5216 361.586 66.0246 361.648 65.4798C361.711 64.935 361.561 64.39 361.231 63.975C360.901 63.5593 360.418 63.3077 359.889 63.2652C359.623 63.2431 359.372 63.2248 359.104 63.2072C354.445 62.6517 348.943 64.2093 345.298 66.9947C345.08 67.1428 344.876 67.2844 344.661 67.435Z"
        fill="black" />
    <path
        d="M333.706 55.9109C332.444 50.8156 328.184 48.1261 324.798 50.4525C314.882 57.2641 312.994 61.4753 309.124 71.4535C308.422 73.2619 307.139 78.2687 308.762 80.1334C310.385 81.9982 318.357 90.0749 327.779 96.9613C328.846 97.9059 331.284 93.3199 332.148 92.4027C334.527 87.2434 336.53 84.7467 342.311 81.6152C343.064 80.8153 343.19 79.4979 342.622 78.3578L335.076 64.3658C334.519 60.8225 334.577 59.4264 333.706 55.9109Z"
        fill="#FFFFFF" />
    <path
        d="M333.706 55.9109C332.444 50.8156 328.184 48.1261 324.798 50.4525C314.882 57.2641 312.994 61.4753 309.124 71.4535C308.422 73.2619 307.139 78.2687 308.762 80.1334C310.385 81.9982 318.357 90.0749 327.779 96.9613C328.846 97.9059 331.284 93.3199 332.148 92.4027C334.527 87.2434 336.53 84.7467 342.311 81.6152C343.064 80.8153 343.19 79.4979 342.622 78.3578L335.076 64.3658C334.519 60.8225 334.577 59.4264 333.706 55.9109Z"
        stroke="#E6E6E6" stroke-width="2" stroke-linecap="round" />
    <path
        d="M341.611 103.542C346.414 96.6126 343.572 90.7779 338.827 85.6619C332.031 78.3359 322.935 67.8166 316.945 71.4089C310.956 75.0012 319.263 93.8142 324.883 101.926C330.553 109.663 336.762 109.54 341.611 103.542Z"
        fill="#FADA3A" />
    <path
        d="M341.611 103.542C346.414 96.6126 343.572 90.7779 338.827 85.6619C332.031 78.3359 322.935 67.8166 316.945 71.4089C310.956 75.0012 319.263 93.8142 324.883 101.926C330.553 109.663 336.762 109.54 341.611 103.542Z"
        fill="#FADA3A" />
    <path d="M326.5 56C322.383 58.5005 320 63 320 68" stroke="#E6E6E6" stroke-width="2"
        stroke-linecap="round" />
    <path d="M440.876 34.0831L422.543 39.3926" stroke="#040301" stroke-width="2"
        stroke-linecap="round" stroke-linejoin="round" />
    <path d="M441.56 52.5861L422.12 50.0347" stroke="#040301" stroke-width="2"
        stroke-linecap="round" stroke-linejoin="round" />
    <path d="M431.254 17.0001L416.186 29.5459" stroke="#040301" stroke-width="2"
        stroke-linecap="round" stroke-linejoin="round" />
</svg>