<svg width="202" height="205" viewBox="0 0 202 205" fill="none" xmlns="http://www.w3.org/2000/svg">
    <path
        d="M49.1229 175.498C51.8401 172.696 57.3873 172.789 62.0913 176.022L64.6856 173.731L76.4655 185.532C72.5585 190.65 70.5396 192.722 67.3139 194.674L67.2459 194.606C63.7655 196.988 57.5805 195.434 52.7817 190.776C47.2853 185.23 45.4277 178.05 49.1229 175.498Z"
        fill="#F47112" />
    <path
        d="M118.47 193.553C119.663 199.459 113.932 205.098 107.241 204.96C100.485 205.5 95.8441 200.474 96.715 194.255C97.5016 188.639 101.277 181.97 107.241 184.251C113.207 181.619 117.417 185.831 118.47 193.553Z"
        fill="#F47112" />
    <path
        d="M164.786 151.082C165.201 142.662 159.514 133.742 152.186 131.549C143.36 129.275 134.467 134.181 132.322 142.509C130.177 150.836 135.593 159.43 144.419 161.705C153.245 163.98 161.277 158.628 164.786 151.082Z"
        fill="#FADA3A" />
    <path
        d="M141.101 157.751C141.101 175.391 121.7 189.692 97.768 189.692C73.8357 189.692 54.4347 175.391 54.4347 157.751C54.4347 140.11 73.8357 125.81 97.768 125.81C121.7 125.81 141.101 140.11 141.101 157.751Z"
        fill="#FADA3A" />
    <path
        d="M69.6462 146.792C70.5475 156.248 65.7639 164.439 58.9618 165.088C52.1596 165.737 45.9148 158.597 45.0135 149.142C44.1123 139.686 48.8959 131.494 55.698 130.846C62.5002 130.197 68.745 137.336 69.6462 146.792Z"
        fill="#FADA3A" />
    <path
        d="M96.3116 17.3517C99.6555 16.0736 103.697 18.3844 105.74 22.5755C106.134 23.176 106.481 23.8298 106.766 24.5312C107.179 25.1977 107.542 25.9254 107.84 26.7053C107.984 27.0826 108.109 27.4612 108.215 27.8387C108.238 27.8975 108.261 27.9566 108.284 28.0159C109.039 29.9939 109.328 31.98 109.202 33.7334C139.803 36.7335 163.699 59.3351 164.39 86.9839C169.368 91.8939 171.979 98.4628 171.979 105.636C171.979 122.885 155.93 132.037 135.954 137.23C115.979 142.423 100.526 145.649 71.0761 140.134C50.759 136.329 35.3931 128.52 32.0655 111.211C31.4089 102.963 34.5065 95.152 40.1209 89.0102C40.1166 88.7459 40.1139 88.481 40.1139 88.2157C40.1139 63.2856 58.9787 42.243 84.8026 35.5883C82.4393 32.6654 81.6129 29.217 82.5541 26.8748C82.6583 26.4651 82.8225 26.0754 83.0509 25.714C84.5389 23.3593 88.2551 22.9438 91.9283 24.5055C92.041 23.8878 92.2128 23.2948 92.4392 22.737C92.842 20.2079 94.2053 18.1568 96.3116 17.3517Z"
        fill="#FADA3A" />
    <path
        d="M86.7755 87.3036C86.9443 89.9271 86.2466 92.3291 84.9389 94.2805C83.3058 96.7177 80.7193 98.4211 77.6585 98.6181C74.5735 98.8167 71.8643 97.4862 69.8824 95.2497C68.3235 93.4907 67.159 91.1747 66.9919 88.5771C66.83 86.0607 67.7726 83.6773 69.0149 81.7641C70.6854 79.1915 73.1344 77.63 76.2953 77.4265C79.4261 77.2249 82.0896 78.5466 84.0714 80.7949C85.5784 82.5045 86.6116 84.755 86.7755 87.3036Z"
        fill="#040301" />
    <path
        d="M82.1733 84.0826C82.2604 85.4368 81.312 86.6001 80.055 86.681C78.798 86.7619 77.7084 85.7298 77.6213 84.3756C77.5342 83.0215 78.4826 81.8581 79.7396 81.7772C80.9966 81.6963 82.0862 82.7284 82.1733 84.0826Z"
        fill="white" />
    <path
        d="M135.39 85.7741C135.559 88.3977 134.861 90.7996 133.554 92.751C131.92 95.1882 129.334 96.8916 126.273 97.0887C123.188 97.2872 120.479 95.9568 118.497 93.7202C116.938 91.9612 115.774 89.6452 115.607 87.0477C115.445 84.5313 116.387 82.1478 117.63 80.2347C119.3 77.662 121.749 76.1005 124.91 75.897C128.041 75.6955 130.704 77.0171 132.686 79.2654C134.193 80.975 135.226 83.2255 135.39 85.7741Z"
        fill="#040301" />
    <path
        d="M130.788 82.5531C130.875 83.9073 129.927 85.0707 128.67 85.1516C127.413 85.2325 126.323 84.2003 126.236 82.8462C126.149 81.492 127.097 80.3286 128.354 80.2477C129.611 80.1668 130.701 81.199 130.788 82.5531Z"
        fill="white" />
    <path
        d="M70.8618 104.374C69.9162 107.631 65.2272 109.133 60.3886 107.728C55.5501 106.323 52.3942 102.542 53.3398 99.2844C54.2853 96.0265 58.9743 94.5248 63.8129 95.9301C68.6514 97.3355 71.8073 101.116 70.8618 104.374Z"
        fill="#F99091" />
    <path
        d="M151.575 96.2253C152.58 99.4652 149.495 103.303 144.683 104.797C139.871 106.291 135.155 104.876 134.15 101.636C133.144 98.3959 136.23 94.5582 141.042 93.0641C145.854 91.5701 150.57 92.9853 151.575 96.2253Z"
        fill="#F99091" />
    <path fill-rule="evenodd" clip-rule="evenodd"
        d="M102.238 87.3467C99.3088 87.6677 97.7199 88.2415 94.8321 89.9221C94.2026 90.3287 93.7963 90.6305 93.435 90.9633C93.0731 91.2967 92.7524 91.665 92.2943 92.2098C91.4451 93.4485 91.0088 94.0632 90.8132 95.491C90.6157 96.932 90.7941 97.7411 91.0918 99.2846C91.8392 102.049 92.4163 103.563 93.8046 106.201C94.4102 107.051 94.8077 107.644 95.3193 108.219C95.8299 108.793 96.4566 109.35 97.5174 110.115C98.4564 110.792 99.2334 111.208 100.033 111.472C100.83 111.735 101.66 111.849 102.71 111.911C103.771 111.808 104.584 111.531 105.376 111.279C106.164 111.028 106.923 110.627 107.831 109.917C108.862 109.113 109.467 108.531 109.955 107.938C110.445 107.344 110.819 106.736 111.392 105.864C112.678 103.175 113.197 101.64 113.838 98.8487C114.076 97.2949 114.223 96.4796 113.971 95.0472C113.721 93.628 113.261 93.0304 112.365 91.8252C111.887 91.2984 111.552 90.9426 111.178 90.6233C110.804 90.3045 110.386 90.0186 109.741 89.6364C106.789 88.0661 105.161 87.5561 102.238 87.3467Z"
        fill="#FF7518" />
    <path
        d="M92.4244 97.1555C93.5285 102.253 96.5173 109.862 102.617 109.335C108.766 109.744 110.829 103.068 112.418 96.6304C104.28 94.9892 100.753 95.138 92.4244 97.1555Z"
        fill="#C22F07" />
    <path
        d="M95.128 104.51C96.6539 107.823 98.5059 109.168 102.486 109.459C106.303 109.388 107.968 108.318 109.931 104.226C108.727 103.254 107.918 102.912 106.393 102.714C104.642 102.864 103.823 103.236 102.53 104.368C101.469 103.392 100.742 102.988 98.8505 102.858C96.9801 102.901 96.222 103.343 95.128 104.51Z"
        fill="#F4551D" />
    <path
        d="M153.081 115.919C153.296 113.265 150.593 111.347 148.16 112.428C128.086 120.838 119.623 125.039 114.435 130.915C108.737 126.245 101.496 123.852 72.7188 120.47C70.4114 120.163 68.4505 122.148 68.7841 124.453L73.1739 154.768C73.4003 156.332 74.644 157.551 76.2115 157.747L111.719 162.187C113.188 162.371 114.535 161.622 115.21 160.429C116.171 161.615 117.874 162.13 119.426 161.407L148.725 147.748C149.868 147.215 150.638 146.109 150.74 144.85L153.081 115.919Z"
        fill="#FBFDFC" />
    <path
        d="M120.926 170.183H120.765C120.109 171.615 117.524 172.684 114.435 172.684C111.346 172.684 108.761 171.615 108.104 170.183H107.943V133.197C107.943 134.973 110.85 136.237 114.435 136.237C117.964 136.237 120.835 134.842 120.924 133.104L120.926 133.021V170.183Z"
        fill="#2987C5" />
    <path
        d="M104.897 133.318C106.641 133.55 107.943 135.038 107.943 136.798V166.251C107.943 168.362 106.094 169.996 103.999 169.734L68.4921 165.294C66.9245 165.098 65.6812 163.878 65.4547 162.314L61.0648 131.999C60.7311 129.695 62.692 127.71 64.9994 128.017L104.897 133.318Z"
        fill="#42AAEB" />
    <path d="M107.943 133.197L108.031 170.227L86.8908 167.595L84.2592 130.564L107.943 133.197Z"
        fill="#42AAEB" />
    <path
        d="M123.011 132.797C121.743 133.36 120.926 134.618 120.926 136.005V164.544C120.926 167.111 123.591 168.809 125.917 167.725L155.216 154.066C156.36 153.533 157.129 152.426 157.231 151.168L159.572 122.237C159.787 119.583 157.084 117.665 154.651 118.746L123.011 132.797Z"
        fill="#43AAEC" />
    <path d="M120.926 133.063V170.227L138.996 161.628L140.926 124.948L120.926 133.063Z"
        fill="#43AAEC" />
    <path
        d="M81.449 145.204C81.9404 152.355 76.5205 160.413 68.7959 163.294C59.4909 166.451 50.0695 163.47 47.7526 156.636C45.4357 149.802 51.1007 141.702 60.4057 138.546C69.7107 135.389 79.1321 138.37 81.449 145.204Z"
        fill="#FADA3A" />
    <path
        d="M139.348 139.807C138.494 146.835 142.387 154.375 148.482 156.703C155.844 159.201 163.69 155.686 166.007 148.851C168.324 142.017 164.234 134.453 156.872 131.955C149.511 129.458 141.665 132.973 139.348 139.807Z"
        fill="#FADA3A" />
    <path
        d="M170.36 39.4913C170.345 39.599 170.323 39.6931 170.294 39.7735C170.195 40.0551 169.956 40.1858 169.579 40.1657L166.659 39.8811C166.524 39.8787 166.416 39.8633 166.336 39.8349C165.994 39.7141 165.84 39.4448 165.875 39.0271L166.003 36.3575L159.159 34.2119L157.08 36.1587C156.901 36.3444 156.701 36.3982 156.48 36.3201C156.379 36.2846 156.269 36.2118 156.15 36.1017L153.947 34.17C153.721 33.9771 153.647 33.77 153.725 33.5487C153.768 33.428 153.855 33.3114 153.985 33.1991L166.972 21.1225C167.582 20.5463 168.078 20.2009 168.457 20.0862C168.837 19.9715 169.218 19.9816 169.601 20.1166C170.043 20.2729 170.355 20.5416 170.538 20.9226C170.727 21.2836 170.811 21.8788 170.789 22.7084L170.36 39.4913ZM166.197 32.2518L166.436 27.3475L162.473 31.0725L166.197 32.2518Z"
        fill="#2663EB" />
    <path
        d="M11.4257 89.7448C11.1563 89.8107 10.9468 89.807 10.7971 89.7338C10.6682 89.6555 10.5579 89.4739 10.4662 89.1888L5.83359 72.5325C5.82346 72.4911 5.81332 72.4496 5.80319 72.4082C5.75252 72.2009 5.75343 72.025 5.80592 71.8804C5.87407 71.71 6.06103 71.5765 6.36681 71.4797L14.046 69.3386C14.1289 69.3183 14.2221 69.2955 14.3258 69.2702C16.025 68.8547 17.4865 68.9036 18.7101 69.417C19.9337 69.9304 20.7406 70.985 21.1308 72.5806C21.3942 73.6582 21.3973 74.5689 21.1399 75.3126C20.8774 76.0357 20.4888 76.6468 19.974 77.146C20.8531 77.2385 21.6662 77.5998 22.4132 78.2297C23.1551 78.8389 23.6553 79.672 23.9137 80.7288C24.3596 82.5524 24.111 84.0956 23.1679 85.3584C22.2198 86.6005 20.7096 87.4749 18.6373 87.9816L11.4257 89.7448ZM12.1254 77.5167L15.1952 76.7332C15.7911 76.5656 16.2322 76.304 16.5187 75.9484C16.8 75.5722 16.8647 75.0732 16.7127 74.4515C16.5657 73.8505 16.2675 73.4842 15.8181 73.3525C15.3893 73.2158 14.9366 73.2057 14.46 73.3222C14.4186 73.3324 14.3771 73.3425 14.3357 73.3526L11.1879 74.2211L12.1254 77.5167ZM14.2134 84.9783L17.4151 84.1955C18.0782 84.0334 18.597 83.7748 18.9714 83.4197C19.3614 83.0388 19.4677 82.4857 19.2904 81.7604C19.1181 81.0558 18.7815 80.6221 18.2804 80.4591C17.8001 80.291 17.3112 80.2678 16.8139 80.3894C16.7724 80.3995 16.731 80.4097 16.6896 80.4198L13.1922 81.3408L14.2134 84.9783Z"
        fill="#2663EB" />
    <path
        d="M185.631 153.907C185.671 154.069 185.657 154.217 185.591 154.351C185.507 154.523 185.303 154.649 184.979 154.727C183.664 154.984 182.5 155.054 181.488 154.937C180.495 154.83 179.463 154.513 178.39 153.986C177.146 153.374 176.101 152.599 175.254 151.661C174.427 150.731 173.819 149.696 173.43 148.553C173.04 147.411 172.903 146.191 173.018 144.893C173.133 143.594 173.524 142.265 174.192 140.906C174.851 139.566 175.659 138.453 176.616 137.569C177.583 136.665 178.638 136.019 179.78 135.629C180.922 135.24 182.114 135.088 183.355 135.175C184.615 135.271 185.867 135.625 187.112 136.237C187.59 136.472 188.016 136.717 188.39 136.972C188.793 137.217 189.157 137.491 189.484 137.794C189.81 138.097 190.113 138.448 190.393 138.847C190.681 139.227 190.976 139.668 191.275 140.172C191.477 140.485 191.522 140.757 191.409 140.987C191.334 141.14 191.201 141.265 191.011 141.362L188.688 142.752C188.451 142.896 188.27 142.95 188.145 142.913C188.05 142.866 187.992 142.838 187.973 142.828C187.801 142.743 187.676 142.611 187.598 142.43C187.308 141.86 186.98 141.39 186.615 141.02C186.269 140.66 185.809 140.339 185.235 140.056C184.66 139.774 184.053 139.631 183.414 139.625C182.803 139.611 182.208 139.734 181.628 139.996C181.019 140.267 180.445 140.662 179.904 141.181C179.393 141.69 178.953 142.318 178.587 143.065C178.22 143.812 177.991 144.543 177.901 145.259C177.829 145.985 177.882 146.652 178.058 147.262C178.205 147.881 178.466 148.437 178.842 148.931C179.246 149.415 179.735 149.798 180.31 150.08C180.922 150.381 181.51 150.563 182.074 150.626C182.637 150.689 183.29 150.617 184.033 150.412C184.338 150.324 184.576 150.322 184.748 150.407C184.921 150.492 185.032 150.653 185.081 150.891L185.631 153.907Z"
        fill="#2663EB" />
    <path d="M199.431 88.0962L183.103 92.8254" stroke="#040301" stroke-width="2"
        stroke-linecap="round" stroke-linejoin="round" />
    <path d="M200.04 104.577L182.725 102.305" stroke="#040301" stroke-width="2"
        stroke-linecap="round" stroke-linejoin="round" />
    <path d="M190.861 72.88L177.439 84.0547" stroke="#040301" stroke-width="2"
        stroke-linecap="round" stroke-linejoin="round" />
</svg>