<svg width="183" height="246" viewBox="0 0 183 246" fill="none" xmlns="http://www.w3.org/2000/svg">
    <path
        d="M80.6792 8.82915C84.4296 6.96981 89.3913 9.20904 92.2352 13.8589C92.7617 14.5137 93.2376 15.2361 93.6471 16.0205C94.2027 16.7501 94.7065 17.5565 95.14 18.4309C95.3498 18.854 95.537 19.2806 95.702 19.7082C95.7357 19.7739 95.7691 19.8401 95.8021 19.9066C96.9017 22.1244 97.4587 24.4034 97.5064 26.4578C133.463 26.5438 163.794 50.1858 167.674 82.2832C174.015 87.4429 177.784 94.7965 178.582 103.143C180.501 123.216 164.066 141.505 141.39 149.77C118.714 158.036 99.8561 157.657 64.9608 154.516C40.8868 152.349 22.1311 144.972 16.332 125.2C14.6501 115.675 17.3872 106.241 23.2396 98.4693C23.2052 98.1621 23.1725 97.8542 23.143 97.5455C20.3699 68.5349 39.9893 41.9489 69.3103 31.3314C66.2341 28.193 64.8885 24.2722 65.7235 21.4418C65.7993 20.9535 65.9471 20.4818 66.1728 20.0358C67.643 17.1302 71.9227 16.2331 76.3724 17.6416C76.4349 16.9103 76.5688 16.2011 76.7703 15.5268C76.958 12.539 78.3167 10.0004 80.6792 8.82915Z"
        fill="#FADA3A" />
    <path
        d="M138.156 89.513C138.645 92.5472 138.1 95.4199 136.795 97.8362C135.165 100.854 132.343 103.124 128.802 103.694C125.233 104.268 121.931 103.022 119.375 100.64C117.365 98.766 115.752 96.2006 115.268 93.1965C114.8 90.2862 115.632 87.4077 116.865 85.0432C118.524 81.8636 121.201 79.774 124.858 79.1855C128.48 78.6025 131.727 79.8441 134.285 82.2399C136.229 84.0616 137.682 86.5655 138.156 89.513Z"
        fill="#040301" />
    <ellipse cx="129.702" cy="86.5311" rx="2.66703" ry="2.87218"
        transform="rotate(-9.14228 129.702 86.5311)" fill="white" />
    <ellipse cx="149.57" cy="105.835" rx="10.6681" ry="7.18046"
        transform="rotate(-22.7041 149.57 105.835)" fill="#F99091" />
    <path fill-rule="evenodd" clip-rule="evenodd"
        d="M100.345 96.7138C96.9701 97.4135 95.1844 98.258 92.0097 100.535C91.3221 101.078 90.8827 101.475 90.4991 101.902C90.115 102.33 89.7827 102.795 89.3099 103.479C88.4592 105.015 88.0197 105.779 87.9508 107.463C87.8812 109.161 88.1789 110.083 88.6971 111.846C89.8747 114.98 90.7149 116.677 92.6244 119.593C93.4239 120.514 93.9526 121.16 94.6121 121.772C95.2704 122.383 96.0619 122.963 97.3819 123.734C98.5501 124.417 99.501 124.816 100.461 125.034C101.419 125.251 102.397 125.291 103.627 125.246C104.85 125.009 105.766 124.596 106.659 124.215C107.549 123.835 108.387 123.283 109.366 122.357C110.477 121.305 111.116 120.562 111.619 119.817C112.122 119.071 112.49 118.323 113.06 117.244C114.258 113.971 114.691 112.128 115.127 108.808C115.231 106.973 115.312 106.008 114.859 104.369C114.41 102.746 113.809 102.101 112.631 100.799C112.016 100.239 111.587 99.8619 111.115 99.5321C110.645 99.2027 110.127 98.9165 109.334 98.5435C105.721 97.0447 103.77 96.6324 100.345 96.7138Z"
        fill="#FF7518" />
    <path
        d="M90.0109 109.221C91.8632 115.03 96.1889 123.552 103.23 122.26C110.434 122.051 112.093 114.052 113.227 106.385C102.957 102.606 99.052 103.293 90.0109 109.221Z"
        fill="#C22F07" />
    <path
        d="M93.9745 117.477C96.1194 121.163 98.4248 122.522 103.091 122.418C107.526 121.91 109.345 120.48 111.175 115.5C109.665 114.503 108.686 114.196 106.888 114.134C104.867 114.504 103.955 115.028 102.575 116.489C101.232 115.471 100.341 115.082 98.1242 115.142C95.9515 115.399 95.1184 115.998 93.9745 117.477Z"
        fill="#F4551D" />
    <path
        d="M56.7685 119.99C57.0397 123.946 52.4945 127.48 46.6164 127.883C40.7384 128.286 35.7534 125.405 35.4822 121.449C35.2111 117.492 39.7563 113.959 45.6344 113.556C51.5124 113.153 56.4973 116.033 56.7685 119.99Z"
        fill="#F99091" />
    <path
        d="M79.7559 98.3545C80.4213 102.489 79.6442 106.409 77.8079 109.711C75.5146 113.835 71.5612 116.946 66.6119 117.743C61.6234 118.546 57.0186 116.864 53.4615 113.629C50.6638 111.086 48.4246 107.597 47.7657 103.503C47.1275 99.5369 48.3055 95.6073 50.0412 92.3764C52.3752 88.0316 56.1261 85.1676 61.2372 84.345C66.2997 83.5303 70.829 85.2055 74.3877 88.4583C77.0936 90.9317 79.1095 94.338 79.7559 98.3545Z"
        fill="#040301" />
    <ellipse cx="68.2261" cy="94.2916" rx="3.6377" ry="3.91392"
        transform="rotate(-9.14228 68.2261 94.2916)" fill="white" />
    <path
        d="M50.0526 146.778C60.4335 147.635 71.4987 153.716 74.8425 160.847C78.4166 169.38 73.1126 176.917 62.9957 177.68C52.8788 178.444 41.78 172.145 38.2059 163.611C34.6318 155.078 39.9357 147.541 50.0526 146.778Z"
        fill="#FADA3A" />
    <path
        d="M55.5875 226.17C55.4312 221.377 60.2481 216.553 67.1215 215.156L68.5941 201.386L87.7967 210.571C88.9847 218.393 89.0924 221.946 88.0639 226.463L87.9456 226.465C87.0798 231.574 80.4263 235.714 72.2135 235.979C62.62 236.102 54.6886 231.614 55.5875 226.17Z"
        fill="#F47112" />
    <path
        d="M55.5875 226.17C55.4312 221.377 60.2481 216.553 67.1215 215.156L68.5941 201.386L87.7967 210.571C88.9847 218.393 89.0924 221.946 88.0639 226.463L87.9456 226.465C87.0798 231.574 80.4263 235.714 72.2135 235.979C62.62 236.102 54.6886 231.614 55.5875 226.17Z"
        fill="#F47112" />
    <path
        d="M145.652 224.692C145.808 219.899 140.991 215.076 134.118 213.679L132.645 199.908L113.443 209.093C112.255 216.915 112.147 220.468 113.175 224.985L113.294 224.987C114.159 230.097 120.813 234.236 129.026 234.501C138.619 234.624 146.551 230.137 145.652 224.692Z"
        fill="#F47112" />
    <path
        d="M103.037 137.625C132.401 136.63 156.799 153.347 157.531 174.962C158.264 196.578 135.052 214.907 105.688 215.901C76.3239 216.896 51.9259 200.179 51.1939 178.564C50.4618 156.948 73.6728 138.62 103.037 137.625Z"
        fill="#FADA3A" />
    <path fill-rule="evenodd" clip-rule="evenodd"
        d="M61.5914 69.9712C81.995 69.9712 98.5354 86.5116 98.5354 106.915C98.5354 121.53 90.0481 134.161 77.7342 140.153C77.8448 140.351 77.9369 140.564 78.0012 140.792L86.9471 172.53C87.3899 174.101 86.4747 175.734 84.9036 176.176L74.9865 178.972C73.4155 179.415 71.7827 178.501 71.3397 176.93L67.5284 163.412C69.793 161.729 71.8889 159.802 73.6646 157.703C79.0262 148.847 75.9092 139.975 66.703 137.886C61.0554 136.605 54.4294 138.176 48.9121 141.625C34.7541 136.452 24.6475 122.864 24.6475 106.915C24.6475 86.5116 41.1878 69.9712 61.5914 69.9712ZM61.5914 78.8377C46.0847 78.8377 33.514 91.4084 33.514 106.915C33.514 122.422 46.0847 134.993 61.5914 134.993C77.0981 134.993 89.6688 122.422 89.6688 106.915C89.6688 91.4084 77.0981 78.8377 61.5914 78.8377Z"
        fill="#52A537" />
    <g opacity="0.4" filter="url(#filter0_f_631_524)">
        <circle cx="61.5911" cy="106.915" r="28.0774" fill="#D8F5FF" />
    </g>
    <path
        d="M73.6643 157.703C66.8007 165.818 55.1914 171.405 47.2869 169.956C38.0807 167.868 34.964 158.995 40.3257 150.14C45.6873 141.284 57.4968 135.798 66.7031 137.887C75.9093 139.975 79.0259 148.847 73.6643 157.703Z"
        fill="#FADA3A" />
    <path d="M123.936 68.4937C126.932 73.5542 130.528 74.5011 137.937 73.8851" stroke="black"
        stroke-width="2" stroke-linecap="round" />
    <path d="M15.8757 72.1587C-8.50624 63.1537 2.35543 51.2541 22.4537 63.1544" stroke="black"
        stroke-width="2" stroke-linecap="round" />
    <path d="M10.4944 83.9796C-6.28989 79.5462 1.8488 68.8891 14.3988 76.591" stroke="black"
        stroke-width="2" stroke-linecap="round" />
    <path
        d="M135.68 133.169C143.635 129.389 155.287 131.961 162.058 139.497C174.079 147.312 183.01 166.988 173.173 173.735C166.402 179.459 145.332 169.444 137.535 160.225C129.739 151.006 128.909 138.893 135.68 133.169Z"
        fill="#FADA3A" />
    <defs>
        <filter id="filter0_f_631_524" x="28.5137" y="73.8379" width="66.1553" height="66.1548"
            filterUnits="userSpaceOnUse" color-interpolation-filters="sRGB">
            <feFlood flood-opacity="0" result="BackgroundImageFix" />
            <feBlend mode="normal" in="SourceGraphic" in2="BackgroundImageFix" result="shape" />
            <feGaussianBlur stdDeviation="2.5" result="effect1_foregroundBlur_631_524" />
        </filter>
    </defs>
</svg>