<svg width="177" height="150" viewBox="0 0 177 150" fill="none" xmlns="http://www.w3.org/2000/svg">
    <path
        d="M82.7048 28.1816C85.8974 27.0869 89.6303 29.3955 91.4181 33.4101C91.7707 33.9886 92.0757 34.6158 92.3212 35.2857C92.6891 35.9271 93.0077 36.6245 93.2629 37.3688C93.3864 37.7289 93.4915 38.0895 93.5788 38.4487C93.5988 38.5048 93.6187 38.5612 93.6381 38.6178C94.2855 40.5057 94.4927 42.3859 94.3162 44.0334C123.054 47.8585 144.833 69.9285 144.582 95.9952C149.112 100.783 151.358 107.056 151.124 113.812C150.561 130.06 135.139 138.158 116.147 142.397C97.1548 146.636 82.4885 149.17 54.9183 143.014C35.8979 138.766 21.6736 130.91 19.1029 114.496C18.7534 106.705 21.9272 99.4489 27.418 93.8469C27.4226 93.5977 27.4287 93.3481 27.4373 93.0982C28.251 69.615 46.7139 50.4095 71.2647 44.9841C69.1332 42.1537 68.4671 38.8784 69.4303 36.7029C69.5419 36.3204 69.7094 35.9587 69.9364 35.6257C71.4154 33.4563 74.9307 33.1862 78.3409 34.7771C78.4673 34.199 78.6485 33.646 78.88 33.1279C79.3422 30.7588 80.6937 28.8712 82.7048 28.1816Z"
        fill="#FADA3A" />
    <path fill-rule="evenodd" clip-rule="evenodd"
        d="M85.6407 95.9147C82.8677 96.0923 81.3467 96.5649 78.5552 98.0242C77.9449 98.3802 77.5494 98.6471 77.1949 98.9451C76.8398 99.2436 76.5221 99.5767 76.0674 100.07C75.2148 101.2 74.7777 101.761 74.5326 103.097C74.2853 104.445 74.4188 105.214 74.6335 106.68C75.2198 109.316 75.6989 110.765 76.8942 113.308C77.4285 114.134 77.7776 114.709 78.235 115.273C78.6915 115.835 79.2581 116.387 80.2247 117.152C81.0802 117.829 81.7944 118.254 82.5365 118.537C83.2762 118.818 84.0526 118.961 85.0394 119.064C86.0429 119.012 86.8205 118.786 87.577 118.583C88.33 118.38 89.0617 118.034 89.9478 117.405C90.9529 116.691 91.5474 116.169 92.0326 115.632C92.5187 115.093 92.8973 114.537 93.4739 113.74C94.7999 111.263 95.3538 109.84 96.0764 107.239C96.3671 105.786 96.5405 105.024 96.3637 103.665C96.1885 102.318 95.7811 101.736 94.9885 100.563C94.5601 100.046 94.2601 99.6972 93.9211 99.3807C93.5826 99.0646 93.2013 98.7776 92.6103 98.3903C89.8958 96.7859 88.3848 96.2365 85.6407 95.9147Z"
        fill="#FF7518" />
    <path
        d="M75.9799 104.733C76.8028 109.58 79.294 116.872 85.0614 116.635C90.8359 117.282 93.0638 111.083 94.8342 105.09C87.2386 103.198 83.9109 103.188 75.9799 104.733Z"
        fill="#C22F07" />
    <path
        d="M78.2122 111.772C79.5084 114.957 81.1955 116.302 84.9321 116.746C88.5304 116.841 90.1444 115.905 92.1674 112.136C91.0744 111.169 90.3274 110.813 88.8991 110.561C87.2436 110.628 86.4562 110.944 85.1898 111.954C84.2325 110.99 83.5652 110.579 81.7887 110.376C80.0252 110.336 79.2924 110.721 78.2122 111.772Z"
        fill="#F4551D" />
    <ellipse cx="47.7113" cy="106.639" rx="8.6015" ry="5.78947"
        transform="rotate(18.1748 47.7113 106.639)" fill="#F99091" />
    <ellipse cx="123.906" cy="106.545" rx="8.6015" ry="5.78947"
        transform="rotate(-15.2594 123.906 106.545)" fill="#F99091" />
    <path d="M55 100L68 87" stroke="black" stroke-width="3" stroke-linecap="round" />
    <path d="M68 100L55 87" stroke="black" stroke-width="3" stroke-linecap="round" />
    <path d="M103 99L116 86" stroke="black" stroke-width="3" stroke-linecap="round" />
    <path d="M116 99L103 86" stroke="black" stroke-width="3" stroke-linecap="round" />
    <path d="M30.2194 37.0577C37.1555 36.8791 39.5782 35.9633 43.1755 28.8673" stroke="#81542A"
        stroke-width="2" stroke-linecap="round" />
    <path d="M41.8105 41.3724C44.0841 39.3095 45.4693 38.323 48.1472 36.8148" stroke="#81542A"
        stroke-width="2" stroke-linecap="round" />
    <path d="M48.2767 44.4318C49.2964 43.5937 49.9163 43.1914 51.1126 42.5735" stroke="#81542A"
        stroke-width="2" stroke-linecap="round" />
    <path
        d="M28.6002 16.5547C32.5548 13.887 36.6017 12.2507 39.9168 11.7292C43.3192 11.194 45.5639 11.8707 46.4952 13.2509C47.4264 14.6314 47.2138 16.9667 45.4431 19.9213C43.718 22.7997 40.6851 25.9392 36.7305 28.6068C32.7759 31.2744 28.729 32.9108 25.414 33.4323C22.0112 33.9676 19.7662 33.2901 18.835 31.9097C17.904 30.5293 18.1171 28.1945 19.8876 25.2402C21.6127 22.3618 24.6456 19.2223 28.6002 16.5547Z"
        stroke="#81542A" stroke-width="2" />
    <path
        d="M23.2922 11.7385C27.0364 9.21277 30.8912 7.70305 34.0647 7.26944C37.3086 6.82624 39.4998 7.5315 40.4465 8.93448C41.393 10.3377 41.2268 12.634 39.6008 15.4761C38.0103 18.2561 35.1667 21.2649 31.4225 23.7906C27.6785 26.3162 23.8242 27.8255 20.6509 28.2591C17.4066 28.7024 15.2152 27.9965 14.2686 26.5933C13.3222 25.1901 13.4888 22.8944 15.1147 20.0525C16.7053 17.2725 19.5482 14.2642 23.2922 11.7385Z"
        stroke="#81542A" stroke-width="2" />
    <path
        d="M15.7105 14.3582C19.2357 11.9802 22.9538 10.6957 26.083 10.4994C29.2394 10.3013 31.5923 11.2064 32.7566 12.9323C33.9208 14.6582 33.8788 17.1789 32.5131 20.0313C31.1592 22.8591 28.5756 25.8255 25.0505 28.2035C21.5251 30.5816 17.8064 31.8666 14.6772 32.0629C11.5209 32.2609 9.16785 31.3557 8.00356 29.63C6.83932 27.9041 6.88136 25.3834 8.24701 22.531C9.601 19.703 12.1851 16.7363 15.7105 14.3582Z"
        stroke="#81542A" stroke-width="2" />
    <path
        d="M35.8988 22.89C38.7384 21.6175 41.5059 21.0238 43.6603 21.0555C45.9048 21.0885 47.095 21.7709 47.4557 22.5757C47.631 22.9669 47.6568 23.4959 47.4222 24.1916C47.1862 24.8914 46.7046 25.6955 45.975 26.5428C44.5174 28.2356 42.1866 29.9646 39.3545 31.2337C36.5229 32.5026 33.8085 33.0353 31.7074 32.9485C29.5336 32.8587 28.3472 32.1417 27.973 31.3068C27.6124 30.502 27.8952 29.1593 29.3642 27.4622C30.7743 25.8332 33.0592 24.1626 35.8988 22.89Z"
        stroke="#81542A" stroke-width="2" />
    <path
        d="M160.892 82.8445C160.785 83.1508 160.665 83.3736 160.533 83.513C160.405 83.6262 160.17 83.6532 159.828 83.594L157.385 83.1708C156.78 83.0661 156.531 82.7116 156.635 82.1073L157.884 76.0718C157.934 75.7828 158.103 75.6633 158.392 75.7133C159.811 75.9591 160.991 75.9469 161.93 75.6766C162.901 75.3847 163.482 74.6869 163.673 73.5833C163.823 72.7162 163.703 72.0053 163.312 71.4504C162.921 70.8955 162.2 70.5271 161.149 70.345C160.019 70.1493 158.841 70.2295 157.616 70.5856C157.44 70.6634 157.286 70.691 157.155 70.6682C157.103 70.6591 157.026 70.6323 156.925 70.5878C156.829 70.5171 156.754 70.3281 156.699 70.0209L156.3 67.6378C156.27 67.4973 156.264 67.3745 156.282 67.2694C156.332 66.9804 156.542 66.7866 156.911 66.6881C157.903 66.427 158.877 66.271 159.834 66.22C160.82 66.1474 161.813 66.1975 162.812 66.3705C163.81 66.5434 164.718 66.8495 165.535 67.2887C166.352 67.7279 167.028 68.278 167.563 68.939C168.098 69.6 168.479 70.3696 168.706 71.2479C168.932 72.1261 168.953 73.1039 168.766 74.1812C168.406 76.257 167.606 77.7556 166.363 78.6772C165.126 79.5724 163.635 79.9772 161.891 79.8916L160.892 82.8445ZM154.966 87.0551C155.103 86.2668 155.504 85.6731 156.168 85.274C156.837 84.8486 157.566 84.7042 158.354 84.8407C159.142 84.9772 159.78 85.3583 160.267 85.984C160.759 86.5833 160.936 87.2771 160.8 88.0654C160.663 88.8536 160.26 89.4605 159.591 89.8859C158.927 90.285 158.2 90.4163 157.412 90.2797C156.624 90.1432 155.984 89.7753 155.492 89.1759C155.005 88.5503 154.83 87.8433 154.966 87.0551Z"
        fill="black" />
</svg>