<svg width="148" height="171" viewBox="0 0 148 171" fill="none" xmlns="http://www.w3.org/2000/svg">
    <path
        d="M69.5899 49.3598C72.7805 48.2595 76.5175 50.5614 78.3125 54.5728C78.666 55.1507 78.9722 55.7774 79.2188 56.4469C79.5879 57.0876 79.9077 57.7844 80.1643 58.5283C80.2884 58.8882 80.3941 59.2486 80.4821 59.6076C80.5022 59.6636 80.5221 59.72 80.5416 59.7766C81.1924 61.6634 81.4029 63.5432 81.2294 65.191C109.974 68.9652 131.792 90.9965 131.587 117.064C136.126 121.843 138.383 128.112 138.161 134.869C137.626 151.118 122.219 159.243 103.235 163.516C84.2498 167.789 69.588 170.349 42.007 164.241C22.9791 160.027 8.74089 152.196 6.14109 135.787C5.77777 127.997 8.93872 120.735 14.4196 115.123C14.4238 114.874 14.4294 114.624 14.4376 114.374C15.2096 90.8897 33.6384 71.6515 58.1796 66.1826C56.0431 63.3559 55.3711 60.0819 56.3305 57.9046C56.4414 57.5219 56.6083 57.1599 56.8347 56.8265C58.3098 54.6545 61.8246 54.3781 65.2377 55.9631C65.3631 55.3847 65.5433 54.8314 65.7739 54.3129C66.2318 51.943 67.58 50.053 69.5899 49.3598Z"
        fill="#FADA3A" />
    <path
        d="M58.4375 114.961C58.5153 117.437 57.7834 119.678 56.4907 121.476C54.8762 123.721 52.3861 125.246 49.4957 125.337C46.5823 125.428 44.0706 124.091 42.2721 121.923C40.8576 120.217 39.832 118 39.755 115.547C39.6803 113.172 40.6423 110.956 41.8723 109.192C43.5261 106.82 45.8823 105.425 48.8673 105.331C51.8238 105.239 54.2928 106.566 56.0908 108.745C57.458 110.403 58.3619 112.555 58.4375 114.961Z"
        fill="#040301" />
    <ellipse cx="52.0501" cy="111.851" rx="2.15038" ry="2.31579"
        transform="rotate(-1.79913 52.0501 111.851)" fill="white" />
    <path
        d="M104.297 115.025C104.375 117.502 103.643 119.743 102.35 121.541C100.736 123.786 98.2455 125.311 95.355 125.402C92.4417 125.493 89.93 124.156 88.1315 121.988C86.717 120.282 85.6914 118.064 85.6143 115.612C85.5397 113.237 86.5017 111.021 87.7316 109.257C89.3855 106.885 91.7417 105.49 94.7267 105.396C97.6832 105.303 100.152 106.631 101.95 108.81C103.317 110.468 104.221 112.62 104.297 115.025Z"
        fill="#040301" />
    <ellipse cx="97.9115" cy="111.916" rx="2.15038" ry="2.31579"
        transform="rotate(-1.79913 97.9115 111.916)" fill="white" />
    <ellipse cx="34.7345" cy="127.879" rx="8.6015" ry="5.78947"
        transform="rotate(18.0732 34.7345 127.879)" fill="#F99091" />
    <ellipse cx="110.931" cy="127.651" rx="8.6015" ry="5.78947"
        transform="rotate(-15.361 110.931 127.651)" fill="#F99091" />
    <path fill-rule="evenodd" clip-rule="evenodd"
        d="M73.0086 115.48C70.238 115.692 68.7229 116.183 65.9497 117.677C65.3438 118.04 64.9516 118.312 64.6008 118.614C64.2495 118.917 63.9359 119.254 63.4873 119.753C62.6487 120.894 62.2185 121.459 61.9899 122.798C61.7593 124.15 61.9023 124.917 62.135 126.381C62.7537 129.008 63.2507 130.452 64.4772 132.98C65.0216 133.799 65.3778 134.37 65.8421 134.928C66.3056 135.484 66.8789 136.029 67.8548 136.782C68.7187 137.449 69.438 137.865 70.1836 138.139C70.9267 138.411 71.7048 138.544 72.6928 138.635C73.6956 138.571 74.4703 138.335 75.2242 138.122C75.9746 137.91 76.7021 137.556 77.5804 136.916C78.5766 136.189 79.1646 135.66 79.6432 135.117C80.1226 134.572 80.4943 134.012 81.0609 133.207C82.3563 130.714 82.8927 129.284 83.5831 126.675C83.8559 125.218 84.0199 124.455 83.8264 123.098C83.6345 121.753 83.2201 121.176 82.4131 120.013C81.9783 119.502 81.6741 119.156 81.3312 118.844C80.9887 118.532 80.604 118.25 80.0082 117.87C77.2742 116.299 75.7564 115.768 73.0086 115.48Z"
        fill="#FF7518" />
    <path
        d="M63.4572 124.416C64.3398 129.252 66.9207 136.513 72.6847 136.205C78.4668 136.781 80.618 130.556 82.3144 124.541C74.6961 122.743 71.3685 122.773 63.4572 124.416Z"
        fill="#C22F07" />
    <path
        d="M65.7765 131.428C67.1119 134.596 68.8153 135.92 72.5571 136.318C76.1564 136.369 77.7587 135.413 79.7351 131.619C78.6303 130.666 77.8789 130.319 76.4476 130.085C74.7931 130.172 74.0096 130.497 72.7558 131.523C71.7866 130.571 71.1143 130.168 69.3355 129.987C67.5716 129.969 66.8436 130.363 65.7765 131.428Z"
        fill="#F4551D" />
    <path
        d="M27.9472 46.2C27.655 46.3776 27.4022 46.4628 27.189 46.4553C26.9933 46.4357 26.7857 46.2684 26.5661 45.9533L25.4317 44.3257C25.1877 43.9756 25.0878 43.7203 25.1318 43.5596C25.1636 43.3814 25.302 43.2069 25.5471 43.0361C25.5821 43.0117 25.6258 42.9812 25.6783 42.9446L30.8812 39.5525C31.2662 39.2841 31.6173 39.3775 31.9344 39.8325C31.9466 39.85 31.9588 39.8675 31.971 39.885L37.0736 48.3814C37.2878 48.7261 37.1937 49.0388 36.7912 49.3193L34.3473 50.9056C34.1372 51.052 33.9667 51.1058 33.8357 51.0671C33.7222 51.0162 33.6167 50.9207 33.5191 50.7807L33.2995 50.4657C32.8222 51.4224 32.1197 52.2241 31.1921 52.8706C30.142 53.6025 29.0399 54.1105 27.8859 54.3948C26.7371 54.6494 25.5984 54.6759 24.4698 54.4743C23.3237 54.285 22.2227 53.8432 21.1668 53.149C20.0986 52.4372 19.1315 51.46 18.2655 50.2174C17.4116 48.9923 16.8295 47.7467 16.5193 46.4807C16.1968 45.1973 16.1417 43.9615 16.3538 42.7735C16.566 41.5855 17.0104 40.4697 17.6872 39.4259C18.3814 38.37 19.2973 37.4456 20.435 36.6527C20.8725 36.3477 21.2934 36.0934 21.6975 35.8898C22.1069 35.6564 22.5233 35.4703 22.9465 35.3313C23.3697 35.1924 23.8234 35.0972 24.3077 35.0457C24.7797 34.9768 25.3084 34.9333 25.894 34.9153C26.2663 34.8898 26.5256 34.9821 26.672 35.1921C26.7696 35.3321 26.8147 35.5087 26.8072 35.7219L26.8072 38.2963C26.8189 38.5742 26.7783 38.7585 26.6855 38.8492C26.598 38.9102 26.5455 38.9468 26.528 38.959C26.3705 39.0688 26.1939 39.1138 25.9982 39.0942C25.3585 39.0719 24.7887 39.1311 24.2885 39.2716C23.8059 39.4 23.3021 39.6471 22.777 40.013C22.217 40.4034 21.7799 40.877 21.466 41.4339C21.152 41.9907 20.9664 42.6012 20.9091 43.2652C20.8343 43.9414 20.8993 44.6502 21.104 45.3917C21.314 46.1034 21.663 46.8093 22.1509 47.5094C22.651 48.227 23.1864 48.79 23.7571 49.1983C24.333 49.577 24.9241 49.8281 25.5303 49.9517C26.119 50.0875 26.6992 50.0992 27.271 49.9867C27.848 49.8446 28.3815 49.6028 28.8716 49.2612C29.4491 48.8587 29.9026 48.4646 30.232 48.079C30.5613 47.6935 30.8236 47.2116 31.0188 46.6336L29.979 44.8619L27.9472 46.2Z"
        fill="#2663EB" />
    <path
        d="M53.3902 43.0193C52.0678 43.3591 50.7827 43.4581 49.5347 43.3163C48.3022 43.1484 47.1665 42.7575 46.1276 42.1434C45.0887 41.5293 44.1803 40.6945 43.4025 39.6388C42.6452 38.5779 42.0755 37.3036 41.6932 35.816C41.3109 34.3283 41.1957 32.9372 41.3476 31.6427C41.5201 30.3428 41.9135 29.1734 42.5275 28.1346C43.1416 27.0957 43.9508 26.2159 44.955 25.4953C45.9746 24.7487 47.1456 24.2055 48.468 23.8657C49.7903 23.5258 51.0678 23.4398 52.3004 23.6077C53.5483 23.7495 54.6917 24.1275 55.7305 24.7416C56.7694 25.3557 57.6675 26.1932 58.4247 27.2541C59.2026 28.3097 59.7827 29.5813 60.165 31.069C60.5473 32.5567 60.6521 33.9504 60.4796 35.2503C60.3277 36.5448 59.9447 37.7116 59.3306 38.7504C58.7165 39.7893 57.8997 40.682 56.8801 41.4286C55.8758 42.1493 54.7125 42.6795 53.3902 43.0193ZM49.4875 27.8328C48.8056 28.008 48.2099 28.3042 47.7004 28.7215C47.2116 29.1335 46.8243 29.6405 46.5385 30.2426C46.2526 30.8447 46.0864 31.5262 46.0396 32.2871C45.9876 33.0274 46.0677 33.8107 46.2801 34.6372C46.4978 35.4843 46.8079 36.2196 47.2104 36.8431C47.6129 37.4665 48.0845 37.9731 48.6252 38.3628C49.1659 38.7525 49.7497 39.0099 50.3766 39.1352C51.0241 39.2551 51.6888 39.2274 52.3707 39.0522C53.0525 38.877 53.6379 38.5834 54.1267 38.1714C54.6362 37.7542 55.0339 37.2445 55.3197 36.6424C55.6055 36.0403 55.7744 35.3691 55.8265 34.6289C55.8785 33.8886 55.7957 33.0949 55.578 32.2478C55.3656 31.4213 55.0582 30.6964 54.6557 30.0729C54.2479 29.4288 53.7736 28.9119 53.2329 28.5222C52.6923 28.1325 52.0981 27.8777 51.4506 27.7578C50.8237 27.6326 50.1693 27.6575 49.4875 27.8328Z"
        fill="#2663EB" />
    <path
        d="M79.0383 41.206C77.6827 41.0435 76.4491 40.6699 75.3374 40.0854C74.2495 39.4823 73.3327 38.7063 72.587 37.7574C71.8413 36.8086 71.2973 35.7012 70.9549 34.4355C70.6337 33.1723 70.5645 31.7781 70.7474 30.253C70.9302 28.7279 71.327 27.3897 71.9378 26.2382C72.5698 25.0893 73.3602 24.142 74.309 23.3963C75.2579 22.6506 76.3309 22.1239 77.528 21.8163C78.7489 21.49 80.0371 21.4081 81.3927 21.5707C82.7484 21.7332 83.9701 22.116 85.0581 22.7192C86.1697 23.3037 87.0984 24.0704 87.8441 25.0192C88.5897 25.9681 89.1232 27.0741 89.4444 28.3374C89.7868 29.6031 89.8666 30.9986 89.6837 32.5236C89.5008 34.0487 89.0934 35.3857 88.4615 36.5346C87.8507 37.6861 87.0709 38.6347 86.1221 39.3804C85.1732 40.126 84.0883 40.662 82.8675 40.9883C81.6703 41.296 80.3939 41.3686 79.0383 41.206ZM80.9051 25.6375C80.2061 25.5537 79.5436 25.6139 78.9175 25.8182C78.3125 26.025 77.7678 26.3571 77.2832 26.8147C76.7986 27.2723 76.3966 27.8471 76.0773 28.5394C75.7605 29.2104 75.5513 29.9696 75.4497 30.8169C75.3455 31.6853 75.3681 32.483 75.5172 33.2099C75.6664 33.9369 75.9224 34.5799 76.285 35.1391C76.6477 35.6982 77.0985 36.1498 77.6374 36.4937C78.1974 36.8402 78.827 37.0553 79.526 37.1391C80.225 37.2229 80.8769 37.1615 81.4818 36.9547C82.1079 36.7504 82.6633 36.4195 83.1479 35.962C83.6325 35.5044 84.0332 34.9401 84.35 34.269C84.6668 33.598 84.8773 32.8282 84.9814 31.9598C85.083 31.1125 85.0592 30.3254 84.91 29.5985C84.7634 28.8504 84.5087 28.1967 84.146 27.6376C83.7834 27.0784 83.322 26.6256 82.7619 26.2791C82.223 25.9352 81.6041 25.7213 80.9051 25.6375Z"
        fill="#2663EB" />
    <path
        d="M96.77 44.9904C96.5218 44.8666 96.3643 44.7284 96.2974 44.5759C96.2495 44.4328 96.2827 44.2229 96.397 43.9461L103.624 28.2406C103.643 28.2024 103.662 28.1642 103.681 28.126C103.776 27.9351 103.891 27.8015 104.024 27.725C104.186 27.639 104.415 27.6579 104.711 27.7816L108.648 29.5669C108.858 29.6717 109.068 29.7764 109.278 29.8812C110.386 30.4336 111.393 31.1148 112.3 31.9249C113.235 32.7255 113.961 33.6837 114.478 34.7994C114.975 35.9057 115.186 37.1315 115.111 38.4768C115.045 39.8029 114.631 41.2296 113.869 42.7568C111.003 48.5028 106.391 49.7902 100.034 46.6189L96.77 44.9904ZM101.977 43.154L102.894 43.6111C103.314 43.8206 103.796 44.0014 104.34 44.1536C104.893 44.2866 105.47 44.2766 106.071 44.1234C106.653 43.9607 107.244 43.6119 107.845 43.0771C108.465 42.5518 109.055 41.726 109.617 40.5997C110.046 39.7407 110.293 38.9343 110.359 38.1805C110.444 37.4363 110.382 36.7494 110.171 36.1199C109.951 35.5095 109.636 34.9946 109.225 34.5752C108.815 34.1558 108.361 33.8223 107.865 33.5747C107.769 33.5271 107.674 33.4794 107.579 33.4318L106.634 33.032L101.977 43.154Z"
        fill="#2663EB" />
    <path
        d="M127.768 43.0534C127.811 43.0057 127.846 42.966 127.875 42.9342C128.074 42.7118 128.256 42.5885 128.421 42.5643C128.602 42.5544 128.851 42.6918 129.169 42.9765L131.219 44.813C131.536 45.0977 131.692 45.3233 131.686 45.4898C131.696 45.6706 131.601 45.8722 131.402 46.0946C131.374 46.1264 131.338 46.1661 131.295 46.2138L123.455 54.4847C123.183 54.7565 122.957 54.9124 122.778 54.9524C122.613 54.9765 122.372 54.8463 122.054 54.5615L120.481 53.1522C120.163 52.8674 120.008 52.6418 120.013 52.4753C120.034 52.2929 120.164 52.0516 120.404 51.7514L127.768 43.0534ZM116.895 54.7085C117.394 54.1524 117.998 53.8776 118.708 53.8839C119.419 53.8903 120.044 54.1355 120.584 54.6195C121.125 55.1035 121.437 55.6983 121.521 56.4037C121.605 57.1092 121.398 57.7399 120.899 58.296C120.401 58.8521 119.797 59.127 119.086 59.1206C118.376 59.1143 117.751 58.8691 117.21 58.3851C116.67 57.901 116.358 57.3063 116.274 56.6009C116.19 55.8954 116.397 55.2646 116.895 54.7085Z"
        fill="#2663EB" />
</svg>