<svg width="40" height="40" viewBox="0 0 40 40" fill="none" xmlns="http://www.w3.org/2000/svg">
<path d="M10 18.3334H16.6667" stroke="#1F2937" stroke-width="2" stroke-linecap="round" stroke-linejoin="round"/>
<path d="M13.334 15V21.6667" stroke="#1F2937" stroke-width="2" stroke-linecap="round" stroke-linejoin="round"/>
<path d="M25 20H25.0167" stroke="#1F2937" stroke-width="2" stroke-linecap="round" stroke-linejoin="round"/>
<path d="M30 16.6666H30.0167" stroke="#1F2937" stroke-width="2" stroke-linecap="round" stroke-linejoin="round"/>
<path d="M28.8673 8.33337H11.134C9.48445 8.33376 7.89363 8.94567 6.66904 10.0508C5.44445 11.156 4.67306 12.6759 4.50398 14.3167C4.49398 14.4034 4.48732 14.485 4.47565 14.57C4.34065 15.6934 3.33398 24.0934 3.33398 26.6667C3.33398 27.9928 3.86077 29.2646 4.79845 30.2022C5.73613 31.1399 7.0079 31.6667 8.33398 31.6667C10.0007 31.6667 10.834 30.8334 11.6673 30L14.024 27.6434C14.649 27.0182 15.4967 26.6669 16.3807 26.6667H23.6207C24.5046 26.6669 25.3523 27.0182 25.9773 27.6434L28.334 30C29.1673 30.8334 30.0007 31.6667 31.6673 31.6667C32.9934 31.6667 34.2652 31.1399 35.2029 30.2022C36.1405 29.2646 36.6673 27.9928 36.6673 26.6667C36.6673 24.0917 35.6607 15.6934 35.5257 14.57C35.514 14.4867 35.5073 14.4034 35.4973 14.3184C35.3286 12.6772 34.5574 11.1569 33.3328 10.0514C32.1081 8.94594 30.5171 8.3338 28.8673 8.33337Z" stroke="#1F2937" stroke-width="2" stroke-linecap="round" stroke-linejoin="round"/>
</svg>
