<svg width="22" height="22" viewBox="0 0 22 22" fill="none" xmlns="http://www.w3.org/2000/svg">
    <mask id="mask0_366_426" style="mask-type:luminance" maskUnits="userSpaceOnUse" x="0" y="0"
        width="22" height="22">
        <path d="M22 0H0V22H22V0Z" fill="white" />
    </mask>
    <g mask="url(#mask0_366_426)">
        <path
            d="M21.56 11.25C21.56 10.47 21.49 9.72006 21.36 9H11V13.255H16.92C16.665 14.63 15.8901 15.795 14.725 16.575V19.335H18.28C20.36 17.4201 21.56 14.6 21.56 11.25Z"
            fill="#4285F4" />
        <path
            d="M11 21.9998C13.97 21.9998 16.4599 21.0148 18.2799 19.3349L14.7249 16.5749C13.74 17.2349 12.4799 17.6248 11 17.6248C8.1349 17.6248 5.70995 15.6898 4.84491 13.0898H1.16992V15.9398C2.97997 19.5349 6.69995 21.9998 11 21.9998Z"
            fill="#34A853" />
        <path
            d="M4.84495 13.09C4.62495 12.43 4.49999 11.7251 4.49999 11C4.49999 10.275 4.62495 9.57005 4.84495 8.91005V6.06006H1.16996C0.42504 7.54506 0 9.22509 0 11C0 12.775 0.42504 14.455 1.16996 15.94L4.84495 13.09Z"
            fill="#FBBC04" />
        <path
            d="M11 4.37503C12.6149 4.37503 14.0649 4.92998 15.2049 6.01997L18.36 2.86495C16.455 1.08999 13.9649 0 11 0C6.69995 0 2.97997 2.46499 1.16992 6.06001L4.84491 8.91C5.70995 6.31004 8.1349 4.37503 11 4.37503Z"
            fill="#E94235" />
    </g>
</svg>