<svg width="16" height="16" viewBox="0 0 16 16" fill="none" xmlns="http://www.w3.org/2000/svg">
    <path
        d="M3.3335 3.33324C3.33343 3.09863 3.39526 2.86816 3.51275 2.6651C3.63024 2.46204 3.79924 2.29357 4.00266 2.1767C4.20609 2.05984 4.43675 1.99872 4.67136 1.99952C4.90596 2.00032 5.1362 2.063 5.33883 2.18124L13.3368 6.84657C13.5387 6.96369 13.7062 7.13174 13.8228 7.33391C13.9393 7.53608 14.0008 7.7653 14.001 7.99867C14.0012 8.23203 13.9401 8.46135 13.8239 8.66373C13.7077 8.8661 13.5405 9.03444 13.3388 9.15191L5.33883 13.8186C5.1362 13.9368 4.90596 13.9995 4.67136 14.0003C4.43675 14.0011 4.20609 13.94 4.00266 13.8231C3.79924 13.7062 3.63024 13.5378 3.51275 13.3347C3.39526 13.1316 3.33343 12.9012 3.3335 12.6666V3.33324Z"
        stroke="currentColor" stroke-width="2" stroke-linecap="round" stroke-linejoin="round" />
</svg>