<svg preserveAspectRatio="none" width="100%" height="100%" overflow="visible" style="display: block;" viewBox="0 0 204 116" fill="none" xmlns="http://www.w3.org/2000/svg">
<path id="Cloud/default" d="M127.947 0C152.82 0 172.982 18.5834 172.982 41.5071C172.982 41.9265 172.975 42.3444 172.961 42.7607C190.752 46.6043 204 61.3217 204 78.891C204 99.3857 185.974 116 163.737 116H40.2632C18.0264 116 0 99.3857 0 78.891C0 58.8564 17.2261 42.5302 38.7719 41.8072C38.7719 41.7988 38.7719 41.7904 38.7719 41.782C38.7719 26.6007 52.1248 14.2938 68.5965 14.2938C76.2754 14.2938 83.2757 16.9693 88.5621 21.3629C96.2504 8.62112 111.007 0 127.947 0Z" fill="var(--fill-0, white)"/>
</svg>
