<svg width="45" height="45" viewBox="0 0 45 45" fill="none" xmlns="http://www.w3.org/2000/svg">
<path d="M2.17829 8.50034C0.759583 10.6019 4.60053e-05 13.0924 0 15.6429C0 20.9145 3.37499 24.8109 6.74998 28.2488L19.1429 40.4697C19.5683 40.9547 20.09 41.342 20.6736 41.6059C21.2571 41.8697 21.8891 42.004 22.5276 41.9999C23.166 41.9958 23.7963 41.8533 24.3765 41.582C24.9568 41.3106 25.4737 40.9166 25.8929 40.4261L38.2499 28.2488C41.6249 24.8109 44.9999 20.8916 44.9999 15.6429C45.0118 13.0868 44.2593 10.5876 42.8424 8.47796C41.4255 6.36831 39.4115 4.74826 37.0684 3.83345C34.7253 2.91863 32.1642 2.75244 29.7261 3.35699C27.288 3.96153 25.0884 5.30815 23.4202 7.2176L22.5001 8.17093L21.5797 7.2176C19.9062 5.32048 17.7071 3.98509 15.273 3.3878C12.8388 2.79051 10.284 2.95942 7.94609 3.87222C5.60815 4.78502 3.597 6.39878 2.17829 8.50034Z" fill="#683E18"/>
</svg>
