<svg width="45" height="45" viewBox="0 0 45 45" fill="none" xmlns="http://www.w3.org/2000/svg">
<path d="M20.6056 2.18972C21.3703 0.603429 23.6297 0.603425 24.3944 2.18972L29.6265 13.043C29.9331 13.6789 30.5383 14.1186 31.2378 14.2136L43.1777 15.8354C44.9228 16.0724 45.621 18.221 44.3485 19.4384L35.6423 27.7679C35.1322 28.2559 34.901 28.9673 35.0268 29.662L37.1739 41.5176C37.4877 43.2504 35.6599 44.5783 34.1087 43.7444L23.4958 38.039C22.874 37.7047 22.126 37.7047 21.5042 38.039L10.8913 43.7444C9.34012 44.5783 7.51228 43.2504 7.8261 41.5176L9.97318 29.662C10.099 28.9673 9.86781 28.2559 9.35772 27.7679L0.65151 19.4384C-0.620966 18.221 0.0772017 16.0724 1.8223 15.8354L13.7622 14.2136C14.4617 14.1186 15.0669 13.6789 15.3735 13.043L20.6056 2.18972Z" fill="#683E18"/>
</svg>
