<svg width="160" height="218" viewBox="0 0 160 218" fill="none" xmlns="http://www.w3.org/2000/svg">
<path d="M76.9179 3.86085C80.6316 2.64677 84.9115 5.38703 86.9108 10.0715C87.3087 10.7481 87.6508 11.4804 87.9232 12.2612C88.3379 13.011 88.6945 13.8248 88.977 14.692C89.1136 15.1116 89.229 15.5315 89.3238 15.9492C89.346 16.0146 89.3679 16.0803 89.3894 16.1463C90.1059 18.3459 90.313 20.529 90.0802 22.4357C123.271 27.3639 148.092 53.3216 147.349 83.5335C152.509 89.161 154.998 96.4712 154.61 104.299C153.677 123.124 135.69 132.245 113.637 136.833C91.5843 141.421 74.5675 144.106 42.7685 136.495C20.8306 131.244 4.50575 121.892 1.81564 102.822C1.5464 93.7849 5.34528 85.4278 11.7968 79.0285C11.8065 78.7397 11.8178 78.4505 11.8322 78.161C13.1814 50.9536 34.8811 29.0083 63.3871 23.1413C60.9695 19.8237 60.2554 16.0157 61.4079 13.5103C61.5437 13.0688 61.7438 12.6525 62.0123 12.2703C63.7615 9.78103 67.8343 9.52836 71.7533 11.4313C71.9096 10.7632 72.1288 10.1253 72.4058 9.52879C72.9817 6.79051 74.5785 4.62567 76.9179 3.86085Z" fill="#FADA3A"/>
<path d="M57.3365 188.29C51.84 178.636 42.3542 173.675 36.1492 177.208C29.9443 180.741 29.37 191.431 34.8664 201.084C40.3629 210.737 47.9569 211.249 54.1618 207.716C57.5899 205.764 63.2608 201.486 63.6943 197.762C64.0453 194.746 59.7963 192.61 57.3365 188.29Z" fill="#F47112"/>
<path d="M53.4544 144.544C51.9684 136.461 43.6578 129.05 34.258 128.044C21.7784 123.219 2.01335 127.209 2.28165 138.337C1.6499 146.587 20.7365 157.058 31.9702 157.921C43.2038 158.783 52.8226 152.794 53.4544 144.544Z" fill="#FADA3A"/>
<path fill-rule="evenodd" clip-rule="evenodd" d="M79.2347 200.053C51.8195 198.849 30.3149 181.491 31.2028 161.283C31.2536 160.129 31.2806 158.846 31.3095 157.474C31.5335 146.845 31.8698 130.889 44.2091 128.262C62.1916 124.433 83.6887 125.656 98.1556 126.479C100.708 126.625 103.042 126.757 105.099 126.848C109.386 127.036 112.974 127.62 115.975 128.549C110.546 134.141 111.557 144.821 118.497 153.041C121.238 156.289 125.742 159.643 130.629 162.276C130.593 163.121 130.556 163.972 130.518 164.829L130.482 165.645C130.06 175.253 124.652 183.775 116.148 189.943C109.79 194.553 101.702 197.848 92.6739 199.297C88.3787 199.986 83.8706 200.257 79.2347 200.053ZM130.629 162.276C131.279 146.643 131.087 133.226 115.975 128.549C116.231 128.285 116.502 128.032 116.787 127.791C124.213 124.271 135.085 126.68 141.397 133.717C152.608 141.02 160.927 159.388 151.743 165.676C147.805 169 138.696 166.622 130.629 162.276Z" fill="#FADA3A"/>
<path d="M115.975 128.549C110.546 134.141 111.557 144.821 118.497 153.041C121.238 156.289 125.742 159.643 130.629 162.276C131.279 146.643 131.087 133.226 115.975 128.549Z" fill="#FADA3A"/>
<path fill-rule="evenodd" clip-rule="evenodd" d="M92.6739 199.297C101.702 197.848 109.79 194.553 116.148 189.943C111.743 182.848 105.297 182.066 99.5372 184.487C93.8879 186.861 90.7344 191.544 92.6739 199.297Z" fill="#F47112"/>
<path d="M94.064 203.395C98.3676 213.636 107.193 219.695 113.775 216.929C120.358 214.162 122.206 203.618 117.902 193.377C117.364 192.097 116.777 190.956 116.148 189.943C109.79 194.553 101.702 197.848 92.6739 199.297C92.9943 200.578 93.4538 201.943 94.064 203.395Z" fill="#F47112"/>
</svg>
