<svg width="160" height="218" viewBox="0 0 160 218" fill="none" xmlns="http://www.w3.org/2000/svg">
<path d="M104.369 188.289C109.866 178.636 119.351 173.675 125.556 177.208C131.761 180.741 132.336 191.43 126.839 201.084C121.343 210.737 113.749 211.249 107.544 207.716C104.116 205.764 98.4447 201.485 98.0113 197.762C97.6602 194.746 101.909 192.609 104.369 188.289Z" fill="#F47112"/>
<path d="M108.251 144.544C109.737 136.461 118.048 129.05 127.448 128.044C139.927 123.218 159.692 127.209 159.424 138.337C160.056 146.587 140.969 157.058 129.735 157.92C118.502 158.783 108.883 152.794 108.251 144.544Z" fill="#FADA3A"/>
<path fill-rule="evenodd" clip-rule="evenodd" d="M82.4709 200.053C109.886 198.849 131.391 181.49 130.503 161.283C130.452 160.129 130.425 158.846 130.396 157.474C130.172 146.845 129.836 130.889 117.496 128.262C99.5139 124.433 78.0168 125.656 63.5499 126.479C60.9974 126.624 58.6637 126.757 56.6068 126.847C52.3198 127.036 48.7312 127.62 45.7307 128.548C45.4743 128.284 45.2037 128.032 44.9186 127.791C37.4922 124.27 26.6207 126.679 20.3088 133.717C9.09729 141.02 0.778433 159.387 9.96264 165.676C13.9009 168.999 23.0097 166.622 31.0769 162.276C31.1121 163.12 31.1497 163.972 31.1875 164.829L31.2236 165.645C31.6457 175.253 37.0537 183.775 45.5576 189.942C51.9152 194.553 60.0031 197.848 69.0317 199.297C73.3269 199.986 77.8349 200.257 82.4709 200.053ZM31.0769 162.276C35.9631 159.643 40.4671 156.289 43.2087 153.041C50.1489 144.82 51.1599 134.141 45.7307 128.548C30.6187 133.225 30.4263 146.643 31.0769 162.276Z" fill="#FADA3A"/>
<path d="M31.0769 162.276C35.9631 159.643 40.4671 156.289 43.2087 153.041C50.1489 144.82 51.1599 134.141 45.7307 128.548C30.6187 133.225 30.4263 146.643 31.0769 162.276Z" fill="#FADA3A"/>
<path fill-rule="evenodd" clip-rule="evenodd" d="M69.0317 199.297C70.9712 191.543 67.8176 186.861 62.1683 184.487C56.4082 182.066 49.9621 182.848 45.5576 189.942C51.9152 194.553 60.0031 197.848 69.0317 199.297Z" fill="#F47112"/>
<path d="M47.9302 216.928C54.5128 219.695 63.3379 213.635 67.6415 203.394C68.2517 201.942 68.7112 200.578 69.0317 199.297C60.0031 197.848 51.9152 194.553 45.5576 189.942C44.9287 190.955 44.3414 192.097 43.8036 193.377C39.5 203.618 41.3475 214.162 47.9302 216.928Z" fill="#F47112"/>
<path d="M76.9179 3.86085C80.6316 2.64677 84.9115 5.38703 86.9108 10.0715C87.3087 10.7481 87.6508 11.4804 87.9232 12.2612C88.3379 13.011 88.6945 13.8248 88.977 14.692C89.1136 15.1116 89.229 15.5315 89.3238 15.9492C89.346 16.0146 89.3679 16.0803 89.3894 16.1463C90.1059 18.3459 90.313 20.529 90.0802 22.4357C123.271 27.3639 148.092 53.3216 147.349 83.5335C152.509 89.161 154.998 96.4712 154.61 104.299C153.677 123.124 135.69 132.245 113.637 136.833C91.5843 141.421 74.5675 144.106 42.7685 136.495C20.8306 131.244 4.50575 121.892 1.81564 102.822C1.5464 93.7849 5.34528 85.4278 11.7968 79.0285C11.8065 78.7397 11.8178 78.4505 11.8322 78.161C13.1814 50.9536 34.8811 29.0083 63.3871 23.1413C60.9695 19.8237 60.2554 16.0157 61.4079 13.5103C61.5437 13.0688 61.7438 12.6525 62.0123 12.2703C63.7615 9.78103 67.8343 9.52836 71.7533 11.4313C71.9096 10.7632 72.1288 10.1253 72.4058 9.52879C72.9817 6.79051 74.5785 4.62567 76.9179 3.86085Z" fill="#FADA3A"/>
</svg>
