<svg width="167" height="201" viewBox="0 0 167 201" fill="none" xmlns="http://www.w3.org/2000/svg">
<path d="M147.603 140.764C148.491 160.971 122.137 178.543 88.7391 180.01C55.3413 181.478 27.5473 166.286 26.6594 146.078C25.7714 125.87 24.5446 108.489 57.9424 107.021C74.65 106.287 106.36 103.549 132.08 107.853C149.018 110.687 147.16 130.665 147.603 140.764Z" fill="#FADA3A"/>
<path d="M83.9179 3.86085C87.6316 2.64677 91.9115 5.38703 93.9108 10.0715C94.3087 10.7481 94.6508 11.4804 94.9232 12.2612C95.3379 13.011 95.6945 13.8248 95.977 14.692C96.1136 15.1116 96.229 15.5315 96.3238 15.9492C96.346 16.0146 96.3679 16.0803 96.3894 16.1463C97.1059 18.3459 97.313 20.529 97.0802 22.4357C130.271 27.3639 155.092 53.3216 154.349 83.5335C159.509 89.161 161.998 96.4712 161.61 104.299C160.677 123.124 142.69 132.245 120.637 136.833C98.5843 141.421 81.5675 144.106 49.7685 136.495C27.8306 131.244 11.5057 121.892 8.81564 102.822C8.5464 93.7849 12.3453 85.4278 18.7968 79.0285C18.8065 78.7397 18.8178 78.4505 18.8322 78.161C20.1814 50.9536 41.8811 29.0083 70.3871 23.1413C67.9695 19.8237 67.2554 16.0157 68.4079 13.5103C68.5437 13.0688 68.7438 12.6525 69.0123 12.2703C70.7615 9.78103 74.8343 9.52836 78.7533 11.4313C78.9096 10.7632 79.1288 10.1253 79.4058 9.52879C79.9817 6.79051 81.5785 4.62567 83.9179 3.86085Z" fill="#FADA3A"/>
<path d="M124.464 117.791C131.891 114.271 142.762 116.679 149.074 123.717C160.285 131.02 168.604 149.388 159.42 155.676C153.096 161.012 133.442 151.65 126.174 143.041C118.906 134.432 118.141 123.127 124.464 117.791Z" fill="#FADA3A"/>
<path d="M42.5191 117.791C35.0927 114.271 24.2213 116.679 17.9094 123.717C6.69783 131.02 -1.62102 149.388 7.56318 155.676C13.8868 161.012 33.5412 151.65 40.8092 143.041C48.0772 134.432 48.8427 123.127 42.5191 117.791Z" fill="#FADA3A"/>
<path d="M32.5 116C52 93.5 119.5 93 135 116" stroke="#ECC234" stroke-linecap="round"/>
<path d="M74.4999 140.499C63 121.5 87.0183 109.58 91.0185 137.079C89.5183 121.58 104 126.5 99.0183 137.079" stroke="#ECC234" stroke-linecap="round"/>
<path d="M44.9396 159.613C51.0738 156.87 58.6879 171.076 54.7466 176.286L43.5872 186.563C43.1626 189.213 41.6696 191.547 39.426 193.551C34.1002 198.307 26.5673 199.399 19.1682 191.114C11.7694 182.828 10.0893 172.256 15.415 167.5C19.679 163.693 27.1409 164.768 33.7441 169.599L44.9396 159.613Z" fill="#F47112"/>
<path d="M123.937 159.613C117.802 156.87 110.188 171.076 114.13 176.286L125.289 186.563C125.714 189.213 127.207 191.547 129.45 193.551C134.776 198.307 142.309 199.399 149.708 191.114C157.107 182.828 158.787 172.256 153.461 167.5C149.197 163.693 141.735 164.768 135.132 169.599L123.937 159.613Z" fill="#F47112"/>
</svg>
