<svg width="160" height="222" viewBox="0 0 160 222" fill="none" xmlns="http://www.w3.org/2000/svg">
<path d="M76.9065 3.86085C80.6202 2.64677 84.9001 5.38703 86.8994 10.0715C87.2973 10.7481 87.6394 11.4804 87.9119 12.2612C88.3266 13.011 88.6831 13.8248 88.9656 14.692C89.1022 15.1116 89.2176 15.5315 89.3124 15.9492C89.3346 16.0146 89.3566 16.0803 89.378 16.1463C90.0945 18.3459 90.3017 20.529 90.0688 22.4357C123.26 27.3639 148.08 53.3216 147.337 83.5335C152.497 89.161 154.987 96.4712 154.599 104.299C153.665 123.124 135.678 132.245 113.626 136.833C91.5729 141.421 74.5562 144.106 42.7571 136.495C20.8192 131.244 4.49436 121.892 1.80426 102.822C1.53502 93.7849 5.3339 85.4278 11.7854 79.0285C11.7951 78.7397 11.8064 78.4505 11.8208 78.161C13.17 50.9536 34.8697 29.0083 63.3757 23.1413C60.9581 19.8237 60.244 16.0157 61.3966 13.5103C61.5323 13.0688 61.7324 12.6525 62.0009 12.2703C63.7501 9.78103 67.8229 9.52836 71.7419 11.4313C71.8982 10.7632 72.1175 10.1253 72.3944 9.52879C72.9703 6.79051 74.5672 4.62567 76.9065 3.86085Z" fill="#FADA3A"/>
<path d="M39.2027 211.652C38.8607 207.19 43.1538 202.496 49.5044 200.912L50.3132 188.014L68.5916 195.79C70.0195 203.034 70.2655 206.342 69.4917 210.595L69.3815 210.602C68.7837 215.401 62.7504 219.532 55.1046 220.116C46.1658 220.624 38.5877 216.765 39.2027 211.652Z" fill="#F47112"/>
<path d="M39.2027 211.652C38.8607 207.19 43.1538 202.496 49.5044 200.912L50.3132 188.014L68.5916 195.79C70.0195 203.034 70.2655 206.342 69.4917 210.595L69.3815 210.602C68.7837 215.401 62.7504 219.532 55.1046 220.116C46.1658 220.624 38.5877 216.765 39.2027 211.652Z" fill="#F47112"/>
<path d="M122.74 210.77C122.689 206.295 118.001 201.995 111.536 200.974L109.599 188.197L92.0731 197.546C91.286 204.887 91.3311 208.204 92.475 212.373L92.5853 212.37C93.6017 217.098 99.9742 220.685 107.642 220.595C116.591 220.317 123.801 215.808 122.74 210.77Z" fill="#F47112"/>
<path d="M130.491 162.021C131.379 182.229 109.875 199.587 82.4596 200.791C55.0444 201.996 32.1002 186.591 31.2123 166.383C30.3244 146.176 29.1803 128.79 56.5955 127.586C70.3103 126.983 96.3298 124.496 117.485 129C131.417 131.966 130.048 151.922 130.491 162.021Z" fill="#FADA3A"/>
<path d="M115.947 124.251C123.209 120.402 134.177 122.322 140.798 129.07C152.325 135.864 161.457 153.842 152.563 160.535C146.485 166.148 126.431 157.675 118.785 149.4C111.139 141.125 109.869 129.865 115.947 124.251Z" fill="#FADA3A"/>
<path d="M44.9072 128.529C37.4809 125.009 26.6094 127.418 20.2975 134.455C9.08596 141.758 0.767113 160.126 9.95131 166.414C16.2749 171.75 35.9294 162.389 43.1973 153.78C50.4653 145.17 51.2308 133.866 44.9072 128.529Z" fill="#FADA3A"/>
</svg>
