<svg width="174" height="240" viewBox="0 0 174 240" fill="none" xmlns="http://www.w3.org/2000/svg">
<path d="M83.2745 4.17953C87.2955 2.86746 91.9299 5.83002 94.0952 10.894C94.5261 11.6255 94.8966 12.4171 95.1916 13.2612C95.6407 14.0717 96.0269 14.9515 96.3328 15.889C96.4808 16.3425 96.6057 16.7964 96.7084 17.248C96.7325 17.3187 96.7563 17.3897 96.7795 17.461C97.5555 19.8388 97.78 22.1987 97.528 24.2598C133.467 29.5901 160.345 57.6522 159.543 90.3107C165.13 96.3945 167.827 104.297 167.407 112.759C166.398 133.108 146.923 142.967 123.045 147.924C99.1673 152.881 80.7421 155.782 46.3101 147.552C22.5557 141.874 4.87868 131.763 1.96419 111.148C1.67186 101.379 5.78446 92.3458 12.7695 85.4288C12.7799 85.1167 12.7922 84.804 12.8077 84.4911C14.2662 55.0803 37.7602 31.3598 68.6254 25.0202C66.0074 21.4337 65.2338 17.3172 66.4815 14.6091C66.6285 14.1319 66.8451 13.6818 67.1358 13.2687C69.0296 10.578 73.4395 10.3052 77.683 12.3626C77.8522 11.6404 78.0896 10.9509 78.3894 10.3061C79.0128 7.3461 80.7416 5.00608 83.2745 4.17953Z" fill="#FADA3A"/>
<path d="M42.4485 221.121C42.0781 216.29 46.7267 211.207 53.6031 209.492L54.4788 195.526L74.2705 203.946C75.8166 211.789 76.083 215.371 75.2451 219.977L75.1257 219.984C74.4785 225.18 67.9456 229.654 59.6668 230.286C49.9881 230.836 41.7826 226.657 42.4485 221.121Z" fill="#F47112"/>
<path d="M42.4485 221.121C42.0781 216.29 46.7267 211.207 53.6031 209.492L54.4788 195.526L74.2705 203.946C75.8166 211.789 76.083 215.371 75.2451 219.977L75.1257 219.984C74.4785 225.18 67.9456 229.654 59.6668 230.286C49.9881 230.836 41.7826 226.657 42.4485 221.121Z" fill="#F47112"/>
<path d="M132.901 220.124C132.846 215.279 127.77 210.623 120.77 209.518L118.672 195.682L99.6954 205.806C98.8431 213.754 98.8919 217.346 100.131 221.86L100.25 221.857C101.351 226.976 108.251 230.86 116.553 230.763C126.243 230.462 134.05 225.58 132.901 220.124Z" fill="#F47112"/>
<path d="M141.295 170.889C142.256 192.77 118.971 211.565 89.2866 212.869C59.6018 214.173 34.7581 197.493 33.7967 175.612C32.8352 153.732 31.5965 134.907 61.2813 133.603C76.1315 132.95 104.305 130.257 127.212 135.134C142.297 138.346 140.814 159.954 141.295 170.889Z" fill="#FADA3A"/>
<path d="M125.548 131.721C133.41 127.553 145.287 129.632 152.455 136.939C164.936 144.296 174.825 163.761 165.195 171.008C158.613 177.087 136.899 167.912 128.62 158.952C120.342 149.991 118.966 137.8 125.548 131.721Z" fill="#FADA3A"/>
<path d="M48.6263 135.935C40.5851 132.123 28.8136 134.731 21.9792 142.351C9.83941 150.258 0.831856 170.147 10.7764 176.956C17.6235 182.734 38.9052 172.597 46.7748 163.275C54.6445 153.954 55.4734 141.713 48.6263 135.935Z" fill="#FADA3A"/>
</svg>
