<svg width="60" height="81" viewBox="0 0 60 81" fill="none" xmlns="http://www.w3.org/2000/svg">
  <!-- Stem -->
  <rect x="25" y="35" width="10" height="45" rx="5" fill="#68C56E"/>
  <!-- Pot / Leaves (translate x=4.5, y=61) -->
  <g transform="translate(4.5, 61)">
    <path d="M32.9633 5.54322C36.1737 -0.0019552 42.983 -0.333957 49.2474 0.164293L50.0549 0.228431C50.692 0.279254 51.1284 0.910212 50.9658 1.54468C49.3787 7.7299 46.7222 13.9885 40.9249 16.3308C39.9052 16.7428 38.8438 17.1152 37.7623 17.467C34.3857 18.5656 30.8976 19.2609 27.3867 19.7415C26.135 19.913 24.8658 19.913 23.6142 19.7415C20.1031 19.2609 16.6144 18.5656 13.2377 17.467C12.1563 17.1152 11.0956 16.7427 10.0759 16.3308C4.27865 13.9885 1.62126 7.72992 0.0340963 1.54468C-0.128412 0.910173 0.308776 0.279113 0.945973 0.228431L1.75249 0.164293C8.01698 -0.333984 14.8261 -0.00183975 18.0367 5.54322C19.8109 8.6079 21.5034 11.6554 25.5004 11.6554C29.4973 11.6553 31.1891 8.60784 32.9633 5.54322Z" fill="#68C56E"/>
  </g>
  <!-- Petals (translate x=0, y=0) -->
  <g transform="translate(0, 0)">
    <path fill-rule="evenodd" clip-rule="evenodd" d="M29.1676 0.0314168C35.4242 -0.433752 40.8688 4.32152 41.3285 10.6527C41.4615 12.4843 41.1618 14.2469 40.5184 15.8387C42.3864 13.9037 44.9325 12.624 47.8081 12.4102C54.0646 11.945 59.5092 16.7003 59.969 23.0314C60.4286 29.3626 55.7294 34.8721 49.4729 35.3374C49.16 35.3606 48.8491 35.37 48.5408 35.3676C51.0332 37.2937 52.7309 40.2488 52.9788 43.6627C53.4384 49.9938 48.7392 55.5034 42.4827 55.9686C36.2262 56.4338 30.7816 51.6784 30.3218 45.3473C30.3133 45.2297 30.3069 45.1123 30.3019 44.9953C29.9627 50.6509 25.535 55.3214 19.7965 55.7481C13.5399 56.2133 8.09537 51.458 7.6356 45.1268C7.35279 41.2319 9.02264 37.6482 11.8062 35.3584C5.71308 35.6048 0.481351 30.9168 0.0310502 24.7161C-0.428665 18.3849 4.27057 12.8754 10.5271 12.4102C13.9997 12.152 17.2216 13.5024 19.4805 15.8376C19.0418 14.7488 18.7613 13.5733 18.6715 12.3373C18.2118 6.00614 22.9111 0.496615 29.1676 0.0314168Z" fill="#F9A0B2"/>
  </g>
  <!-- Core (translate x=22.5, y=20) -->
  <g transform="translate(22.5, 20)">
    <circle cx="7.5" cy="7.5" r="7.5" fill="#FFEA7A"/>
  </g>
</svg>
