<svg preserveAspectRatio="none" width="177.706" height="89.9071" overflow="visible" style="display: block;" viewBox="0 0 177.706 89.9071" fill="none" xmlns="http://www.w3.org/2000/svg">
<g id="Vector">
<path fill-rule="evenodd" clip-rule="evenodd" d="M0 40.4414L57.3547 0.490552C57.895 0.114199 58.5522 -0.054441 59.2062 0.0154615L173.892 12.2735L162.254 25.3269L167.046 34.2582L144.393 32.2524C144.098 32.2263 143.874 32.5118 143.967 32.7934L146.508 40.4414L138.292 49.3727L119.123 50.7468V51.4338L109.538 63.8002L0 40.4414Z" fill="#B88864"/>
<path d="M109.538 63.8002L0 40.4414V69.7C0 71.0506 0.978015 72.201 2.3071 72.4138L111.592 89.9071L109.538 63.8002Z" fill="var(--fill-0, #9D6C4D)"/>
<path d="M119.123 51.4338L109.538 63.8002L111.592 89.9071L124.6 76.1666L119.123 51.4338Z" fill="#906144"/>
<path d="M119.123 50.7468V51.4338L124.6 76.1666L146.508 74.7926L138.292 49.3727L119.123 50.7468Z" fill="var(--fill-0, #9D6C4D)"/>
<path d="M146.508 40.4414L138.292 49.3727L146.508 74.7926L153.354 62.4262L146.508 40.4414Z" fill="#906144"/>
<path d="M144.393 32.2524C144.098 32.2263 143.874 32.5118 143.967 32.7934L146.508 40.4414L153.354 62.4262H159.943C161.278 62.4262 162.418 61.4607 162.643 60.1406L164.65 48.3422L167.046 34.2582L144.393 32.2524Z" fill="#9E6D4D"/>
<path d="M162.254 25.3269L167.046 34.2582L164.65 48.3422L175.451 46.3968C176.881 46.1392 177.862 44.8053 177.685 43.3579L173.892 12.2735L162.254 25.3269Z" fill="#906144"/>
<path d="M138.292 49.3727L109.387 43.5714C108.952 43.484 108.707 44.0555 109.07 44.3124L119.123 51.4338L138.292 49.3727Z" fill="var(--fill-0, #9D6C4D)"/>
</g>
</svg>
