<svg preserveAspectRatio="none" width="128" height="91.9575" overflow="visible" style="display: block;" viewBox="0 0 128 91.9575" fill="none" xmlns="http://www.w3.org/2000/svg">
<g id="Vector">
<path d="M102.39 15.0874C102.197 15.0231 102.123 14.7898 102.242 14.6258L111.5 1.95745L87.1115 0.00637062C86.713 -0.0255097 86.3141 0.0627699 85.9662 0.259814L0 48.9575L15.7607 53.8827C15.8992 53.926 15.9869 54.0622 15.9689 54.2062L14.5 65.9574L51.8322 51.7807C52.1609 51.6558 52.3992 52.1009 52.1131 52.3052L22.5 73.4574L27.5 77.4574L111.5 38.9575L120 20.9575L112.5 18.4575L102.39 15.0874Z" fill="#B88864"/>
<path d="M111.5 38.9575L27.5 77.4574V91.9574L128 45.4575L111.5 38.9575Z" fill="var(--fill-0, #9D6C4D)"/>
<path d="M120 20.9575L111.5 38.9575L128 45.4575V33.563C128 33.1682 127.883 32.7821 127.664 32.4536L120 20.9575Z" fill="#906144"/>
<path d="M27.5 77.4574L22.5 73.4574L21 81.4574L27.5 91.9574V77.4574Z" fill="#906144"/>
<path fill-rule="evenodd" clip-rule="evenodd" d="M0 48.9575V62.2144C0 63.2133 0.737123 64.0591 1.72673 64.1956L14.5 65.9574L15.9689 54.2062C15.9869 54.0622 15.8992 53.926 15.7607 53.8827L0 48.9575ZM112.5 18.4575L111.5 1.95745L102.242 14.6258C102.123 14.7898 102.197 15.0231 102.39 15.0874L112.5 18.4575Z" fill="#906144"/>
<path d="M22.5 73.4574L52.1131 52.3052C52.3992 52.1009 52.1609 51.6558 51.8322 51.7807L14.5 65.9574L11.9607 79.0774C11.7218 80.3115 12.6672 81.4574 13.9242 81.4574H21L22.5 73.4574Z" fill="var(--fill-0, #9D6C4D)"/>
<path d="M75.3183 33.2983L108 16.9575L118.5 20.4575L75.5418 33.853C75.1895 33.9629 74.9883 33.4633 75.3183 33.2983Z" fill="var(--fill-0, #9D6C4D)"/>
</g>
</svg>
