<svg preserveAspectRatio="none" width="86" height="42.4479" overflow="visible" style="display: block;" viewBox="0 0 86 42.4479" fill="none" xmlns="http://www.w3.org/2000/svg">
<g id="Vector 147">
<path d="M70.5 21.4479L62 26.9479L63.5 42.4479L71.4839 36.9479L70.5 21.4479Z" fill="#9D6C4D"/>
<path d="M58.9568 15.8574C58.6069 15.7991 58.4633 16.2893 58.7893 16.4291L70.5 21.4479L71.4839 36.9479L75.5 34.1813L74.5 18.4479L58.9568 15.8574Z" fill="#906144"/>
<path d="M86 12.9479L74.5 18.4479L75.5 34.1813L85.1346 27.5441C85.6764 27.1709 86 26.555 86 25.8971V12.9479Z" fill="#9D6C4D"/>
<path d="M68.5 3.44794L57.254 10.4767C57.0104 10.6289 57.0993 11.0034 57.3853 11.0298L68.5 12.0581V3.44794Z" fill="#906144"/>
<path d="M62 26.9479L0 18.4479V33.1703C0 34.1841 0.758585 35.0375 1.76541 35.1565L63.5 42.4479L62 26.9479Z" fill="#906144"/>
<path fill-rule="evenodd" clip-rule="evenodd" d="M17.484 7.84288L29.9361 0.289983C30.3023 0.0678389 30.7302 -0.0308546 31.1567 0.00843177L68.5 3.44794L57.254 10.4767C57.0104 10.6289 57.0993 11.0034 57.3853 11.0298L68.5 12.0581L86 12.9479L74.5 18.4479L58.9568 15.8574C58.6069 15.7991 58.4633 16.2893 58.7893 16.4291L70.5 21.4479L62 26.9479L0 18.4479L10 12.3824L44.0731 16.5307C44.4372 16.575 44.5474 16.0523 44.1964 15.9458L17.484 7.84288Z" fill="var(--fill-0, #B88864)"/>
<path d="M17.484 7.84288L10 12.3824L44.0731 16.5307C44.4372 16.575 44.5474 16.0523 44.1964 15.9458L17.484 7.84288Z" fill="#9D6C4D"/>
</g>
</svg>
