<svg preserveAspectRatio="none" width="185" height="211" overflow="visible" style="display: block;" viewBox="0 0 185 211" fill="none" xmlns="http://www.w3.org/2000/svg">
<path id="Union" d="M89 0C117.407 0 141.042 22.5346 146.029 52.2871C147.493 52.0977 148.985 52 150.5 52C169.554 52 185 67.4462 185 86.5C185 99.8909 177.371 111.499 166.222 117.217C173.533 124.522 178 134.28 178 145C178 167.047 159.112 185.026 135.432 185.958C124.852 201.162 107.993 211 89 211C70.4316 211 46 195.5 46 180.5C21.0934 173.482 0 155.539 0 126.5C0 102.339 12.7226 81.3817 31.3418 70.9795C31.1165 68.6871 31 66.3585 31 64C31 28.6538 56.9675 0 89 0Z" fill="var(--fill-0, #F3ECE3)"/>
</svg>
