<svg preserveAspectRatio="none" width="117.434" height="122.89" overflow="visible" style="display: block;" viewBox="0 0 117.434 122.89" fill="none" xmlns="http://www.w3.org/2000/svg">
<path id="Union" d="M27.0393 31.4652C29.5533 12.0173 45.3613 -1.96871 62.3479 0.226899C77.6083 2.1996 88.6256 16.5613 88.885 33.5609C100.214 33.5135 110.67 39.4263 115.204 49.6312C121.521 63.8483 113.954 81.012 98.302 87.9671C97.1173 88.4935 95.9195 88.9443 94.716 89.3255C97.4293 102.014 91.2063 115.192 79.1311 120.558C67.227 125.847 53.4986 121.828 45.8322 111.636C41.3638 112.844 36.591 113.214 31.717 112.584C11.7862 110.008 -2.27733 91.7189 0.305878 71.7347C2.25716 56.6399 13.1482 44.8975 26.9494 41.1644C26.5962 38.0306 26.6114 34.7755 27.0393 31.4652Z" fill="var(--fill-0, #F3ECE3)"/>
</svg>
