<svg preserveAspectRatio="none" width="89" height="91" overflow="visible" style="display: block;" viewBox="0 0 89 91" fill="none" xmlns="http://www.w3.org/2000/svg">
<path id="Union" d="M34.4418 0C46.5592 0 56.819 8.17404 60.2999 19.4542C60.8206 19.4279 61.3451 19.4133 61.8733 19.4133C76.855 19.4133 89 30.1421 89 43.3767C89 50.363 85.6146 56.6497 80.2151 61.0298C80.7761 62.9495 81.0753 64.9622 81.0753 67.0367C81.0753 80.2713 68.9303 91 53.9486 91C49.5599 91 45.4152 90.0782 41.7473 88.4436C36.6421 90.8344 30.953 91.1843 25.8593 88.9252C21.3759 86.9368 18.0937 83.2556 16.2619 78.7357C6.68917 75.1286 0 66.9028 0 57.33C0 50.1346 3.77963 43.7001 9.72187 39.4156C8.1758 35.9066 7.31507 32.01 7.31507 27.9067C7.31507 12.4942 19.4601 0 34.4418 0Z" fill="var(--fill-0, #F3ECE3)"/>
</svg>
