<svg preserveAspectRatio="none" width="24" height="31.0844" overflow="visible" style="display: block;" viewBox="0 0 24 31.0844" fill="none" xmlns="http://www.w3.org/2000/svg">
<g id="Group 46">
<rect id="Rectangle 26" x="8.58906" y="26.748" width="6.74551" height="4.3364" rx="2" fill="var(--fill-0, #8E8E8E)"/>
<path id="Vector" d="M17.7437 24.3388C18.1437 22.3388 19.4 20.6 21 19C23 17.2 24 14.6 24 12C24 8.8174 22.7357 5.76515 20.4853 3.51472C18.2348 1.26428 15.1826 0 12 0C8.8174 0 5.76516 1.26428 3.51472 3.51472C1.26428 5.76515 0 8.8174 0 12C0 14 0.4 16.4 3 19C4.4 20.4 5.77993 22.3388 6.17993 24.3388" fill="var(--fill-0, #FECF30)"/>
<path id="Vector 104" d="M9.275 24.4626V14.8626H14.875V24.4626" stroke="var(--stroke-0, #FAA42B)" stroke-width="2" stroke-linecap="round"/>
<path id="Rectangle 27" d="M6.18125 24.3388H17.745V26.6752C17.745 27.7797 16.8496 28.6752 15.745 28.6752H8.18125C7.07668 28.6752 6.18125 27.7797 6.18125 26.6752V24.3388Z" fill="var(--fill-0, #C2C2C2)"/>
<path id="Vector 145" d="M4.42215 7.56405C4.31792 7.72236 4.26579 7.91375 4.28765 8.10475C4.30942 8.29567 4.40194 8.46936 4.54714 8.5895C4.69234 8.70963 4.88028 8.76799 5.07191 8.75363C5.26362 8.73934 5.44187 8.65229 5.57785 8.52027C5.57785 8.52027 5.57785 8.52027 5.57785 8.52027C5.68807 8.41323 5.79249 8.31394 5.90196 8.20986C6.87318 7.29069 7.8421 6.46084 8.88862 5.99264C9.92647 5.51243 11.1592 5.37033 12.4962 5.30867C12.6473 5.30182 12.791 5.29536 12.9441 5.29007C13.1335 5.28356 13.3198 5.21542 13.463 5.08714C13.6062 4.95897 13.6944 4.78305 13.7084 4.59512C13.7225 4.40719 13.6614 4.22011 13.5389 4.07207C13.4163 3.92393 13.2423 3.82885 13.0559 3.79425C12.8959 3.76559 12.7441 3.73977 12.5822 3.71599C11.1769 3.50506 9.55534 3.48745 8.06402 4.17055C6.5769 4.8465 5.5221 6.00895 4.6937 7.16864C4.59927 7.30123 4.51268 7.42852 4.42215 7.56405Z" fill="var(--stroke-0, #EEEEEE)"/>
</g>
</svg>
