<svg width="146" height="103" viewBox="0 0 146 103" fill="none" xmlns="http://www.w3.org/2000/svg">
  <!-- Rock Right Big (offset x=48, y=0, w=98, h=85.8) -->
  <g transform="translate(48, 0)">
    <path d="M74.8609 12.0888C74.8609 19.5664 50.7887 36.7499 30.1165 36.7499C9.44419 36.7499 0 30.6013 0 23.1237C0 15.6461 16.7582 2.20239e-05 37.4305 2.20239e-05C58.1027 2.20239e-05 70.9888 6.28619 74.8609 12.0888Z" fill="#CDCCCC"/>
    <path d="M0 23.1237C2.53333 24.8869 5.4443 26.0324 8.49983 26.4685L10.7941 26.7959C12.72 27.0708 14.676 27.0587 16.5983 26.76L23.8194 25.638L46.6619 53.9112L53.0832 85.7647C34.6603 83.5187 23.5025 79.6239 8.37631 69.0262C2.98908 65.2517 0 58.9634 0 52.3856V23.1237Z" fill="#BAB8B9"/>
    <path d="M17.1236 28.6158L35.1034 52.5059L53.0832 85.7647L23.567 81.9197C19.5589 81.3976 16.1029 78.8466 14.4231 75.1703L5.13708 54.8481L17.1236 28.6158Z" fill="#BAB8B9"/>
    <path d="M59.3724 17.4939C64.0096 13.0107 68.1863 11.7491 74.6869 12.4425C85.5558 30.4156 89.8425 42.2413 97.6463 64.7485C98.4167 67.3604 97.9041 73.3237 96.3468 75.49C88.9827 89.5005 83.3513 82.4953 53.0286 85.7644C52.7534 85.1708 52.4911 84.553 52.2417 83.9136C46.8064 69.9832 43.7977 54.9311 35.3724 42.5774L23.8196 25.6377C33.6122 26.5304 39.6368 27.0967 47.3571 25.3633C52.1187 24.2941 55.8638 20.886 59.3724 17.4939Z" fill="#A5A0A4"/>
  </g>
  <!-- Rock Right Small (offset x=0, y=53, w=85, h=50) -->
  <g transform="translate(0, 53)">
    <path d="M61.5 22L85 0V25.3551C85 34.1578 79.2445 41.9256 70.8232 44.4886L56 49L61.5 22Z" fill="#A5A0A4"/>
    <path d="M2 20L62 21.5L58.1169 46.0927C57.7751 48.2577 55.7547 49.7443 53.5861 49.4266L24.2073 45.1228C17.7692 44.1797 12.1923 40.1636 9.25697 34.3565L2 20Z" fill="#BAB8B9"/>
    <path d="M24.7014 4.54583C29.4643 1.57496 34.9651 0 40.5786 0H85C78.7067 8.62668 73.7115 14.0595 65.9154 19.7991C60.34 23.9038 52.8545 24.0296 46.0421 22.7952C37.522 21.2513 24.604 20.426 3.3877 20.0145C2.39143 19.9952 2.0271 18.6891 2.87256 18.1617L24.7014 4.54583Z" fill="#D9D9D9"/>
  </g>
</svg>
