<svg width="138.86" height="82.765" viewBox="0 0 138.86 82.765" fill="none" xmlns="http://www.w3.org/2000/svg">
  <!-- Rock Left Big (width 107.1, height 63, mirrored and placed at x=107.1) -->
  <g transform="translate(107.1, 0) scale(-1, 1)">
    <path d="M77.4901 27.72L107.1 0V35.8003C107.1 44.603 101.345 52.3708 92.9233 54.9338L70.5601 61.74L77.4901 27.72Z" fill="#A5A0A4"/>
    <path d="M2.5201 25.2L78.1201 27.09L73.067 59.0927C72.7252 61.2577 70.7048 62.7443 68.5362 62.4266L27.8314 56.4636C21.3934 55.5205 15.8165 51.5044 12.8812 45.6973L2.5201 25.2Z" fill="#BAB8B9"/>
    <path d="M33.0187 4.54583C37.7816 1.57496 43.2824 0 48.8959 0H107.1C98.5563 11.7117 91.9112 18.7514 80.7047 26.6366C75.0425 30.6207 67.6173 30.7526 60.8514 29.2848C50.0914 26.9504 33.1394 25.7612 3.39631 25.2016C2.40004 25.1829 2.0272 23.877 2.87266 23.3496L33.0187 4.54583Z" fill="#D9D9D9"/>
  </g>
  <!-- Rock Left Small (width 88.86, height 77.76, mirrored and placed at x=50+88.86=138.86, y=5) -->
  <g transform="translate(138.86, 5) scale(-1, 1)">
    <path d="M67.8782 10.9612C67.8782 17.7413 46.0514 33.322 27.3074 33.322C8.56342 33.322 0.000165716 27.7469 0.000165716 20.9668C0.000165716 14.1866 15.1952 0 33.9392 0C52.6832 0 64.3673 5.69981 67.8782 10.9612Z" fill="#CDCCCC"/>
    <path d="M0.000165716 20.9671C2.29719 22.5658 4.93663 23.6044 7.70714 23.9998L9.78744 24.2967C11.5337 24.546 13.3072 24.535 15.0502 24.2642L21.5977 23.2468L42.3095 48.8828L48.1319 77.765C31.4274 75.7285 21.3104 72.197 7.59515 62.5878C2.71043 59.1655 0.000165716 53.4637 0.000165716 47.4994V20.9671Z" fill="#BAB8B9"/>
    <path d="M15.5265 25.9469L31.8292 47.6085L48.1319 77.765L21.3689 74.2787C17.7347 73.8053 14.6011 71.4922 13.0779 68.1588L4.65807 49.7322L15.5265 25.9469Z" fill="#BAB8B9"/>
    <path d="M53.8346 15.8622C58.0392 11.7971 61.8264 10.6533 67.7206 11.282C77.5756 27.5786 81.4625 38.3012 88.5384 58.709C89.2369 61.0773 88.7721 66.4843 87.3601 68.4485C80.6829 81.1522 75.5768 74.8003 48.0826 77.7645C41.8772 64.3829 39.3566 49.2853 31.0457 37.0991L21.5981 23.2464C30.4772 24.0558 35.9399 24.5692 42.9401 22.9975C47.2575 22.0281 50.6533 18.9379 53.8346 15.8622Z" fill="#A5A0A4"/>
  </g>
</svg>
