<svg width="80" height="68" viewBox="0 0 80 68" fill="none" xmlns="http://www.w3.org/2000/svg">
<path d="M46.8959 56C47.6458 64.912 34.7949 68 24.3818 68C13.9688 68 2.95045 65.0743 3.01001 56C3.01001 48.7413 5.75286 37.1429 24.3818 40.2285C43.6959 35.6573 46.2872 48.7669 46.8959 56Z" fill="#FADA3A"/>
<path d="M25.9574 8.58773C24.8011 8.17376 23.4315 8.99546 22.7613 10.4475C22.6302 10.6562 22.5161 10.8829 22.4235 11.1255C22.2865 11.3571 22.1671 11.6092 22.0706 11.8788C22.0239 12.0092 21.9839 12.1399 21.9504 12.2702C21.9428 12.2905 21.9353 12.3109 21.928 12.3314C21.6831 13.0152 21.5985 13.6983 21.6546 14.2986C11.1793 15.5496 3.14646 23.4732 3.10979 32.9591C1.43781 34.6788 0.589928 36.9503 0.641914 39.4099C0.76693 45.3246 6.33834 48.3466 13.228 49.9821C20.1177 51.6177 25.4417 52.6116 35.5036 50.5066C42.4452 49.0543 47.6594 46.2653 48.6754 40.3058C48.8409 37.4727 47.7217 34.8168 45.7514 32.7516C45.7509 32.6609 45.7499 32.57 45.748 32.4791C45.5673 23.9305 38.9438 16.8519 30.0374 14.7575C30.8269 13.7381 31.0854 12.5496 30.7456 11.7533C30.7068 11.6136 30.6477 11.4812 30.5667 11.3589C30.0392 10.5623 28.7615 10.4468 27.5128 11.009C27.4697 10.798 27.4065 10.5959 27.3248 10.4062C27.1683 9.54195 26.6858 8.84851 25.9574 8.58773Z" fill="#FADA3A"/>
<path d="M32.7886 31.9832C32.8074 32.8847 33.116 33.6851 33.6199 34.3138C34.2492 35.0991 35.1831 35.6057 36.2352 35.5838C37.2956 35.5616 38.183 35.0279 38.7953 34.2058C39.2769 33.5592 39.6075 32.7338 39.5889 31.8412C39.5709 30.9766 39.1792 30.1896 38.6987 29.572C38.0527 28.7416 37.1699 28.2794 36.0834 28.3021C35.0073 28.3245 34.1353 28.8539 33.5233 29.68C33.058 30.3082 32.7704 31.1074 32.7886 31.9832Z" fill="#040301"/>
<ellipse cx="0.782504" cy="0.842696" rx="0.782504" ry="0.842696" transform="matrix(-0.999783 0.0208669 0.0208355 0.999783 35.8145 29.873)" fill="white"/>
<path d="M16.1646 32.8782C16.1834 33.7797 16.492 34.5801 16.9959 35.2089C17.6252 35.9941 18.5591 36.5008 19.6112 36.4788C20.6716 36.4567 21.5589 35.923 22.1713 35.1008C22.6529 34.4542 22.9835 33.6288 22.9649 32.7363C22.9469 31.8716 22.5552 31.0846 22.0747 30.467C21.4287 29.6366 20.5459 29.1744 19.4594 29.1971C18.3833 29.2195 17.5113 29.7489 16.8993 30.575C16.434 31.2032 16.1464 32.0025 16.1646 32.8782Z" fill="#040301"/>
<ellipse cx="0.782504" cy="0.842696" rx="0.782504" ry="0.842696" transform="matrix(-0.999783 0.0208667 0.0208356 0.999783 19.1904 30.7681)" fill="white"/>
<ellipse cx="3.13001" cy="2.10674" rx="3.13001" ry="2.10674" transform="matrix(-0.993733 0.111826 0.111662 0.993742 43.999 34.7705)" fill="#F99091"/>
<ellipse cx="3.13002" cy="2.10674" rx="3.13002" ry="2.10674" transform="matrix(-0.976762 -0.214298 -0.21405 0.97683 17.3555 36.6787)" fill="#F99091"/>
<path fill-rule="evenodd" clip-rule="evenodd" d="M27.5396 32.4466C28.5505 32.4708 29.1104 32.6205 30.1465 33.1106C30.3736 33.2311 30.5213 33.3224 30.6545 33.4256C30.7879 33.529 30.9083 33.6455 31.0808 33.8183C31.4071 34.2168 31.5742 34.4142 31.6827 34.8964C31.7922 35.3831 31.7548 35.6648 31.698 36.201C31.5231 37.1676 31.3699 37.7017 30.9722 38.6438C30.7899 38.9518 30.6713 39.1661 30.5132 39.3775C30.3553 39.5885 30.1574 39.7974 29.817 40.0897C29.5157 40.3483 29.2623 40.5134 28.9965 40.6268C28.7316 40.7399 28.4514 40.8031 28.0941 40.8549C27.7285 40.8507 27.4425 40.7799 27.1645 40.7168C26.8878 40.6541 26.6167 40.539 26.2854 40.3231C25.9095 40.0782 25.6858 39.8971 25.5016 39.7088C25.3171 39.52 25.1713 39.3232 24.9501 39.0418C24.4321 38.1603 24.21 37.651 23.9095 36.7158C23.7827 36.1917 23.7086 35.9174 23.7532 35.4205C23.7974 34.9282 23.937 34.7106 24.2082 34.2726C24.3565 34.0786 24.4605 33.9472 24.5792 33.8272C24.6977 33.7073 24.8321 33.5974 25.0414 33.448C26.0051 32.8252 26.5466 32.6034 27.5396 32.4466Z" fill="#FF7518"/>
<path d="M31.1694 35.5153C30.9404 37.2896 30.1404 39.9772 28.04 39.9751C25.9498 40.2942 25.0498 38.0729 24.3192 35.9194C27.0534 35.121 28.2633 35.0689 31.1694 35.5153Z" fill="#C22F07"/>
<path d="M30.4712 38.1045C30.0461 39.2813 29.4522 39.795 28.1001 40.0107C26.7931 40.0977 26.1927 39.7807 25.4024 38.4396C25.7858 38.0722 26.0523 37.932 26.5679 37.8196C27.1708 37.8198 27.4617 37.9231 27.9368 38.272C28.2709 37.9075 28.5076 37.7483 29.1506 37.6489C29.7912 37.6087 30.0632 37.7379 30.4712 38.1045Z" fill="#F4551D"/>
<path d="M45.7139 30.4003C45.7139 29.6429 46.3279 29.0289 47.0853 29.0289H74.0568C74.8143 29.0289 75.4283 29.6429 75.4283 30.4003V63.0862C75.4283 63.8436 74.8143 64.4576 74.0568 64.4576H47.0853C46.3279 64.4576 45.7139 63.8436 45.7139 63.0862V30.4003Z" fill="#FAC75F"/>
<path d="M47.771 32.6861C47.771 31.9286 48.385 31.3146 49.1425 31.3146H71.9997C72.7571 31.3146 73.3711 31.9286 73.3711 32.6861V61.029C73.3711 61.7865 72.7571 62.4005 71.9997 62.4005H49.1425C48.385 62.4005 47.771 61.7865 47.771 61.029V32.6861Z" fill="white"/>
<path d="M54.171 27.886C54.171 27.6336 54.3757 27.4289 54.6282 27.4289H66.514C66.7664 27.4289 66.9711 27.6336 66.9711 27.886V32.2289C66.9711 32.4814 66.7664 32.6861 66.514 32.6861H54.6282C54.3757 32.6861 54.171 32.4814 54.171 32.2289V27.886Z" fill="#A5A09A"/>
<path d="M57.8282 27.4289C57.8282 26.7014 58.1172 26.0038 58.6316 25.4894C59.146 24.975 59.8436 24.686 60.5711 24.686C61.2985 24.686 61.9962 24.975 62.5106 25.4894C63.025 26.0038 63.3139 26.7014 63.3139 27.4289L62.4057 27.4289C62.4057 26.9423 62.2124 26.4757 61.8683 26.1317C61.5243 25.7876 61.0576 25.5943 60.5711 25.5943C60.0845 25.5943 59.6179 25.7876 59.2738 26.1317C58.9298 26.4757 58.7365 26.9423 58.7365 27.4289H57.8282Z" fill="#A5A09A"/>
<path d="M55.7711 28.5718C55.7711 28.8242 55.5664 29.0289 55.3139 29.0289C55.0614 29.0289 54.8568 28.8242 54.8568 28.5718C54.8568 28.3193 55.0614 28.1146 55.3139 28.1146C55.5664 28.1146 55.7711 28.3193 55.7711 28.5718Z" fill="#736B61"/>
<path d="M66.2854 28.5718C66.2854 28.8242 66.0807 29.0289 65.8282 29.0289C65.5758 29.0289 65.3711 28.8242 65.3711 28.5718C65.3711 28.3193 65.5758 28.1146 65.8282 28.1146C66.0807 28.1146 66.2854 28.3193 66.2854 28.5718Z" fill="#736B61"/>
<path d="M66.2854 31.5432C66.2854 31.7957 66.0807 32.0004 65.8282 32.0004C65.5758 32.0004 65.3711 31.7957 65.3711 31.5432C65.3711 31.2907 65.5758 31.0861 65.8282 31.0861C66.0807 31.0861 66.2854 31.2907 66.2854 31.5432Z" fill="#736B61"/>
<path d="M55.7711 31.5432C55.7711 31.7957 55.5664 32.0004 55.3139 32.0004C55.0614 32.0004 54.8568 31.7957 54.8568 31.5432C54.8568 31.2907 55.0614 31.0861 55.3139 31.0861C55.5664 31.0861 55.7711 31.2907 55.7711 31.5432Z" fill="#736B61"/>
<path d="M53.2568 39.0861C53.2568 39.591 52.8474 40.0004 52.3425 40.0004C51.8375 40.0004 51.4282 39.591 51.4282 39.0861C51.4282 38.5811 51.8375 38.1718 52.3425 38.1718C52.8474 38.1718 53.2568 38.5811 53.2568 39.0861Z" fill="#F6A694"/>
<path d="M53.2568 43.2004C53.2568 43.7053 52.8474 44.1147 52.3425 44.1147C51.8375 44.1147 51.4282 43.7053 51.4282 43.2004C51.4282 42.6955 51.8375 42.2861 52.3425 42.2861C52.8474 42.2861 53.2568 42.6955 53.2568 43.2004Z" fill="#F6A694"/>
<path d="M53.2568 48.229C53.2568 48.7339 52.8474 49.1433 52.3425 49.1433C51.8375 49.1433 51.4282 48.7339 51.4282 48.229C51.4282 47.724 51.8375 47.3147 52.3425 47.3147C52.8474 47.3147 53.2568 47.724 53.2568 48.229Z" fill="#F6A694"/>
<path d="M53.2568 52.8004C53.2568 53.3054 52.8474 53.7147 52.3425 53.7147C51.8375 53.7147 51.4282 53.3054 51.4282 52.8004C51.4282 52.2955 51.8375 51.8861 52.3425 51.8861C52.8474 51.8861 53.2568 52.2955 53.2568 52.8004Z" fill="#F6A694"/>
<path d="M55.524 39.357C55.2478 39.357 55.0329 39.1333 55.0439 38.8574C55.055 38.5815 55.2878 38.3578 55.5639 38.3578L55.5439 38.8574L55.524 39.357ZM55.6439 38.8574L55.6639 38.3577L55.6736 38.3579L55.6439 38.8574ZM60.6758 38.8112L60.4149 39.2476L60.6758 38.8112ZM61.8045 39.0937L61.7939 38.595L61.8045 39.0937ZM65.2492 38.4765L65.1787 37.9851L65.2492 38.4765ZM69.0302 38.6668H69.5302L69.5253 38.7898L69.4638 38.8987L69.0302 38.6668ZM68.9226 38.8574L68.9026 39.357H68.076L68.489 38.6255L68.9226 38.8574ZM69.0426 38.3578C69.3187 38.3578 69.5336 38.5815 69.5226 38.8574C69.5116 39.1333 69.2788 39.357 69.0026 39.357L69.0226 38.8574L69.0426 38.3578ZM55.5439 38.8574L55.5639 38.3578H55.6639L55.6439 38.8574L55.624 39.357H55.524L55.5439 38.8574ZM55.6439 38.8574L55.6736 38.3579C56.3629 38.3713 56.8871 38.3693 57.2518 38.353L57.2542 38.8521L57.2565 39.3512C56.8598 39.3689 56.3106 39.3705 55.6143 39.3569L55.6439 38.8574ZM57.2542 38.8521L57.2518 38.353C57.6973 38.3332 58.1362 38.3982 58.5655 38.5441L58.3875 39.0178L58.2095 39.4914C57.8891 39.3825 57.5723 39.3372 57.2565 39.3512L57.2542 38.8521ZM58.3875 39.0178L58.5655 38.5441C58.7824 38.6178 59.0083 38.5977 59.2853 38.4282L59.5342 38.8513L59.7831 39.2744C59.2811 39.5817 58.7425 39.6725 58.2095 39.4914L58.3875 39.0178ZM59.5342 38.8513L59.2853 38.4282C59.5426 38.2707 59.821 38.1735 60.1141 38.1632C60.4081 38.1529 60.6845 38.2311 60.9366 38.3747L60.6758 38.8112L60.4149 39.2476C60.2956 39.1796 60.1959 39.1587 60.1094 39.1618C60.022 39.1649 59.9153 39.1936 59.7831 39.2744L59.5342 38.8513ZM60.6758 38.8112L60.9366 38.3747C61.2385 38.5467 61.5217 38.6116 61.7939 38.595L61.8045 39.0937L61.8151 39.5923C61.3255 39.6222 60.8562 39.4989 60.4149 39.2476L60.6758 38.8112ZM61.8045 39.0937L61.7939 38.595C62.1278 38.5746 62.4665 38.5076 62.8112 38.3917L62.9537 38.8646L63.0961 39.3375C62.6704 39.4805 62.2431 39.5662 61.8151 39.5923L61.8045 39.0937ZM62.9537 38.8646L62.8112 38.3917C63.2343 38.2495 63.6589 38.1609 64.084 38.1276L64.1032 38.6257L64.1225 39.1238C63.7852 39.1501 63.4433 39.2208 63.0961 39.3375L62.9537 38.8646ZM64.1032 38.6257L64.084 38.1276C64.4478 38.0992 64.8126 38.0517 65.1787 37.9851L65.2492 38.4765L65.3197 38.9679C64.9201 39.0406 64.521 39.0926 64.1225 39.1238L64.1032 38.6257ZM65.2492 38.4765L65.1787 37.9851C65.753 37.8807 66.2724 38.0891 66.7146 38.4818L66.3738 38.8609L66.033 39.24C65.7413 38.981 65.5109 38.9332 65.3197 38.9679L65.2492 38.4765ZM66.3738 38.8609L66.7146 38.4818C67.0199 38.7528 67.2795 38.8398 67.5 38.8332L67.4949 39.3326L67.4899 39.832C66.9495 39.8481 66.4617 39.6206 66.033 39.24L66.3738 38.8609ZM67.4949 39.3326L67.5 38.8332C67.7499 38.8258 67.9899 38.7336 68.2332 38.5236L68.5517 38.8959L68.8703 39.2682C68.4654 39.6177 68.0009 39.8168 67.4899 39.832L67.4949 39.3326ZM68.5517 38.8959L68.2332 38.5236C68.3948 38.3841 68.563 38.2516 68.7129 38.1799C68.7547 38.1599 68.8121 38.136 68.8798 38.1215C68.9442 38.1076 69.0541 38.0942 69.1765 38.1344C69.316 38.1803 69.4209 38.2792 69.4785 38.4007C69.5286 38.5067 69.5326 38.607 69.5302 38.6668H69.0302H68.5302C68.5291 38.6949 68.5293 38.7698 68.5704 38.8566C68.6189 38.9591 68.7096 39.0453 68.8299 39.0848C68.933 39.1187 69.0184 39.1054 69.0533 39.0978C69.0913 39.0896 69.114 39.0786 69.1159 39.0777C69.1193 39.076 69.0998 39.0857 69.0504 39.122C69.0045 39.1558 68.9449 39.2037 68.8703 39.2682L68.5517 38.8959ZM69.0302 38.6668L69.4638 38.8987L69.3562 39.0894L68.9226 38.8574L68.489 38.6255L68.5966 38.4349L69.0302 38.6668ZM68.9226 38.8574L68.9426 38.3578H69.0426L69.0226 38.8574L69.0026 39.357H68.9026L68.9226 38.8574Z" fill="#D9D9D9"/>
<path d="M55.524 43.4713C55.2478 43.4713 55.0329 43.2476 55.0439 42.9717C55.055 42.6958 55.2878 42.4721 55.5639 42.4721L55.5439 42.9717L55.524 43.4713ZM55.6439 42.9717L55.6639 42.472L55.6736 42.4722L55.6439 42.9717ZM60.6758 42.9254L60.4149 43.3618L60.6758 42.9254ZM61.8045 43.2079L61.7939 42.7093L61.8045 43.2079ZM65.2492 42.5908L65.1787 42.0994L65.2492 42.5908ZM69.0302 42.7811H69.5302L69.5253 42.9041L69.4638 43.013L69.0302 42.7811ZM68.9226 42.9717L68.9026 43.4713H68.076L68.489 42.7397L68.9226 42.9717ZM69.0426 42.4721C69.3187 42.4721 69.5336 42.6958 69.5226 42.9717C69.5116 43.2476 69.2788 43.4713 69.0026 43.4713L69.0226 42.9717L69.0426 42.4721ZM55.5439 42.9717L55.5639 42.4721H55.6639L55.6439 42.9717L55.624 43.4713H55.524L55.5439 42.9717ZM55.6439 42.9717L55.6736 42.4722C56.3629 42.4856 56.8871 42.4836 57.2518 42.4673L57.2542 42.9664L57.2565 43.4655C56.8598 43.4832 56.3106 43.4847 55.6143 43.4712L55.6439 42.9717ZM57.2542 42.9664L57.2518 42.4673C57.6973 42.4474 58.1362 42.5125 58.5655 42.6584L58.3875 43.132L58.2095 43.6057C57.8891 43.4968 57.5723 43.4514 57.2565 43.4655L57.2542 42.9664ZM58.3875 43.132L58.5655 42.6584C58.7824 42.7321 59.0083 42.7119 59.2853 42.5424L59.5342 42.9656L59.7831 43.3887C59.2811 43.6959 58.7425 43.7868 58.2095 43.6057L58.3875 43.132ZM59.5342 42.9656L59.2853 42.5424C59.5426 42.3849 59.821 42.2878 60.1141 42.2775C60.4081 42.2671 60.6845 42.3454 60.9366 42.489L60.6758 42.9254L60.4149 43.3618C60.2956 43.2938 60.1959 43.273 60.1094 43.276C60.022 43.2791 59.9153 43.3078 59.7831 43.3887L59.5342 42.9656ZM60.6758 42.9254L60.9366 42.489C61.2385 42.6609 61.5217 42.7259 61.7939 42.7093L61.8045 43.2079L61.8151 43.7066C61.3255 43.7365 60.8562 43.6131 60.4149 43.3618L60.6758 42.9254ZM61.8045 43.2079L61.7939 42.7093C62.1278 42.6889 62.4665 42.6218 62.8112 42.506L62.9537 42.9789L63.0961 43.4517C62.6704 43.5948 62.2431 43.6804 61.8151 43.7066L61.8045 43.2079ZM62.9537 42.9789L62.8112 42.506C63.2343 42.3638 63.6589 42.2751 64.084 42.2419L64.1032 42.7399L64.1225 43.238C63.7852 43.2644 63.4433 43.335 63.0961 43.4517L62.9537 42.9789ZM64.1032 42.7399L64.084 42.2419C64.4478 42.2134 64.8126 42.1659 65.1787 42.0994L65.2492 42.5908L65.3197 43.0822C64.9201 43.1549 64.521 43.2068 64.1225 43.238L64.1032 42.7399ZM65.2492 42.5908L65.1787 42.0994C65.753 41.9949 66.2724 42.2034 66.7146 42.596L66.3738 42.9751L66.033 43.3543C65.7413 43.0952 65.5109 43.0474 65.3197 43.0822L65.2492 42.5908ZM66.3738 42.9751L66.7146 42.596C67.0199 42.8671 67.2795 42.9541 67.5 42.9475L67.4949 43.4469L67.4899 43.9463C66.9495 43.9624 66.4617 43.7349 66.033 43.3543L66.3738 42.9751ZM67.4949 43.4469L67.5 42.9475C67.7499 42.94 67.9899 42.8479 68.2332 42.6379L68.5517 43.0101L68.8703 43.3824C68.4654 43.732 68.0009 43.931 67.4899 43.9463L67.4949 43.4469ZM68.5517 43.0101L68.2332 42.6379C68.3948 42.4983 68.563 42.3659 68.7129 42.2941C68.7547 42.2741 68.8121 42.2503 68.8798 42.2357C68.9442 42.2218 69.0541 42.2085 69.1765 42.2487C69.316 42.2945 69.4209 42.3934 69.4785 42.515C69.5286 42.6209 69.5326 42.7212 69.5302 42.7811H69.0302H68.5302C68.5291 42.8091 68.5293 42.884 68.5704 42.9709C68.6189 43.0734 68.7096 43.1596 68.8299 43.1991C68.933 43.233 69.0184 43.2196 69.0533 43.2121C69.0913 43.2039 69.114 43.1928 69.1159 43.1919C69.1193 43.1903 69.0998 43.1999 69.0504 43.2363C69.0045 43.2701 68.9449 43.318 68.8703 43.3824L68.5517 43.0101ZM69.0302 42.7811L69.4638 43.013L69.3562 43.2036L68.9226 42.9717L68.489 42.7397L68.5966 42.5491L69.0302 42.7811ZM68.9226 42.9717L68.9426 42.4721H69.0426L69.0226 42.9717L69.0026 43.4713H68.9026L68.9226 42.9717Z" fill="#D9D9D9"/>
<path d="M55.524 48.4996C55.2478 48.4996 55.0329 48.2759 55.0439 48C55.055 47.7241 55.2878 47.5004 55.5639 47.5004L55.5439 48L55.524 48.4996ZM55.6439 48L55.6639 47.5003L55.6736 47.5005L55.6439 48ZM60.6758 47.9537L60.4149 48.3901L60.6758 47.9537ZM61.8045 48.2362L61.7939 47.7376L61.8045 48.2362ZM65.2492 47.6191L65.1787 47.1277L65.2492 47.6191ZM69.0302 47.8094H69.5302L69.5253 47.9324L69.4638 48.0413L69.0302 47.8094ZM68.9226 48L68.9026 48.4996H68.076L68.489 47.7681L68.9226 48ZM69.0426 47.5004C69.3187 47.5004 69.5336 47.7241 69.5226 48C69.5116 48.2759 69.2788 48.4996 69.0026 48.4996L69.0226 48L69.0426 47.5004ZM55.5439 48L55.5639 47.5004H55.6639L55.6439 48L55.624 48.4996H55.524L55.5439 48ZM55.6439 48L55.6736 47.5005C56.3629 47.5139 56.8871 47.5119 57.2518 47.4956L57.2542 47.9947L57.2565 48.4938C56.8598 48.5115 56.3106 48.513 55.6143 48.4995L55.6439 48ZM57.2542 47.9947L57.2518 47.4956C57.6973 47.4757 58.1362 47.5408 58.5655 47.6867L58.3875 48.1603L58.2095 48.634C57.8891 48.5251 57.5723 48.4797 57.2565 48.4938L57.2542 47.9947ZM58.3875 48.1603L58.5655 47.6867C58.7824 47.7604 59.0083 47.7403 59.2853 47.5708L59.5342 47.9939L59.7831 48.417C59.2811 48.7242 58.7425 48.8151 58.2095 48.634L58.3875 48.1603ZM59.5342 47.9939L59.2853 47.5708C59.5426 47.4133 59.821 47.3161 60.1141 47.3058C60.4081 47.2954 60.6845 47.3737 60.9366 47.5173L60.6758 47.9537L60.4149 48.3901C60.2956 48.3222 60.1959 48.3013 60.1094 48.3044C60.022 48.3074 59.9153 48.3361 59.7831 48.417L59.5342 47.9939ZM60.6758 47.9537L60.9366 47.5173C61.2385 47.6892 61.5217 47.7542 61.7939 47.7376L61.8045 48.2362L61.8151 48.7349C61.3255 48.7648 60.8562 48.6414 60.4149 48.3901L60.6758 47.9537ZM61.8045 48.2362L61.7939 47.7376C62.1278 47.7172 62.4665 47.6501 62.8112 47.5343L62.9537 48.0072L63.0961 48.4801C62.6704 48.6231 62.2431 48.7088 61.8151 48.7349L61.8045 48.2362ZM62.9537 48.0072L62.8112 47.5343C63.2343 47.3921 63.6589 47.3035 64.084 47.2702L64.1032 47.7683L64.1225 48.2663C63.7852 48.2927 63.4433 48.3634 63.0961 48.4801L62.9537 48.0072ZM64.1032 47.7683L64.084 47.2702C64.4478 47.2417 64.8126 47.1943 65.1787 47.1277L65.2492 47.6191L65.3197 48.1105C64.9201 48.1832 64.521 48.2351 64.1225 48.2663L64.1032 47.7683ZM65.2492 47.6191L65.1787 47.1277C65.753 47.0233 66.2724 47.2317 66.7146 47.6243L66.3738 48.0035L66.033 48.3826C65.7413 48.1235 65.5109 48.0758 65.3197 48.1105L65.2492 47.6191ZM66.3738 48.0035L66.7146 47.6243C67.0199 47.8954 67.2795 47.9824 67.5 47.9758L67.4949 48.4752L67.4899 48.9746C66.9495 48.9907 66.4617 48.7632 66.033 48.3826L66.3738 48.0035ZM67.4949 48.4752L67.5 47.9758C67.7499 47.9684 67.9899 47.8762 68.2332 47.6662L68.5517 48.0385L68.8703 48.4107C68.4654 48.7603 68.0009 48.9593 67.4899 48.9746L67.4949 48.4752ZM68.5517 48.0385L68.2332 47.6662C68.3948 47.5266 68.563 47.3942 68.7129 47.3224C68.7547 47.3024 68.8121 47.2786 68.8798 47.264C68.9442 47.2502 69.0541 47.2368 69.1765 47.277C69.316 47.3228 69.4209 47.4218 69.4785 47.5433C69.5286 47.6492 69.5326 47.7495 69.5302 47.8094H69.0302H68.5302C68.5291 47.8374 68.5293 47.9123 68.5704 47.9992C68.6189 48.1017 68.7096 48.1879 68.8299 48.2274C68.933 48.2613 69.0184 48.2479 69.0533 48.2404C69.0913 48.2322 69.114 48.2211 69.1159 48.2202C69.1193 48.2186 69.0998 48.2283 69.0504 48.2646C69.0045 48.2984 68.9449 48.3463 68.8703 48.4107L68.5517 48.0385ZM69.0302 47.8094L69.4638 48.0413L69.3562 48.2319L68.9226 48L68.489 47.7681L68.5966 47.5774L69.0302 47.8094ZM68.9226 48L68.9426 47.5004H69.0426L69.0226 48L69.0026 48.4996H68.9026L68.9226 48Z" fill="#D9D9D9"/>
<path d="M55.524 53.0714C55.2478 53.0714 55.0329 52.8477 55.0439 52.5718C55.055 52.2959 55.2878 52.0722 55.5639 52.0722L55.5439 52.5718L55.524 53.0714ZM55.6439 52.5718L55.6639 52.0721L55.6736 52.0723L55.6439 52.5718ZM60.6758 52.5255L60.4149 52.9619L60.6758 52.5255ZM61.8045 52.808L61.7939 52.3094L61.8045 52.808ZM65.2492 52.1909L65.1787 51.6995L65.2492 52.1909ZM69.0302 52.3812H69.5302L69.5253 52.5042L69.4638 52.6131L69.0302 52.3812ZM68.9226 52.5718L68.9026 53.0714H68.076L68.489 52.3398L68.9226 52.5718ZM69.0426 52.0722C69.3187 52.0722 69.5336 52.2959 69.5226 52.5718C69.5116 52.8477 69.2788 53.0714 69.0026 53.0714L69.0226 52.5718L69.0426 52.0722ZM55.5439 52.5718L55.5639 52.0722H55.6639L55.6439 52.5718L55.624 53.0714H55.524L55.5439 52.5718ZM55.6439 52.5718L55.6736 52.0723C56.3629 52.0857 56.8871 52.0837 57.2518 52.0674L57.2542 52.5665L57.2565 53.0656C56.8598 53.0833 56.3106 53.0848 55.6143 53.0713L55.6439 52.5718ZM57.2542 52.5665L57.2518 52.0674C57.6973 52.0475 58.1362 52.1126 58.5655 52.2585L58.3875 52.7321L58.2095 53.2058C57.8891 53.0969 57.5723 53.0515 57.2565 53.0656L57.2542 52.5665ZM58.3875 52.7321L58.5655 52.2585C58.7824 52.3322 59.0083 52.312 59.2853 52.1425L59.5342 52.5657L59.7831 52.9888C59.2811 53.296 58.7425 53.3869 58.2095 53.2058L58.3875 52.7321ZM59.5342 52.5657L59.2853 52.1425C59.5426 51.985 59.821 51.8879 60.1141 51.8776C60.4081 51.8672 60.6845 51.9455 60.9366 52.0891L60.6758 52.5255L60.4149 52.9619C60.2956 52.8939 60.1959 52.8731 60.1094 52.8761C60.022 52.8792 59.9153 52.9079 59.7831 52.9888L59.5342 52.5657ZM60.6758 52.5255L60.9366 52.0891C61.2385 52.261 61.5217 52.326 61.7939 52.3094L61.8045 52.808L61.8151 53.3067C61.3255 53.3366 60.8562 53.2132 60.4149 52.9619L60.6758 52.5255ZM61.8045 52.808L61.7939 52.3094C62.1278 52.289 62.4665 52.2219 62.8112 52.1061L62.9537 52.579L63.0961 53.0518C62.6704 53.1949 62.2431 53.2805 61.8151 53.3067L61.8045 52.808ZM62.9537 52.579L62.8112 52.1061C63.2343 51.9639 63.6589 51.8752 64.084 51.842L64.1032 52.34L64.1225 52.8381C63.7852 52.8645 63.4433 52.9351 63.0961 53.0518L62.9537 52.579ZM64.1032 52.34L64.084 51.842C64.4478 51.8135 64.8126 51.766 65.1787 51.6995L65.2492 52.1909L65.3197 52.6823C64.9201 52.755 64.521 52.8069 64.1225 52.8381L64.1032 52.34ZM65.2492 52.1909L65.1787 51.6995C65.753 51.595 66.2724 51.8035 66.7146 52.1961L66.3738 52.5752L66.033 52.9544C65.7413 52.6953 65.5109 52.6475 65.3197 52.6823L65.2492 52.1909ZM66.3738 52.5752L66.7146 52.1961C67.0199 52.4672 67.2795 52.5542 67.5 52.5476L67.4949 53.047L67.4899 53.5464C66.9495 53.5625 66.4617 53.335 66.033 52.9544L66.3738 52.5752ZM67.4949 53.047L67.5 52.5476C67.7499 52.5401 67.9899 52.448 68.2332 52.238L68.5517 52.6102L68.8703 52.9825C68.4654 53.3321 68.0009 53.5311 67.4899 53.5464L67.4949 53.047ZM68.5517 52.6102L68.2332 52.238C68.3948 52.0984 68.563 51.966 68.7129 51.8942C68.7547 51.8742 68.8121 51.8504 68.8798 51.8358C68.9442 51.8219 69.0541 51.8086 69.1765 51.8488C69.316 51.8946 69.4209 51.9935 69.4785 52.1151C69.5286 52.221 69.5326 52.3213 69.5302 52.3812H69.0302H68.5302C68.5291 52.4092 68.5293 52.4841 68.5704 52.571C68.6189 52.6735 68.7096 52.7597 68.8299 52.7992C68.933 52.8331 69.0184 52.8197 69.0533 52.8122C69.0913 52.804 69.114 52.7929 69.1159 52.792C69.1193 52.7904 69.0998 52.8 69.0504 52.8364C69.0045 52.8702 68.9449 52.9181 68.8703 52.9825L68.5517 52.6102ZM69.0302 52.3812L69.4638 52.6131L69.3562 52.8037L68.9226 52.5718L68.489 52.3398L68.5966 52.1492L69.0302 52.3812ZM68.9226 52.5718L68.9426 52.0722H69.0426L69.0226 52.5718L69.0026 53.0714H68.9026L68.9226 52.5718Z" fill="#D9D9D9"/>
<path d="M53.2637 43.5951C54.0728 46.3178 48.2304 51.0095 45.3441 51.3233C41.4864 51.7428 39.5756 48.711 39.9417 45.8945C40.3079 43.078 42.9654 42.139 45.8179 41.4733C48.6704 40.8076 52.4545 40.8724 53.2637 43.5951Z" fill="#FADA3A"/>
<path d="M45.3439 51.323C48.2303 51.0092 54.0726 46.3175 53.2635 43.5948C52.4543 40.8721 48.6702 40.8073 45.8177 41.473C42.9652 42.1387 41.8284 42.7432 40.9141 43.5937" stroke="#ECC234"/>
<path d="M75.4297 39.8145C76.2302 39.8145 77.0076 40.2802 77.6055 41.1396C78.202 41.9972 78.5869 43.2091 78.5869 44.5713C78.5869 45.9337 78.2021 47.1462 77.6055 48.0039C77.0076 48.8632 76.2302 49.3291 75.4297 49.3291C74.6292 49.3291 73.8518 48.8632 73.2539 48.0039C72.6573 47.1462 72.2725 45.9337 72.2725 44.5713C72.2725 43.209 72.6573 41.9972 73.2539 41.1396C73.8518 40.2802 74.6291 39.8145 75.4297 39.8145Z" fill="#FADA3A" stroke="#ECC234"/>
<path d="M56.6853 0C62.7447 0 67.6568 4.61656 67.6568 10.3114C67.6568 16.0062 62.7447 20.6227 56.6853 20.6227C55.4445 20.6227 54.2518 20.429 53.1395 20.0721C51.3572 22.0491 50.0596 22.7133 47.5367 22.5733C49.1473 20.8277 49.5718 19.433 49.4932 18.0983C47.1779 16.2078 45.7139 13.4203 45.7139 10.3114C45.7139 4.61656 50.626 0 56.6853 0Z" fill="#FC7F86"/>
<path d="M51.9216 7.70938C51.5834 8.2403 51.4024 8.86948 51.4023 9.51382C51.4023 10.8456 52.2069 11.8299 53.0115 12.6985C54.2243 14.0076 56.7662 15.3007 56.7662 15.3007C56.7662 15.3007 59.3081 14.0076 60.5208 12.6985C61.3254 11.8299 62.13 10.8398 62.13 9.51382C62.1328 8.86807 61.9534 8.23669 61.6156 7.70373C61.2779 7.17076 60.7977 6.76149 60.2392 6.53038C59.6806 6.29927 59.07 6.25728 58.4888 6.41001C57.9076 6.56274 57.1639 7.22134 56.7662 7.70373C56.3672 7.22446 55.6236 6.56869 55.0433 6.41779C54.463 6.2669 53.854 6.30957 53.2966 6.54017C52.7393 6.77078 52.2598 7.17846 51.9216 7.70938Z" fill="white"/>
</svg>
