<svg width="132" height="119" viewBox="0 0 132 119" fill="none" xmlns="http://www.w3.org/2000/svg">
    <path
        d="M60.6569 0.331465C63.8097 -0.873141 67.6203 1.30479 69.5461 5.25509C69.9185 5.82106 70.245 6.43732 70.5135 7.09835C70.9035 7.72658 71.246 8.41249 71.5269 9.14753C71.6628 9.50318 71.7803 9.85994 71.88 10.2158C71.9019 10.2712 71.9237 10.3269 71.945 10.3828C72.6574 12.2472 72.9296 14.1191 72.8103 15.7717C101.663 18.5994 124.193 39.902 124.845 65.9618C129.539 70.5896 132 76.7811 132 83.5417C132 99.7993 116.868 108.426 98.0341 113.321C79.2 118.215 64.6302 121.255 36.8634 116.057C17.7073 112.471 3.21951 105.111 0.0820016 88.7968C-0.537072 81.0226 2.38357 73.6605 7.67709 67.8717C7.67308 67.6226 7.67049 67.3729 7.67049 67.1229C7.67054 43.6255 25.4573 23.7923 49.8055 17.52C47.5773 14.7651 46.7981 11.5149 47.6855 9.30724C47.7838 8.92112 47.9386 8.55386 48.154 8.21317C49.5569 5.99386 53.0608 5.60219 56.5241 7.07414C56.6304 6.49192 56.7923 5.93299 57.0057 5.40726C57.3856 3.02358 58.6709 1.09031 60.6569 0.331465Z"
        fill="#FADA3A" />
    <path
        d="M51.6655 66.2632C51.8246 68.736 51.1667 70.9999 49.9338 72.8391C48.394 75.1362 45.9553 76.7417 43.0694 76.9274C40.1607 77.1146 37.6064 75.8606 35.7376 73.7526C34.2679 72.0947 33.1699 69.9118 33.0123 67.4635C32.8597 65.0917 33.7484 62.8453 34.9197 61.0421C36.4948 58.6173 38.8039 57.1455 41.7841 56.9537C44.736 56.7638 47.2473 58.0094 49.1159 60.1285C50.5368 61.7399 51.5109 63.8611 51.6655 66.2632Z"
        fill="#040301" />
    <ellipse cx="45.1804" cy="63.3654" rx="2.15038" ry="2.31579"
        transform="rotate(-3.68193 45.1804 63.3654)" fill="white" />
    <path
        d="M97.5024 64.8216C97.6615 67.2944 97.0036 69.5583 95.7707 71.3975C94.2309 73.6946 91.7922 75.3002 88.9063 75.4859C85.9976 75.673 83.4433 74.419 81.5745 72.311C80.1048 70.6531 79.0068 68.4702 78.8493 66.0219C78.6966 63.6502 79.5853 61.4037 80.7566 59.6005C82.3317 57.1757 84.6408 55.7039 87.621 55.5121C90.5729 55.3222 93.0842 56.5679 94.9528 58.687C96.3737 60.2983 97.3478 62.4195 97.5024 64.8216Z"
        fill="#040301" />
    <ellipse cx="91.0173" cy="61.9238" rx="2.15038" ry="2.31579"
        transform="rotate(-3.68193 91.0173 61.9238)" fill="white" />
    <ellipse cx="28.401" cy="79.9538" rx="8.6015" ry="5.78947"
        transform="rotate(16.1904 28.401 79.9538)" fill="#F99091" />
    <ellipse cx="104.547" cy="77.2219" rx="8.6015" ry="5.78947"
        transform="rotate(-17.2438 104.547 77.2219)" fill="#F99091" />
    <path fill-rule="evenodd" clip-rule="evenodd"
        d="M66.2449 66.3038C63.4828 66.6064 61.9847 67.1473 59.262 68.7312C58.6684 69.1144 58.2853 69.3989 57.9446 69.7126C57.6034 70.0268 57.3011 70.374 56.8691 70.8875C56.0685 72.0549 55.6571 72.6344 55.4727 73.9801C55.2865 75.3382 55.4546 76.1008 55.7354 77.5557C56.44 80.1617 56.9842 81.5882 58.2931 84.0747C58.8641 84.8757 59.2389 85.4346 59.7213 85.9764C60.2027 86.5173 60.7936 87.043 61.7938 87.7637C62.6791 88.4016 63.4117 88.7943 64.1659 89.0428C64.9175 89.2905 65.6995 89.398 66.69 89.4562C67.6902 89.3594 68.4567 89.0985 69.2033 88.861C69.9463 88.6246 70.6617 88.2461 71.5185 87.5774C72.4903 86.819 73.0607 86.271 73.5211 85.7121C73.9823 85.1521 74.3354 84.5793 74.8753 83.757C76.0881 81.2223 76.5772 79.7759 77.1815 77.1449C77.4063 75.6803 77.5452 74.9118 77.3071 73.5618C77.0712 72.2241 76.638 71.6609 75.7932 70.5249C75.3419 70.0284 75.0265 69.693 74.6735 69.3922C74.321 69.0917 73.9272 68.8222 73.3192 68.462C70.5351 66.9819 69.0007 66.5012 66.2449 66.3038Z"
        fill="#FF7518" />
    <path
        d="M56.9918 75.549C58.0328 80.3537 60.8508 87.5255 66.6016 87.0287C72.3995 87.4139 74.3451 81.1213 75.8429 75.054C68.1696 73.5071 64.8449 73.6473 56.9918 75.549Z"
        fill="#C22F07" />
    <path
        d="M59.5412 82.4803C60.98 85.6031 62.7261 86.8708 66.4789 87.1453C70.0779 87.078 71.6479 86.0697 73.4986 82.213C72.363 81.2968 71.6007 80.9749 70.1625 80.7879C68.5117 80.9294 67.7394 81.28 66.5199 82.3466C65.52 81.4266 64.8348 81.046 63.051 80.9241C61.2874 80.9638 60.5727 81.381 59.5412 82.4803Z"
        fill="#F4551D" />
</svg>