<svg preserveAspectRatio="none" width="100%" height="100%" overflow="visible" style="display: block;" viewBox="0 0 171.182 163.195" fill="none" xmlns="http://www.w3.org/2000/svg">
<path id="Star 3" d="M82.038 2.16246C83.5292 -0.720823 87.6527 -0.720821 89.1439 2.16247L113.217 48.7089C113.797 49.831 114.874 50.613 116.12 50.8182L167.828 59.3295C171.03 59.8567 172.305 63.7784 170.023 66.0876L133.194 103.366C132.306 104.265 131.895 105.53 132.085 106.779L139.969 158.586C140.457 161.795 137.121 164.219 134.22 162.762L87.3853 139.255C86.2562 138.689 84.9257 138.689 83.7966 139.255L36.9618 162.762C34.0606 164.219 30.7246 161.795 31.213 158.586L39.0967 106.779C39.2868 105.53 38.8756 104.265 37.9878 103.366L1.15852 66.0876C-1.12285 63.7784 0.151392 59.8567 3.35437 59.3295L55.0616 50.8182C56.3082 50.613 57.3845 49.831 57.9649 48.7089L82.038 2.16246Z" fill="var(--fill-0, #FFEA7A)"/>
</svg>
