<svg preserveAspectRatio="none" width="100%" height="100%" overflow="visible" style="display: block;" viewBox="0 0 52.6393 50.2589" fill="none" xmlns="http://www.w3.org/2000/svg">
<path id="Star 2" d="M24.5432 1.08123C25.2888 -0.36041 27.3505 -0.360412 28.0961 1.08123L34.8988 14.2345C35.189 14.7956 35.7272 15.1866 36.3505 15.2892L50.9621 17.6944C52.5636 17.958 53.2007 19.9188 52.0601 21.0734L41.6527 31.6077C41.2087 32.0571 41.0032 32.6898 41.0982 33.3142L43.326 47.954C43.5702 49.5586 41.9022 50.7704 40.4516 50.0424L27.2168 43.3997C26.6523 43.1163 25.987 43.1163 25.4225 43.3997L12.1877 50.0424C10.7371 50.7704 9.06912 49.5586 9.31329 47.954L11.5411 33.3142C11.6361 32.6898 11.4306 32.0571 10.9866 31.6077L0.57926 21.0734C-0.561423 19.9188 0.0756947 17.958 1.67718 17.6944L16.2889 15.2892C16.9121 15.1866 17.4503 14.7956 17.7405 14.2345L24.5432 1.08123Z" fill="var(--fill-0, #FFEA7A)"/>
</svg>
