<svg preserveAspectRatio="none" width="100%" height="100%" overflow="visible" style="display: block;" viewBox="0 0 315.705 304.44" fill="none" xmlns="http://www.w3.org/2000/svg">
<g id="Group 45">
<g id="Group 44">
<g id="Vector">
<path d="M205.017 293.195C197.108 294.781 187.835 289.671 189.549 279.507C179.285 277.308 170.782 274.256 166.936 269.225L194.176 248.729C205.531 251.23 202.667 249.885 208.179 252.248C213.691 254.61 219.176 267.209 219.176 267.209C219.176 267.209 223.125 276.66 219.971 282.958C216.816 289.257 212.875 291.619 205.017 293.195Z" fill="#F47112"/>
<path d="M205.017 293.195C197.108 294.781 187.835 289.671 189.549 279.507C179.285 277.308 170.782 274.256 166.936 269.225L194.176 248.729C205.531 251.23 202.667 249.885 208.179 252.248C213.691 254.61 219.176 267.209 219.176 267.209C219.176 267.209 223.125 276.66 219.971 282.958C216.816 289.257 212.875 291.619 205.017 293.195Z" fill="#F47112"/>
</g>
<g id="Group 11">
<path id="&#236;&#150;&#188;&#234;&#181;&#180;" d="M131.798 9.85353C136.954 8.43637 142.625 12.4615 145.052 18.9954C145.552 19.9464 145.972 20.9697 146.293 22.0548C146.811 23.1067 147.246 24.2425 147.575 25.4464C147.735 26.0289 147.865 26.6103 147.967 27.1875C147.993 27.2783 148.019 27.3696 148.044 27.4612C148.88 30.5147 149.02 33.5124 148.578 36.1035C193.626 45.0068 225.86 82.1097 222.872 123.359C229.558 131.389 232.484 141.544 231.443 152.219C228.938 177.89 203.755 189.185 173.311 194.016C142.867 198.847 119.43 201.407 76.4596 188.928C46.8144 180.318 25.1098 166.469 22.6774 140.226C22.8993 127.855 28.6377 116.679 37.8744 108.352C37.9064 107.958 37.9408 107.564 37.9793 107.169C41.5997 70.066 72.6946 41.4846 112.044 35.3256C108.956 30.6328 108.228 25.3808 109.967 22.0313C110.181 21.4367 110.482 20.8806 110.874 20.3758C113.428 17.0872 119.011 17.0077 124.244 19.8647C124.501 18.9617 124.843 18.1041 125.26 17.3067C126.226 13.6013 128.55 10.7463 131.798 9.85353Z" fill="var(--fill-0, #FADA3A)"/>
</g>
<g id="Vector_2">
<path d="M203.108 228.336C199.656 259.75 162.309 281.42 119.691 276.738C77.072 272.055 45.321 242.793 48.7726 211.379C52.2242 179.964 54.6068 152.847 97.2253 157.53C118.546 159.873 159.316 162.241 190.906 174.245C211.709 182.15 204.833 212.637 203.108 228.336Z" fill="var(--fill-0, #FADA3A)"/>
</g>
<g id="&#235;&#136;&#136;">
<path id="Ellipse 5" d="M137.107 114.178C136.573 118.267 137.417 122.098 139.264 125.288C141.569 129.271 145.443 132.204 150.214 132.828C155.023 133.457 159.401 131.653 162.735 128.357C165.356 125.764 167.418 122.259 167.947 118.21C168.46 114.288 167.23 110.46 165.482 107.338C163.132 103.139 159.459 100.442 154.531 99.7975C149.651 99.1593 145.345 100.954 142.011 104.268C139.476 106.789 137.626 110.205 137.107 114.178Z" fill="var(--fill-0, #040301)"/>
<ellipse id="Ellipse 6" cx="3.57891" cy="3.85421" rx="3.57891" ry="3.85421" transform="matrix(-0.991559 -0.129658 -0.129605 0.991566 152.243 106.717)" fill="var(--fill-0, white)"/>
</g>
<g id="&#235;&#136;&#136;_2">
<path id="Ellipse 5_2" d="M62.511 107.748C62.2462 111.863 63.3409 115.631 65.3924 118.692C67.9547 122.515 72.0126 125.187 76.8146 125.496C81.6547 125.808 85.905 123.721 89.0145 120.213C91.4601 117.453 93.2871 113.82 93.5493 109.745C93.8032 105.798 92.3245 102.059 90.3755 99.0581C87.7546 95.0225 83.9124 92.573 78.9533 92.2538C74.0414 91.9377 69.8627 94.0109 66.7534 97.5377C64.3891 100.22 62.7682 103.75 62.511 107.748Z" fill="var(--fill-0, #040301)"/>
<ellipse id="Ellipse 6_2" cx="3.57891" cy="3.85421" rx="3.57891" ry="3.85421" transform="matrix(-0.997935 -0.0642309 -0.0642043 0.997937 77.1173 99.3084)" fill="var(--fill-0, white)"/>
</g>
<ellipse id="&#235;&#179;&#188;" cx="51.1271" cy="136.05" rx="15.5297" ry="10.4527" transform="rotate(18.6188 51.1271 136.05)" fill="var(--fill-0, #F99091)"/>
<ellipse id="&#235;&#179;&#188;_2" cx="178.325" cy="141.562" rx="15.5297" ry="10.4527" transform="rotate(-14.8154 178.325 141.562)" fill="var(--fill-0, #F99091)"/>
<g id="&#236;&#158;&#133;">
<path id="Vector 134" d="M127.525 128.88C122.916 110.537 100.034 115.89 95.4511 123.532C90.8683 131.175 93.9103 135.76 93.8989 137.288C93.8874 138.816 92.3704 151.806 94.6631 159.45C96.9558 167.093 120.671 167.095 126.785 160.216C133.129 153.077 132.135 147.223 127.525 128.88Z" fill="var(--fill-0, #FF7518)"/>
<path id="Vector 135" d="M99.4357 158.382C96.4261 155.199 96.9674 145.689 97.361 132.291C97.6936 128.49 110.908 127.682 117.828 131.6C124.839 135.571 126.431 145.72 127.314 149.581C128.197 153.442 125.365 157.899 120.562 159.997C115.76 162.095 102.445 161.566 99.4357 158.382Z" fill="var(--fill-0, #C22F07)"/>
<path id="Intersect" d="M112.789 143.974C119.001 143.974 124.422 146.274 127.333 149.691C128.139 153.526 125.318 157.919 120.561 159.998C115.758 162.095 102.446 161.565 99.4354 158.383C98.1554 157.029 97.5182 154.53 97.2383 151.074C99.756 146.908 105.769 143.974 112.789 143.974Z" fill="var(--fill-0, #F4551D)"/>
</g>
<g id="Vector_3">
<path d="M32.9958 267.117C36.7999 261.006 45.0354 259.559 56.4519 263.156C56.4519 263.156 60.8341 251.569 68.0376 248.055C76.7403 243.81 90.558 257.134 88.3747 262.437C86.7391 266.409 78.1007 279.989 71.1314 287.714C67.7463 291.466 57.7523 294.897 47.9524 291.134C36.5963 286.519 29.2738 273.096 32.9958 267.117Z" fill="#F47112"/>
<path d="M32.9958 267.117C36.7999 261.006 45.0354 259.559 56.4519 263.156C56.4519 263.156 60.8341 251.569 68.0376 248.055C76.7403 243.81 90.558 257.134 88.3747 262.437C86.7391 266.409 78.1007 279.989 71.1314 287.714C67.7463 291.466 57.7523 294.897 47.9524 291.134C36.5963 286.519 29.2738 273.096 32.9958 267.117Z" fill="#F47112"/>
</g>
<g id="Group 42">
<path id="Vector 136" d="M203.418 174.174C221.302 175.779 230.029 184.259 231.532 197.149C232.923 209.077 223.643 220.156 216.307 223.866C208.971 227.576 204.32 228.407 196.291 228.241C188.263 228.076 173.603 222.742 170.976 211.966C168.325 201.091 176.202 191.835 186.488 186.798C196.774 181.761 208.331 183.696 208.331 183.696L203.418 174.174Z" fill="var(--fill-0, #FADA3A)"/>
<path id="Vector 137" d="M203.419 174.174C221.303 175.779 230.03 184.258 231.533 197.149C232.924 209.077 223.644 220.156 216.308 223.866C208.972 227.576 204.32 228.046 196.292 228.241C185.924 228.494 171.864 221.406 171.211 213.524C170.485 204.754 178.064 197.901 187.196 195.47C197.295 192.782 208.045 195.745 208.045 195.745" stroke="var(--stroke-0, #ECC234)"/>
</g>
<g id="Group 43">
<path id="Ellipse 23" d="M1.5374 174.841C-1.65211 185.487 4.62806 199.961 11.8918 206.054C19.1556 212.147 33.4837 217.249 51.4741 212.793L60.5455 181.021C52.1037 182.217 47.6381 181.147 40.1278 174.519C39.8401 164.52 31.5016 156.648 21.5033 156.936C11.5049 157.224 4.41092 165.251 1.5374 174.841Z" fill="var(--fill-0, #FADA3A)"/>
<path id="Ellipse 22" d="M40.1278 174.519C39.8401 164.52 31.5016 156.648 21.5033 156.936C11.5049 157.224 4.41092 165.251 1.5374 174.841C-1.65211 185.487 4.62806 199.961 11.8918 206.054C19.1556 212.147 33.4837 217.249 51.4741 212.793M40.1278 174.519C40.3053 180.689 34.3105 191.229 24.1233 193.098M40.1278 174.519C47.6381 181.147 52.1047 182.217 60.5464 181.021" stroke="var(--stroke-0, #ECC234)"/>
</g>
</g>
<path id="Union" d="M284.22 205.921C294.647 205.461 303.458 213.188 303.899 223.181C303.931 223.892 303.916 224.596 303.863 225.29C309.663 227.08 313.966 231.89 314.352 237.798C314.808 244.796 309.614 250.973 302.346 252.656C301.08 257.051 297.771 261.037 292.996 263.247C286.881 266.078 280.097 265.196 275.629 261.519C273.001 265.278 268.257 266.61 263.261 268.251C260.217 269.25 253.958 270.315 251.598 270.419L235.9 271.901C235.9 271.901 245.062 265.19 245.64 260.436C245.981 257.627 246.564 254.727 246.866 252.499C247.734 246.096 249.494 244.325 254.555 241.662C251.565 235.001 253.355 227.687 258.604 225.257C260.977 224.159 263.652 224.247 266.163 225.279C266.153 225.136 266.145 224.993 266.139 224.849C265.698 214.856 273.793 206.382 284.22 205.921Z" fill="var(--fill-0, #E5DBC9)"/>
<path id="Union_2" d="M264.498 290.694C259.953 291.211 255.71 288.425 253.679 286.5L244.236 278.822C244.236 278.822 252.013 279.264 255.279 278.309C257.832 277.563 261.069 276.179 262.662 275.969C268.817 275.154 271.216 278.776 272.076 281.662C272.937 284.549 272.689 289.763 264.498 290.694Z" fill="var(--fill-0, #E5DBC9)"/>
<path id="Vector_4" d="M300.565 132.122L255.131 123.959" stroke="var(--stroke-0, black)" stroke-width="2" stroke-linecap="round" stroke-linejoin="round"/>
<path id="Vector_5" d="M289.542 108.499L244.108 100.336" stroke="var(--stroke-0, black)" stroke-width="2" stroke-linecap="round" stroke-linejoin="round"/>
<path id="Vector_6" d="M292.692 155.745L247.258 147.583" stroke="var(--stroke-0, black)" stroke-width="2" stroke-linecap="round" stroke-linejoin="round"/>
<path id="Vector_7" d="M303.715 180.944L258.281 172.781" stroke="var(--stroke-0, black)" stroke-width="2" stroke-linecap="round" stroke-linejoin="round"/>
</g>
</svg>
